<svg xmlns="http://www.w3.org/2000/svg" width="16.042" height="17.722" viewBox="0 0 16.042 17.722"><defs><style>.a{fill:#fff;}</style></defs><path class="a" d="M23.636,11.011a8.031,8.031,0,0,0-16.042,0A7.391,7.391,0,0,0,9.23,15.353H9.214c.591.813,1.16.959,1.707,1.9a6.071,6.071,0,0,1,1.013,3.019.869.869,0,0,0,.867.829h.482a.217.217,0,0,0,.217-.217V15.759a1.753,1.753,0,0,0-.184-.775l-1.138-2.276a.569.569,0,0,1,.509-.824h0a.564.564,0,0,1,.509.32l1.371,2.786a1.7,1.7,0,0,1,.179.764v5.127a.217.217,0,0,0,.217.217h1.3a.217.217,0,0,0,.217-.217V15.754a1.7,1.7,0,0,1,.179-.764l1.377-2.8a.549.549,0,0,1,.488-.3h0a.545.545,0,0,1,.488.791l-1.154,2.309a1.771,1.771,0,0,0-.184.775v5.116a.217.217,0,0,0,.217.217h.542a.867.867,0,0,0,.867-.813,6.511,6.511,0,0,1,1-3.035c.547-.938,1.116-1.084,1.707-1.9H22A7.391,7.391,0,0,0,23.636,11.011Z" transform="translate(-7.594 -3.375)"/></svg>