<svg xmlns="http://www.w3.org/2000/svg" width="930.381" height="648.529" viewBox="0 0 930.381 648.529">
  <g id="Group_12610" data-name="Group 12610" transform="translate(-890.168 -194.39)">
    
    <path id="Path_25361" data-name="Path 25361" d="M53.414,11.973H42.486l-.06,1.035A6.384,6.384,0,0,1,36,19.018c-3.477.012-6.668-2.635-6.478-5.965l.064-1.08H6.451A6.251,6.251,0,0,1,0,5.986,6.251,6.251,0,0,1,6.451,0H53.414a6.251,6.251,0,0,1,6.451,5.986A6.251,6.251,0,0,1,53.414,11.973Z" transform="translate(1407.963 263.755) rotate(-180)" fill="#ebe3ff" fill-rule="evenodd"/> 
    <path id="Path_25366" data-name="Path 25366" d="M5.223,9.69h32.6c-.024.243-.036.491-.036.742h0c0,4.608,4.064,8.378,9.032,8.378h15.3l.083,3.22a8.835,8.835,0,0,0,9,8.412c4.923.017,9.187-3.709,9.063-8.347l-.086-3.284h86.46c4.965,0,9.029-3.771,9.029-8.378s-4.064-8.381-9.029-8.381H138.061A5.353,5.353,0,0,0,133.8,0H5.223A5.06,5.06,0,0,0,0,4.844,5.06,5.06,0,0,0,5.223,9.69Z" transform="translate(1065.832 224.832) rotate(-180)" fill="#ebe3ff" fill-rule="evenodd"/>
   <path id="Path_25367" data-name="Path 25367" d="M37.422,12.392H36.175v.541a6.469,6.469,0,0,1-6.2,6.678,6.469,6.469,0,0,1-6.2-6.678v-.541H6.678A6.469,6.469,0,0,1,0,6.2,6.469,6.469,0,0,1,6.678,0H37.422A6.469,6.469,0,0,1,44.1,6.2,6.469,6.469,0,0,1,37.422,12.392Z" transform="translate(1275.318 281.975) rotate(-180)" fill="#ebe3ff" fill-rule="evenodd"/>
  </g>
</svg>
