<svg xmlns="http://www.w3.org/2000/svg" width="61.371" height="36.481" viewBox="0 0 61.371 36.481"><defs><style>.a{fill:#59686b;}.b{fill:#6746ee;}</style></defs><g transform="translate(-6910 -20985.01)"><path class="a" d="M22.848-28.364h-4.8l-6.7-10.26L4.7-28.364H0L8.978-42,.9-54.252h4.75l5.7,8.835,5.653-8.835h4.75L13.728-42.045Zm4.7-35.626a2.938,2.938,0,0,1,2.161.879,2.91,2.91,0,0,1,.879,2.138,2.91,2.91,0,0,1-.879,2.138,2.91,2.91,0,0,1-2.138.879,2.871,2.871,0,0,1-2.138-.9,2.933,2.933,0,0,1-.879-2.114,2.933,2.933,0,0,1,.879-2.114A2.844,2.844,0,0,1,27.55-63.99Zm2,35.626H25.6V-54.252h3.943Zm31.825,0H57.523v-3.8a12.831,12.831,0,0,1-9.738,4.655,12.633,12.633,0,0,1-9.429-4.061,13.471,13.471,0,0,1-3.919-9.69A13.269,13.269,0,0,1,38.381-50.9,12.97,12.97,0,0,1,48-54.917a11.935,11.935,0,0,1,9.524,4.608v-3.943h3.848Zm-13.3-2.8a9.274,9.274,0,0,0,6.793-2.85,9.638,9.638,0,0,0,2.85-7.1,9.8,9.8,0,0,0-2.8-7.125,9.218,9.218,0,0,0-6.864-2.874,9.075,9.075,0,0,0-6.864,2.969,9.868,9.868,0,0,0-2.8,7.006,9.782,9.782,0,0,0,2.85,7.006A9.146,9.146,0,0,0,48.071-31.167Z" transform="translate(6910 21049)"/><path class="b" d="M22.848-21.907h-4.8l-6.7-10.26L4.7-21.907H0L8.978-35.54.9-47.8h4.75l5.7,8.835L17.005-47.8h4.75L13.728-35.587Z" transform="translate(6910 21042.543)"/></g></svg>