<svg xmlns="http://www.w3.org/2000/svg" width="175.664" height="30.442" viewBox="0 0 175.664 30.442">
  <path id="Path_25366" data-name="Path 25366" d="M5.223,9.69h32.6c-.024.243-.036.491-.036.742h0c0,4.608,4.064,8.378,9.032,8.378h15.3l.083,3.22a8.835,8.835,0,0,0,9,8.412c4.923.017,9.187-3.709,9.063-8.347l-.086-3.284h86.46c4.965,0,9.029-3.771,9.029-8.378s-4.064-8.381-9.029-8.381H138.061A5.353,5.353,0,0,0,133.8,0H5.223A5.06,5.06,0,0,0,0,4.844,5.06,5.06,0,0,0,5.223,9.69Z" fill="#ebe3ff" fill-rule="evenodd"/>
</svg>
