<svg xmlns="http://www.w3.org/2000/svg" xmlns:xlink="http://www.w3.org/1999/xlink" width="147.438" height="179.173" viewBox="0 0 147.438 179.173"><defs><style>.a{fill:url(#a);}.b{opacity:0.3;mix-blend-mode:multiply;isolation:isolate;fill:url(#b);}</style><linearGradient id="a" x1="0.547" y1="-0.061" x2="0.367" y2="2.016" gradientUnits="objectBoundingBox"><stop offset="0" stop-color="#aa80f9"/><stop offset="0.996" stop-color="#6165d7"/></linearGradient><linearGradient id="b" x1="0.546" y1="-0.051" x2="0.368" y2="2.007" xlink:href="#a"/></defs><g transform="translate(0 0)"><path class="a" d="M1382.782,1007.914V1170.1c0,2.443-3.08,4.568-6.816,4.721l-133.165,5.425c-4.092.166-7.457-1.8-7.457-4.364V1005.622c0-1.7,1.469-3.174,3.657-3.951a10.829,10.829,0,0,1,3.782-.589l133.183,2.27C1379.7,1003.417,1382.782,1005.468,1382.782,1007.914Z" transform="translate(-1235.344 -1001.081)"/><path class="b" d="M1382.782,1164.306v12.4c0,2.443-3.08,4.568-6.816,4.721l-133.165,5.425c-4.092.165-7.457-1.8-7.457-4.364V1012.235c0-1.7,1.469-3.174,3.657-3.951,11.007,2.3,43.124,13.264,45.7,63.374C1287.221,1120.743,1365.985,1131.646,1382.782,1164.306Z" transform="translate(-1235.344 -1007.693)"/></g></svg>