<svg xmlns="http://www.w3.org/2000/svg" xmlns:xlink="http://www.w3.org/1999/xlink" width="244.854" height="246.168" viewBox="0 0 244.854 246.168"><defs><style>.a{fill:url(#a);}.b{clip-path:url(#b);}.c{opacity:0.8;}.aj,.c,.k,.l{mix-blend-mode:soft-light;}.af,.ag,.aj,.c,.k,.l,.t{isolation:isolate;}.aj,.d,.l,.m{fill:#fff;}.e{fill:url(#c);}.f{clip-path:url(#d);}.g{opacity:0.108;}.h{fill:#dcd6f7;}.h,.m{fill-rule:evenodd;}.i{fill:url(#e);}.j{fill:url(#f);}.k,.l{opacity:0.502;}.n{fill:url(#g);}.o{fill:url(#h);}.p{fill:url(#i);}.q{fill:url(#j);}.r{fill:url(#k);}.s{fill:url(#l);}.t{opacity:0.302;fill:url(#m);}.af,.ag,.t{mix-blend-mode:multiply;}.u{fill:url(#n);}.v{fill:url(#o);}.w{fill:url(#p);}.x{fill:url(#q);}.y{fill:url(#r);}.z{fill:url(#s);}.aa{fill:url(#t);}.ab{fill:url(#u);}.ac{fill:url(#v);}.ad{fill:url(#w);}.ae{fill:url(#x);}.af,.ag{opacity:0.102;}.af{fill:url(#y);}.ag{fill:url(#z);}.ah{fill:url(#aa);}.ai{fill:url(#ab);}.aj{opacity:0.4;}</style><linearGradient id="a" x1="-0.099" y1="0.855" x2="0.531" y2="-0.151" gradientUnits="objectBoundingBox"><stop offset="0.004" stop-color="#e38ddd"/><stop offset="1" stop-color="#9571f6"/></linearGradient><clipPath id="b"><path d="M1632.54,188.188c-2.939-2.432-7.4-3.757-11.167-4.024-26.721-1.893-30.619,53.959-26.525,66.441s1.442,16.58-19.6,23.111-10.948,19.1-8.383,26.457,7.644,13.565-7.7,20.871q-15.341,7.306-10.01,11.832,28.292,28.939,26.729,19.674c-1.563-9.265,1.268-23.254,26.633-24.317,10.925-.458,27.657-5.67,31.361-17.368.863-2.724,1.463-6.885.806-9.7-.91-3.911-3.477-6.993-4.9-10.675-3.322-8.579,5.01-14.861,9.8-20.6a63.8,63.8,0,0,0,6.921-9.476c3.98-7.086,2.491-14.686-1.843-21.218-2.078-3.132-4.967-6.455-5.873-10.191-.974-4.014-.125-9.5.106-13.626a86.522,86.522,0,0,0,.308-9.709C1638.868,199.631,1637.454,192.255,1632.54,188.188Z" transform="translate(-1547.781 -184.117)"/></clipPath><linearGradient id="c" x1="0.024" y1="-0.001" x2="0.991" y2="-0.001" gradientUnits="objectBoundingBox"><stop offset="0" stop-color="#ff9085"/><stop offset="1" stop-color="#fb6fbb"/></linearGradient><clipPath id="d"><path d="M1459.549,1036.788c-1.943-3.283-5.691-6.039-9.147-7.565-24.5-10.823-47.071,40.414-47.441,53.546s-4.254,16.09-26.265,15.115-16.767,14.273-16.841,22.06,2.6,15.351-14.3,17.034q-16.908,1.685-13.423,7.749,16.831,36.8,18.495,27.557c1.664-9.247,9.063-21.454,33.291-13.872,10.435,3.267,27.943,4.023,35.387-5.731,1.734-2.272,3.706-5.984,4.043-8.859.466-3.988-.907-7.757-1-11.7-.223-9.2,9.742-12.289,16.194-16.063a63.846,63.846,0,0,0,9.72-6.575c6.143-5.322,7.313-12.977,5.445-20.591-.9-3.65-2.489-7.755-2.078-11.577.442-4.107,3.1-8.979,4.71-12.786a86.449,86.449,0,0,0,3.575-9.033C1461.632,1049.7,1462.8,1042.276,1459.549,1036.788Z" transform="translate(-1331.53 -1027.732)"/></clipPath><linearGradient id="e" x1="-11.948" y1="12.001" x2="-10.879" y2="10.933" gradientUnits="objectBoundingBox"><stop offset="0" stop-color="#311944"/><stop offset="1" stop-color="#893976"/></linearGradient><linearGradient id="f" x1="-0.198" y1="0.4" x2="0.684" y2="-0.424" xlink:href="#c"/><linearGradient id="g" x1="0.863" y1="-0.031" x2="-1.726" y2="1.395" gradientUnits="objectBoundingBox"><stop offset="0" stop-color="#ffc444"/><stop offset="0.996" stop-color="#f36f56"/></linearGradient><linearGradient id="h" x1="1.022" y1="-0.688" x2="1.033" y2="-6.994" gradientUnits="objectBoundingBox"><stop offset="0" stop-color="#aa80f9"/><stop offset="0.996" stop-color="#6165d7"/></linearGradient><linearGradient id="i" x1="1.316" y1="2.207" x2="0.878" y2="-1.681" xlink:href="#g"/><linearGradient id="j" x1="1.024" y1="-1.558" x2="1.034" y2="-7.863" xlink:href="#h"/><linearGradient id="k" x1="1.241" y1="1.6" x2="0.803" y2="-2.288" xlink:href="#g"/><linearGradient id="l" x1="-0.073" y1="0.126" x2="-0.695" y2="0.795" xlink:href="#e"/><linearGradient id="m" x1="0.978" y1="-0.017" x2="-0.023" y2="-0.002" xlink:href="#e"/><linearGradient id="n" x1="0.971" y1="-0.015" x2="-0.228" y2="0.009" xlink:href="#e"/><linearGradient id="o" x1="-0.029" y1="0.171" x2="-0.457" y2="3.225" xlink:href="#h"/><linearGradient id="p" x1="-0.181" y1="2.096" x2="-0.369" y2="3.895" xlink:href="#h"/><linearGradient id="q" x1="0.237" y1="1.871" x2="1.384" y2="0.366" xlink:href="#h"/><linearGradient id="r" x1="-0.724" y1="-1.642" x2="0.275" y2="1.613" xlink:href="#g"/><linearGradient id="s" x1="-0.271" y1="2.542" x2="-0.621" y2="4.771" xlink:href="#h"/><linearGradient id="t" x1="1.086" y1="0.864" x2="0.495" y2="-0.205" xlink:href="#g"/><linearGradient id="u" x1="0.507" y1="1.838" x2="1.059" y2="0.256" gradientUnits="objectBoundingBox"><stop offset="0" stop-color="#444b8c"/><stop offset="0.996" stop-color="#3e4177"/></linearGradient><linearGradient id="v" x1="1.831" y1="0.528" x2="-0.169" y2="-0.432" xlink:href="#g"/><linearGradient id="w" x1="0.002" y1="-0.001" x2="0.998" y2="-0.001" xlink:href="#e"/><linearGradient id="x" x1="0.084" y1="2.121" x2="-0.037" y2="0.454" gradientUnits="objectBoundingBox"><stop offset="0.004" stop-color="#f36f56"/><stop offset="1" stop-color="#ffc444"/></linearGradient><linearGradient id="y" x1="0.001" y1="-0.012" x2="0.999" y2="-0.012" xlink:href="#x"/><linearGradient id="z" x1="0.001" y1="-0.011" x2="1" y2="-0.011" xlink:href="#x"/><linearGradient id="aa" x1="1.061" y1="-0.491" x2="0.678" y2="4.893" xlink:href="#x"/><linearGradient id="ab" x1="0.949" y1="-1.475" x2="1.079" y2="2.47" xlink:href="#x"/></defs><g transform="translate(-9.364 -10.494)"><g transform="translate(9.363 10.494)"><g transform="translate(114.778 8.419)"><g transform="translate(19.809)"><path class="a" d="M1632.54,188.188c-2.939-2.432-7.4-3.757-11.167-4.024-26.721-1.893-30.619,53.959-26.525,66.441s1.442,16.58-19.6,23.111-10.948,19.1-8.383,26.457,7.644,13.565-7.7,20.871q-15.341,7.306-10.01,11.832,28.292,28.939,26.729,19.674c-1.563-9.265,1.268-23.254,26.633-24.317,10.925-.458,27.657-5.67,31.361-17.368.863-2.724,1.463-6.885.806-9.7-.91-3.911-3.477-6.993-4.9-10.675-3.322-8.579,5.01-14.861,9.8-20.6a63.8,63.8,0,0,0,6.921-9.476c3.98-7.086,2.491-14.686-1.843-21.218-2.078-3.132-4.967-6.455-5.873-10.191-.974-4.014-.125-9.5.106-13.626a86.522,86.522,0,0,0,.308-9.709C1638.868,199.631,1637.454,192.255,1632.54,188.188Z" transform="translate(-1547.781 -184.117)"/><g class="b"><g class="c" transform="translate(-1.378 -6.949)"><path class="d" d="M1533.268,280.2a.4.4,0,0,1-.317-.722,190.617,190.617,0,0,0,25.316-16.645c12.243-9.507,28.192-24.5,34.649-41.926,5.394-14.556,10.313-38.617,13.495-66.016,2.854-24.569,3.305-42.739,2.092-46.112a.395.395,0,1,1,.743-.267c1.419,3.945.519,24.358-2.05,46.47-3.19,27.459-8.124,51.587-13.539,66.2-6.523,17.606-22.588,32.712-34.916,42.285a191.376,191.376,0,0,1-25.423,16.712Z" transform="translate(-1532.739 -108.252)"/><g transform="translate(50.012 17.361)"><path class="d" d="M2102.322,331.821a.356.356,0,0,1-.488-.188c-.1-.27-10.059-27.069-22.9-33.119a.38.38,0,0,1-.184-.514.4.4,0,0,1,.528-.183c13.139,6.189,22.893,32.426,23.3,33.541a.356.356,0,0,1-.251.462Z" transform="translate(-2078.706 -297.779)"/></g><g transform="translate(68.242 63.602)"><path class="d" d="M2278.237,821.449a.4.4,0,0,1-.385-.677,125.181,125.181,0,0,1,16.455-11.124c12.226-6.821,21.6-8.725,27.849-5.659a.395.395,0,1,1-.348.709c-14.386-7.052-43.165,16.447-43.455,16.685A.391.391,0,0,1,2278.237,821.449Z" transform="translate(-2277.708 -802.568)"/></g><g transform="translate(17.498 92.916)"><path class="d" d="M1743.1,1175.679a.366.366,0,0,1-.127.023.4.4,0,0,1-.4-.388,150.681,150.681,0,0,0-2.612-23.728c-2.207-11.108-6.763-25.021-15.938-28.227a.4.4,0,1,1,.261-.747c7.65,2.674,13.186,12.374,16.454,28.83a151.524,151.524,0,0,1,2.625,23.859A.4.4,0,0,1,1743.1,1175.679Z" transform="translate(-1723.76 -1122.59)"/></g><g transform="translate(52.639 105.701)"><path class="d" d="M2107.907,1283.88a.395.395,0,0,1-.368-.689c1.271-.941,31.284-23.006,42.988-20.9a.395.395,0,0,1-.139.778c-11.373-2.047-42.071,20.527-42.38,20.755A.4.4,0,0,1,2107.907,1283.88Z" transform="translate(-2107.378 -1262.151)"/></g></g></g></g><g transform="translate(0 77.278)"><path class="e" d="M1459.549,1036.788c-1.943-3.283-5.691-6.039-9.147-7.565-24.5-10.823-47.071,40.414-47.441,53.546s-4.254,16.09-26.265,15.115-16.767,14.273-16.841,22.06,2.6,15.351-14.3,17.034q-16.908,1.685-13.423,7.749,16.831,36.8,18.495,27.557c1.664-9.247,9.063-21.454,33.291-13.872,10.435,3.267,27.943,4.023,35.387-5.731,1.734-2.272,3.706-5.984,4.043-8.859.466-3.988-.907-7.757-1-11.7-.223-9.2,9.742-12.289,16.194-16.063a63.846,63.846,0,0,0,9.72-6.575c6.143-5.322,7.313-12.977,5.445-20.591-.9-3.65-2.489-7.755-2.078-11.577.442-4.107,3.1-8.979,4.71-12.786a86.449,86.449,0,0,0,3.575-9.033C1461.632,1049.7,1462.8,1042.276,1459.549,1036.788Z" transform="translate(-1331.53 -1027.732)"/><g class="f"><g class="c" transform="translate(-7.388 -4.722)"><path class="d" d="M1251.272,1112.426a.395.395,0,0,1-.053-.786,190.644,190.644,0,0,0,29.455-7.1c14.737-4.8,34.817-13.514,46.791-27.728,10-11.872,22.771-32.85,35.037-57.555,11-22.153,17.571-39.1,17.571-42.684a.4.4,0,0,1,.79,0c0,4.194-7.755,23.1-17.655,43.036-12.292,24.76-25.1,45.794-35.14,57.713-12.1,14.36-32.325,23.139-47.165,27.974a191.438,191.438,0,0,1-29.578,7.124A.361.361,0,0,1,1251.272,1112.426Z" transform="translate(-1250.878 -976.18)"/><g transform="translate(99.114 7.638)"><path class="d" d="M2343.728,1099.551a.387.387,0,0,1-.4-.382c0-.288-.306-28.9-10.347-38.936a.394.394,0,1,1,.559-.555c10.269,10.27,10.57,38.3,10.578,39.485a.386.386,0,0,1-.393.388Z" transform="translate(-2332.87 -1059.561)"/></g><g transform="translate(94.489 68.412)"><path class="d" d="M2282.782,1729.749a.4.4,0,0,1-.134-.768,125.4,125.4,0,0,1,19.25-4.9c13.814-2.282,23.274-.9,28.122,4.1a.4.4,0,1,1-.568.55c-11.152-11.505-46.185.87-46.537,1A.376.376,0,0,1,2282.782,1729.749Z" transform="translate(-2282.387 -1723.013)"/></g><g transform="translate(42.949 67.728)"><path class="d" d="M1720.131,1771.934a.394.394,0,0,1-.374-.523,150.763,150.763,0,0,0,5.571-23.212c1.682-11.2,2.1-25.834-5.447-31.955a.4.4,0,1,1,.5-.614c6.294,5.1,8.221,16.1,5.728,32.7a151.418,151.418,0,0,1-5.6,23.34A.4.4,0,0,1,1720.131,1771.934Z" transform="translate(-1719.735 -1715.542)"/></g><g transform="translate(64.598 104.469)"><path class="d" d="M1956.464,2124.324a.4.4,0,0,1-.114-.773c1.515-.454,37.224-11.062,47.525-5.119a.4.4,0,0,1-.395.685c-10.009-5.775-46.534,5.081-46.9,5.191A.407.407,0,0,1,1956.464,2124.324Z" transform="translate(-1956.068 -2116.628)"/></g></g></g></g></g><g class="g" transform="translate(78.896 0)"><g transform="translate(63.103 1.574)"><path class="h" d="M1648.491,109.4l3.451.453a1,1,0,0,1,.863,1.129l-.274,2.005a15.724,15.724,0,0,1,2.574,1.054l1.23-1.6a1.01,1.01,0,0,1,1.415-.188l2.762,2.122a1.013,1.013,0,0,1,.185,1.419l-1.221,1.595a16.1,16.1,0,0,1,1.707,2.225l1.849-.77a1.011,1.011,0,0,1,1.323.548l1.343,3.247a1.022,1.022,0,0,1-.547,1.334l-1.839.769a16.132,16.132,0,0,1,.365,2.817l1.982.26a1.024,1.024,0,0,1,.878,1.149l-.451,3.522a1.021,1.021,0,0,1-1.141.889l-1.988-.261a16.416,16.416,0,0,1-1.079,2.652l1.59,1.232a1.046,1.046,0,0,1,.19,1.452l-2.151,2.851a1.015,1.015,0,0,1-1.436.2l-1.6-1.248a16.377,16.377,0,0,1-2.256,1.754l.772,1.906a1.056,1.056,0,0,1-.56,1.366l-3.283,1.391a1.014,1.014,0,0,1-1.34-.562l-.772-1.921a15.83,15.83,0,0,1-2.813.372l-.284,2.078a1.046,1.046,0,0,1-1.161.905l-3.52-.462a1.028,1.028,0,0,1-.875-1.172l.292-2.094a15.734,15.734,0,0,1-2.6-1.091l-1.285,1.677a1.023,1.023,0,0,1-1.445.2l-2.789-2.187a1.047,1.047,0,0,1-.169-1.461l1.3-1.689a16.056,16.056,0,0,1-1.672-2.251l-1.952.817a1.006,1.006,0,0,1-1.332-.559l-1.3-3.3a1.053,1.053,0,0,1,.577-1.351l1.951-.813a16.043,16.043,0,0,1-.313-2.788l-2.079-.273a1,1,0,0,1-.859-1.152l.52-3.512a1.043,1.043,0,0,1,1.159-.883l2.073.272a16.27,16.27,0,0,1,1.1-2.58l-1.633-1.271a1.013,1.013,0,0,1-.165-1.427l2.176-2.785a1.019,1.019,0,0,1,1.424-.188l1.629,1.262a16.268,16.268,0,0,1,2.218-1.693l-.769-1.909a1.023,1.023,0,0,1,.564-1.321l3.24-1.335a1,1,0,0,1,1.314.545l.764,1.885a15.8,15.8,0,0,1,2.756-.365l.282-2.021A1.018,1.018,0,0,1,1648.491,109.4Zm-2.558,31.557a12.774,12.774,0,0,0,14.252-11.043,12.567,12.567,0,0,0-10.765-14.183,12.779,12.779,0,0,0-14.232,10.9A12.562,12.562,0,0,0,1645.933,140.961Z" transform="translate(-1628.694 -109.395)"/></g><path class="h" d="M970.429,92.227l5.335.7a1.547,1.547,0,0,1,1.334,1.747l-.424,3.1a24.224,24.224,0,0,1,3.981,1.63l1.9-2.47a1.563,1.563,0,0,1,2.189-.289l4.271,3.281a1.566,1.566,0,0,1,.286,2.194l-1.889,2.466a24.675,24.675,0,0,1,2.638,3.441l2.86-1.192a1.562,1.562,0,0,1,2.045.848l2.077,5.019a1.582,1.582,0,0,1-.845,2.063l-2.842,1.19a24.982,24.982,0,0,1,.564,4.355l3.065.4a1.583,1.583,0,0,1,1.357,1.777l-.7,5.445a1.579,1.579,0,0,1-1.765,1.375l-3.074-.4a25.278,25.278,0,0,1-1.668,4.1l2.459,1.905a1.616,1.616,0,0,1,.293,2.245l-3.325,4.407a1.567,1.567,0,0,1-2.22.3l-2.481-1.928a25.335,25.335,0,0,1-3.488,2.712l1.194,2.948a1.631,1.631,0,0,1-.865,2.111l-5.077,2.151a1.569,1.569,0,0,1-2.072-.868l-1.194-2.969A24.554,24.554,0,0,1,970,146.6l-.44,3.213a1.615,1.615,0,0,1-1.8,1.4l-5.444-.714a1.59,1.59,0,0,1-1.351-1.812l.453-3.238a24.178,24.178,0,0,1-4.013-1.687l-1.988,2.594a1.582,1.582,0,0,1-2.234.305l-4.311-3.383a1.617,1.617,0,0,1-.261-2.258l2.011-2.612a24.8,24.8,0,0,1-2.585-3.481l-3.018,1.263a1.555,1.555,0,0,1-2.059-.864l-2.01-5.107a1.63,1.63,0,0,1,.892-2.089l3.016-1.258a24.872,24.872,0,0,1-.483-4.312l-3.215-.421a1.553,1.553,0,0,1-1.328-1.782l.805-5.43a1.612,1.612,0,0,1,1.791-1.365l3.205.42a25.18,25.18,0,0,1,1.694-3.989l-2.526-1.963a1.568,1.568,0,0,1-.255-2.207l3.366-4.306a1.575,1.575,0,0,1,2.2-.29l2.518,1.952a25.309,25.309,0,0,1,3.429-2.618l-1.187-2.951a1.579,1.579,0,0,1,.872-2.042l5.009-2.064a1.55,1.55,0,0,1,2.033.843l1.181,2.915a24.508,24.508,0,0,1,4.26-.564l.437-3.125A1.574,1.574,0,0,1,970.429,92.227Zm-3.955,48.792a19.749,19.749,0,0,0,22.034-17.073,19.431,19.431,0,0,0-16.645-21.93,19.757,19.757,0,0,0-22,16.86A19.422,19.422,0,0,0,966.473,141.02Z" transform="translate(-939.818 -92.214)"/></g><g transform="translate(38.59 44.807)"><g transform="translate(0 0.841)"><path class="i" d="M106.86,300.616c0-10.548,9.2-19.1,20.242-19.1,10.715,0,19.172,8.1,19.172,18.09s-8.456,18.521-19.172,19.069C116.061,319.244,106.86,311.164,106.86,300.616Z" transform="translate(-106.86 -281.52)"/></g><g transform="translate(1.19)"><path class="j" d="M130.34,284.026c0-10.548,8.934-19.1,19.657-19.1a18.283,18.283,0,0,1,18.617,18.09c0,9.99-8.212,18.521-18.617,19.069C139.274,302.654,130.34,294.573,130.34,284.026Z" transform="translate(-130.34 -264.93)"/></g><g class="k" transform="translate(4.249 2.972)"><path class="d" d="M190.68,339.6c0-8.861,7.506-16.044,16.515-16.043a15.361,15.361,0,0,1,15.641,15.2,16.375,16.375,0,0,1-15.641,16.021C198.186,355.254,190.68,348.465,190.68,339.6Z" transform="translate(-190.68 -323.56)"/></g><path class="l" d="M227.365,324.922a15.214,15.214,0,0,1,14.535,20.9,15.227,15.227,0,0,0-13.915-22.264,16.6,16.6,0,0,0-15.4,10.293A16.655,16.655,0,0,1,227.365,324.922Z" transform="translate(-207.221 -320.588)"/><g transform="translate(13.295 8.665)"><path class="m" d="M383.194,592.47v7.653a4.2,4.2,0,0,1-4.133,4.115l-5.737.15a4,4,0,0,1-4.195-3.94v-7.734Zm-5.214,8.156-1.062-3.177a1.464,1.464,0,0,0,.763-1.27,1.426,1.426,0,0,0-1.483-1.406,1.5,1.5,0,0,0-1.486,1.466,1.4,1.4,0,0,0,.766,1.241l-1.067,3.231Z" transform="translate(-369.13 -584.531)"/><path class="d" d="M391.693,443.13a1.065,1.065,0,0,1-1.1-1.052,4.133,4.133,0,0,0-4.262-4.069,4.294,4.294,0,0,0-4.29,4.2,1.121,1.121,0,0,1-1.119,1.1,1.078,1.078,0,0,1-1.12-1.06,6.525,6.525,0,0,1,6.529-6.388,6.279,6.279,0,0,1,6.465,6.181A1.107,1.107,0,0,1,391.693,443.13Z" transform="translate(-379.259 -435.862)"/></g></g><g transform="translate(0 94.045)"><path class="n" d="M872.428,1390.1q-.7-2.643-.205-3.32c.5-.676,3.554-3.378,3.261-2.5a5.166,5.166,0,0,1-.735,1.469q1.645.762.587,1.909c-1.057,1.146-1.411,1.41-1.469,2.438S873.134,1391.484,872.428,1390.1Z" transform="translate(-799.33 -1359.815)"/><path class="o" d="M552.882,2695.29a17.26,17.26,0,0,0-.326,3.1c.048.814,9.077,1.23,9.169.62s-1.492-1.578-2.607-1.921q-1.116-.342-4.378-1.255Z" transform="translate(-509.129 -2550.885)"/><path class="p" d="M553.083,2669.483l-.288,2.843a1.76,1.76,0,0,1-1.973.158l-.463-3.094Z" transform="translate(-507.139 -2527.357)"/><path class="q" d="M376.994,2735.75a17.358,17.358,0,0,0-.326,3.1c.048.814,9.078,1.229,9.169.62s-1.493-1.579-2.608-1.921q-1.114-.342-4.377-1.255Z" transform="translate(-349.353 -2587.639)"/><path class="r" d="M377.2,2709.943l-.288,2.843a1.76,1.76,0,0,1-1.973.158l-.463-3.094Z" transform="translate(-347.37 -2564.112)"/><path class="s" d="M444.2,1848.141l3.131,6.348c.839,12.077,1.257,25.208.988,39.252-.2,10.448-.758,20.346-1.559,29.636l-4.246-.194a42.347,42.347,0,0,1-4.685-17.811c-.233-7.923,2.17-8.974,2.017-16.561-.2-9.833-4.32-12.455-6.517-24.283a63.324,63.324,0,0,1-.734-17.6Z" transform="translate(-399.892 -1780.238)"/><path class="t" d="M432.595,1846.93l6.267.654c3.759,6.543,4.809,13.353,4.15,16.366-.933,4.262-3.4,5.627-3.267,9.906.134,4.234,2.628,5.332,4.211,10.323,1.1,3.455.806,6.632.183,12.844-1.255,12.514-4.277,16.341-1.746,20.444a9.239,9.239,0,0,0,4.554,3.614c-.062.768-.124,1.537-.189,2.3l-4.246-.194a42.351,42.351,0,0,1-4.685-17.811c-.233-7.923,2.17-8.975,2.017-16.561-.2-9.833-4.32-12.455-6.517-24.282A63.334,63.334,0,0,1,432.595,1846.93Z" transform="translate(-399.892 -1780.238)"/><path class="u" d="M313.074,1872.059c-1.959,10.684-3.69,22.12-5.04,34.246-1.631,14.643-2.5,28.447-2.842,41.264q-2.33.066-4.66.132c-6.121-12.109-6.5-20.318-5.612-25.664a77.313,77.313,0,0,0,1.474-12.134,85.229,85.229,0,0,0-.456-11.259c-.736-8.439-1.627-10.282-1.755-16.737-.121-6.059-.146-9.124,1.584-10.914C300.322,1866.28,312.176,1871.641,313.074,1872.059Z" transform="translate(-274.384 -1800.346)"/><path class="v" d="M564.04,1374.625l3.1-.216c2.438,9.848.689,19.4-4.811,22.913-8.593,5.489-24.564-4.852-28.025-16.112-1.52-4.943-1.173-12.075,1.862-13.461.843-.385,2.151-.445,4.984,1.146,8.461,4.751,8.684,13.73,12.985,14.49C556.047,1383.724,559.136,1382.5,564.04,1374.625Z" transform="translate(-491.754 -1344.745)"/><path class="w" d="M233.416,1410.836c1.489-2.469-.381-4.851-.807-9.53-.482-5.3,1.561-6.186,3.581-14.973,1.344-5.844,2.634-11.455,1.094-18.023-.737-3.147-1.989-8.486-6.407-11.065-2.28-1.331-5.394-1.2-11.526-.877-7.585.4-11.377.594-14.2,2.084-.414.218-9.017,4.9-9.61,12.526-.6,7.764,7.853,8.808,8.981,19.161.506,4.648-.4,11.8-.982,16.434-.562,4.452-.948,5.591-.07,6.939,2.117,3.249,8.6,2.323,21.566.472C230.117,1413.258,232.3,1412.679,233.416,1410.836Z" transform="translate(-184.79 -1334.419)"/><path class="x" d="M213.688,1480.628c-.548,2.018-2.52,3.525-3.892,8.434-.3,1.06-2.407,8.606.331,10.464,1.581,1.073,3-.96,6.839-1.224,6.65-.461,9.819,5.129,14.163,3.6a5.945,5.945,0,0,0,2.743-2.127,4.389,4.389,0,0,1-.455,3.213c-1.111,1.843-3.3,2.422-8.385,3.148-12.966,1.851-19.449,2.777-21.566-.472-.878-1.347-.492-2.487.07-6.939.585-4.637,1.488-11.786.982-16.434-1.128-10.354-9.583-11.4-8.981-19.161a12.051,12.051,0,0,1,1.946-5.532C208.208,1461.94,215.412,1474.286,213.688,1480.628Z" transform="translate(-184.79 -1426.572)"/><path class="y" d="M246.12,1871.807l2.145,1.37a5.024,5.024,0,0,1,2.67-1.649c1.569-.345,3.371.149,3.413.65.033.4-1.064.806-1.233.868-1.369.506-2.385.086-2.939.637a4.219,4.219,0,0,1-1,.892,2.938,2.938,0,0,1-.383.2c-.914.355-2.482-1.236-2.616-1.374Z" transform="translate(-230.769 -1802.478)"/><path class="z" d="M100.224,1391.285c1.553-3.718,2.628-9.411.176-17.865-16.157,6.366-24.4,21.459-21.18,33.423,2.653,9.862,12.3,14.667,14.454,15.677l1.5-3.419c-2.5-2.778-5.306-6.885-4.908-11.572C90.82,1401.03,97.082,1398.812,100.224,1391.285Z" transform="translate(-78.533 -1350.103)"/><path class="aa" d="M385.1,1275a20.591,20.591,0,0,1-1.419,6.981c-1.119,2.7-7.009,4.4-8.2,5s2.235,2.365,5.68,2.711,13.283-.436,15.057-1.741-1.426-1.208-3.885-2.111-3.88-5.71-3.446-7.894Q389.32,1275.767,385.1,1275Z" transform="translate(-351.774 -1264.16)"/><path class="ab" d="M428.863,1200.6c1.788-1.757,2.038-1.961,2.232-2.568.781-2.437-1.109-5.773-3.587-6.595-.129-.043-1.79-.574-2.426.146-.538.613.254,1.459-.123,2.639-.353,1.1-1.31,1.188-3.087,2.636-1.462,1.194-2.371,1.935-2.581,2.979-.432,2.151,2.172,5.269,4.477,5.185C424.6,1204.994,424.824,1204.572,428.863,1200.6Z" transform="translate(-390.088 -1191.211)"/><g transform="translate(31.857 7.838)"><path class="ac" d="M442.176,1258.1a4.519,4.519,0,0,0,4.794,1.44c2.591-.637,1.93-6.585.034-7.535a3.367,3.367,0,0,0-2.647.127c-.511.246-.652.5-1.494.887-.777.356-1.023.307-1.233.557-.261.313-.374.987.445,2.616a1.446,1.446,0,0,0-1.615-.229.9.9,0,0,0-.289.4C439.925,1257.105,440.691,1257.854,442.176,1258.1Z" transform="translate(-440.126 -1251.794)"/></g></g><g transform="translate(66.849 71.329)"><path class="ad" d="M967.8,678.02l.524,2.824h0l-10.769.025-93.454.221a5.2,5.2,0,0,0-4.945,4.439l-22.309,149.1c-.332,2.468,3.51,6.235,5.9,6.419l41.461,3.186v-.05l62.018,4.758h0l.151.063a5.092,5.092,0,0,0,5.422-4.324v.01L972.688,685.5C973.027,682.919,970.459,678.013,967.8,678.02Z" transform="translate(-836.761 -677.754)"/><path class="ae" d="M949.152,839.215a5.111,5.111,0,0,1-5.418,4.353L839.995,835.6a4.129,4.129,0,0,1-3.719-4.8l20.281-150.685a5.2,5.2,0,0,1,4.942-4.439l104.325-.287a4.063,4.063,0,0,1,4.211,4.663Z" transform="translate(-836.233 -675.39)"/><path class="d" d="M1113.911,1309.065a2.621,2.621,0,0,1-2.693,2.206l-91.3-3.332a1.941,1.941,0,0,1-1.887-2.269l1.8-13.305a2.391,2.391,0,0,1,2.472-2.033l91.382,2.538a1.983,1.983,0,0,1,2.084,2.259Z" transform="translate(-999.614 -1228.107)"/><path class="d" d="M1079.669,1561.192a2.714,2.714,0,0,1-2.695,2.332l-91.233-4.507a2.1,2.1,0,0,1-1.877-2.447l1.809-13.562a2.571,2.571,0,0,1,2.481-2.243l91.289,3.682a2.216,2.216,0,0,1,2.079,2.538Z" transform="translate(-968.907 -1453.201)"/><path class="af" d="M1115.762,1295.082a2.484,2.484,0,0,0-.7-.115l-91.384-2.536a2.387,2.387,0,0,0-2.471,2.031l-1.8,13.3c0,.035-.007.067-.011.1a1.938,1.938,0,0,1-1.382-2.192l1.8-13.3a2.388,2.388,0,0,1,2.47-2.031l91.385,2.536A1.987,1.987,0,0,1,1115.762,1295.082Z" transform="translate(-999.608 -1228.116)"/><path class="ag" d="M1081.538,1546.678a2.142,2.142,0,0,0-.707-.15l-91.287-3.682a2.567,2.567,0,0,0-2.48,2.243l-1.812,13.563a2.193,2.193,0,0,0-.017.258,2.141,2.141,0,0,1-1.376-2.348L985.67,1543a2.57,2.57,0,0,1,2.481-2.243l91.287,3.682A2.208,2.208,0,0,1,1081.538,1546.678Z" transform="translate(-968.903 -1453.192)"/><path class="ah" d="M1189.524,1898.584a3.3,3.3,0,0,0-3.225-3.681l-47.228-2.471a3.946,3.946,0,0,0-4.028,3.21l-1.949,13.388a3.241,3.241,0,0,0,3.045,3.671l47.2,2.944a4.085,4.085,0,0,0,4.208-3.312Z" transform="translate(-1103.026 -1767.022)"/><g transform="translate(54.688 13.203)"><path class="ai" d="M1412.084,823.6a20.443,20.443,0,0,1-20.093,17.362,15.437,15.437,0,0,1-12-5.736,15.744,15.744,0,0,1-3.125-12.007,20.462,20.462,0,0,1,19.792-17.347C1406.432,805.892,1413.377,813.828,1412.084,823.6Z" transform="translate(-1376.708 -805.869)"/><g transform="translate(3.282 4.738)"><path class="d" d="M1497.261,860.351a8.867,8.867,0,0,1-8.657,7.527,6.576,6.576,0,0,1-6.584-7.654,8.876,8.876,0,0,1,8.6-7.525A6.577,6.577,0,0,1,1497.261,860.351Z" transform="translate(-1474.585 -852.699)"/><path class="d" d="M1434.77,1032.8a19.875,19.875,0,0,1-13.629,5.31,15.438,15.438,0,0,1-12-5.736,16.907,16.907,0,0,1,13.717-7.158A12.945,12.945,0,0,1,1434.77,1032.8Z" transform="translate(-1409.14 -1007.761)"/></g></g><path class="aj" d="M1284.177,680.061,1263.3,839.223a5.259,5.259,0,0,1-5.573,4.342l-62.306-4.785a33.2,33.2,0,0,1-7.137-11.03,34.081,34.081,0,0,1-1.9-6.878,57.361,57.361,0,0,1,.978-21.859A72.212,72.212,0,0,1,1193.3,782.4a54.569,54.569,0,0,1,7.266-11.029c1.969-2.274,4.1-4.482,6.345-6.649,2.709-2.615,5.588-5.166,8.557-7.7,6.919-5.9,14.33-11.661,21.19-17.748,15.829-14.042,28.672-29.733,25.582-52.121-.1-.705-1.063-6.106-2.3-11.7l19.869-.055A4.176,4.176,0,0,1,1284.177,680.061Z" transform="translate(-1150.376 -675.399)"/></g></g></g></svg>