<svg xmlns="http://www.w3.org/2000/svg" xmlns:xlink="http://www.w3.org/1999/xlink" width="286.81" height="304.631" viewBox="0 0 286.81 304.631"><defs><style>.a{fill:url(#a);}.af,.b{fill:#d8dee8;}.ab,.c{fill:none;}.d{fill:url(#b);}.e{clip-path:url(#d);}.f{opacity:0.7;}.al,.f,.i,.v,.w{mix-blend-mode:soft-light;}.ac,.ad,.af,.al,.f,.i,.n,.v,.w{isolation:isolate;}.g{fill:#fcfdfe;}.h{clip-path:url(#e);}.j{clip-path:url(#f);}.k{clip-path:url(#h);}.l{fill:#beb8f2;}.m{fill:url(#i);}.ad,.af,.al,.n{opacity:0.3;}.ac,.ad,.af,.n{mix-blend-mode:multiply;}.n{fill:url(#j);}.o{fill:url(#k);}.p{fill:url(#l);}.q{fill:url(#m);}.r{fill:url(#n);}.al,.s,.w{fill:#fff;}.t{fill:url(#o);}.u{fill:url(#p);}.v,.w{opacity:0.5;}.x{fill:url(#q);}.y{fill:url(#r);}.z{fill:url(#s);}.aa{fill:url(#t);}.ab{stroke:#fff;stroke-linecap:round;stroke-linejoin:round;stroke-width:2px;}.ad,.ae{fill:url(#u);}.ag{fill:url(#z);}.ah{fill:url(#aa);}.ai{fill:url(#ab);}.aj{fill:url(#ac);}.ak{fill:url(#ad);}.am{fill:#6951cc;}.an{fill:#2e3060;}</style><linearGradient id="a" x1="1.147" y1="1.105" x2="-0.599" y2="-0.38" gradientUnits="objectBoundingBox"><stop offset="0" stop-color="#ffc444"/><stop offset="0.996" stop-color="#f36f56"/></linearGradient><linearGradient id="b" x1="0.641" y1="0.161" x2="0.367" y2="0.851" gradientUnits="objectBoundingBox"><stop offset="0.004" stop-color="#e38ddd"/><stop offset="1" stop-color="#9571f6"/></linearGradient><clipPath id="d"><path class="a" d="M1020.815,874.948c4.2,5.16,8.228,8.93,12.563,13.779-26.8,8.168-51.146,20.956-78.307,29.286,5.936-36.14,17.2-55.22-7.426-89.82-11.555-16.237-39.085-44.854-38.354-65.13.833-23.1,17.058-23.327,6.58-39.858-16.377-25.838-13.853-60.513,28.64-63,41.939-2.452,78.5,100.285,67.414,136.135C1008.6,828.74,998.9,848.006,1020.815,874.948Z" transform="translate(-906.515 -660.165)"/></clipPath><clipPath id="e"><path class="b" d="M1911.645,1206.887c1.712,31.772-17.4,29.8-41.9,28.34,11.258,27.413,21.21,54.519,31.215,82.063,16.415.731,28.186.95,32.229-18.585,4.572-22.093,6.478-34.995,28.791-45.927s35.68-32.881,21.913-53.557c-14.488-21.758-1.889-58.235-26.432-70.453C1914.695,1107.477,1909.863,1173.8,1911.645,1206.887Z" transform="translate(-1869.744 -1124.637)"/></clipPath><clipPath id="f"><rect class="c" width="205.868" height="168.713"/></clipPath><clipPath id="h"><path class="d" d="M746.2,1996.765q18.144-9.125,35.981-18.957c.26.08-3.752-24.234-21.089-31.519-34.112-13.923-24.156-40.98-23.6-55.094,1.65-20.2-9.21-37.534-30.612-30.167-23.875,7.787-39.763-23.146-46.037-54.22-1.837-15.594-24.453-27.2-42.216-25.328-18.258,1.56-31.663,16.591-26.5,47.135,4.16,36.016,40.547,45.577,57.324,58.362,16.495,12.542-3.542,34.669,21.575,42.012,21.372,6.864,45.815,8.539,43.867,27.5C712.663,1975.334,719.239,1987.731,746.2,1996.765Z" transform="translate(-591.006 -1781.283)"/></clipPath><linearGradient id="i" x1="0.547" y1="-0.061" x2="0.367" y2="2.016" gradientUnits="objectBoundingBox"><stop offset="0" stop-color="#aa80f9"/><stop offset="0.996" stop-color="#6165d7"/></linearGradient><linearGradient id="j" x1="0.546" y1="-0.051" x2="0.368" y2="2.007" xlink:href="#i"/><linearGradient id="k" x1="-0.335" y1="1.325" x2="3.133" y2="-2.462" gradientUnits="objectBoundingBox"><stop offset="0" stop-color="#ab316d"/><stop offset="1" stop-color="#792d3d"/></linearGradient><linearGradient id="l" x1="-0.032" y1="1.208" x2="0.597" y2="0.374" gradientUnits="objectBoundingBox"><stop offset="0" stop-color="#fcb148"/><stop offset="0.052" stop-color="#fdb946"/><stop offset="0.142" stop-color="#fec144"/><stop offset="0.318" stop-color="#ffc444"/><stop offset="0.485" stop-color="#fdb946"/><stop offset="0.775" stop-color="#f99c4c"/><stop offset="0.866" stop-color="#f8924f"/><stop offset="1" stop-color="#f8924f"/></linearGradient><linearGradient id="m" x1="0.66" y1="0.944" x2="0.229" y2="-0.194" xlink:href="#l"/><linearGradient id="n" x1="-0.495" y1="1.321" x2="2.887" y2="-3.15" xlink:href="#l"/><linearGradient id="o" x1="-0.914" y1="23.617" x2="-1.984" y2="24.685" gradientUnits="objectBoundingBox"><stop offset="0" stop-color="#311944"/><stop offset="1" stop-color="#893976"/></linearGradient><linearGradient id="p" x1="0.165" y1="0.812" x2="1.048" y2="-0.012" gradientUnits="objectBoundingBox"><stop offset="0" stop-color="#ff9085"/><stop offset="1" stop-color="#fb6fbb"/></linearGradient><linearGradient id="q" x1="1.052" y1="-0.028" x2="-1.092" y2="2.022" xlink:href="#o"/><linearGradient id="r" x1="0.226" y1="0.07" x2="0.913" y2="1.148" xlink:href="#p"/><linearGradient id="s" x1="0.912" y1="21.202" x2="-0.157" y2="22.27" gradientUnits="objectBoundingBox"><stop offset="0" stop-color="#444b8c"/><stop offset="0.996" stop-color="#26264f"/></linearGradient><linearGradient id="t" x1="0.165" y1="0.812" x2="1.048" y2="-0.012" xlink:href="#i"/><linearGradient id="u" x1="0" y1="0.5" x2="1" y2="0.5" xlink:href="#s"/><linearGradient id="z" x1="1.426" y1="0.852" x2="0.811" y2="0.522" xlink:href="#o"/><linearGradient id="aa" x1="0.467" y1="0.404" x2="0.689" y2="0.467" xlink:href="#o"/><linearGradient id="ab" x1="0.605" y1="0.275" x2="1.264" y2="1.093" xlink:href="#p"/><linearGradient id="ac" x1="10.635" y1="34.142" x2="9.781" y2="35.74" xlink:href="#s"/><linearGradient id="ad" x1="10.615" y1="34.201" x2="9.762" y2="35.799" xlink:href="#i"/></defs><g transform="translate(-999.544 -113)"><g transform="translate(999.544 113)"><g transform="translate(0 22.321)"><g transform="translate(49.824 0)"><path class="a" d="M1020.815,874.948c4.2,5.16,8.228,8.93,12.563,13.779-26.8,8.168-51.146,20.956-78.307,29.286,5.936-36.14,17.2-55.22-7.426-89.82-11.555-16.237-39.085-44.854-38.354-65.13.833-23.1,17.058-23.327,6.58-39.858-16.377-25.838-13.853-60.513,28.64-63,41.939-2.452,78.5,100.285,67.414,136.135C1008.6,828.74,998.9,848.006,1020.815,874.948Z" transform="translate(-906.515 -660.165)"/><g class="e"><g class="f" transform="translate(0.814 -30.089)"><path class="g" d="M1233.668,654.394l.6-.091c-1.565-10.214-2.345-20.676-3.1-30.793l-.288-3.844c-.617-8.138-1.314-15.405-1.929-21.818-.344-3.592-.672-7.005-.961-10.308-.885-10.1-1.486-17.176-1.785-20.692l-.2-2.322c-2.437-27.7-15.941-64.454-23.2-84.2-.785-2.136-1.487-4.046-2.081-5.691a425.623,425.623,0,0,1-21.484-91.037l-.6.076a426.187,426.187,0,0,0,21.516,91.167c.594,1.645,1.3,3.556,2.081,5.694,7.245,19.717,20.732,56.417,23.162,84.042l.2,2.32c.3,3.516.9,10.589,1.785,20.694.29,3.3.617,6.719.962,10.313.615,6.41,1.312,13.674,1.927,21.806l.288,3.843C1231.319,633.683,1232.1,644.157,1233.668,654.394Z" transform="translate(-1149.851 -383.602)"/><path class="g" d="M993.714,1549.564l.6-.082c-2.481-18.232-12.741-38.647-29.67-59.039a231.465,231.465,0,0,0-50.321-44.879l-.327.507C948.649,1468.432,988.378,1510.357,993.714,1549.564Z" transform="translate(-913.995 -1330.026)"/><path class="g" d="M986.411,798.692l.5-.343c-9.036-13.092-19.78-25.119-30.17-36.749-7.111-7.959-14.463-16.19-21.208-24.694l-.473.376c6.756,8.518,14.115,16.755,21.231,24.721C966.665,773.619,977.4,785.631,986.411,798.692Z" transform="translate(-932.765 -698.468)"/><path class="g" d="M1553.251,1237.665c.893-22.1,12.109-51.279,24-62.449l-.413-.44c-11.989,11.26-23.294,40.636-24.193,62.865Z" transform="translate(-1483.165 -1088.699)"/></g></g><g transform="translate(104.796 50.533)"><path class="b" d="M1911.645,1206.887c1.712,31.772-17.4,29.8-41.9,28.34,11.258,27.413,21.21,54.519,31.215,82.063,16.415.731,28.186.95,32.229-18.585,4.572-22.093,6.478-34.995,28.791-45.927s35.68-32.881,21.913-53.557c-14.488-21.758-1.889-58.235-26.432-70.453C1914.695,1107.477,1909.863,1173.8,1911.645,1206.887Z" transform="translate(-1869.744 -1124.637)"/><path class="b" d="M1911.645,1206.887c1.712,31.772-17.4,29.8-41.9,28.34,11.258,27.413,21.21,54.519,31.215,82.063,16.415.731,28.186.95,32.229-18.585,4.572-22.093,6.478-34.995,28.791-45.927s35.68-32.881,21.913-53.557c-14.488-21.758-1.889-58.235-26.432-70.453C1914.695,1107.477,1909.863,1173.8,1911.645,1206.887Z" transform="translate(-1869.744 -1124.637)"/><g class="h"><g class="i" transform="translate(23.517 -10.104)"><path class="b" d="M2086.269,1239.5c20.414-17.408,36.94-32.482,48.4-54.59,10.969-21.159,13.709-41.6,9.163-68.336-2.355-13.855-2.476-24.048-2.392-38.018l-.564,0c-.084,14,.037,24.216,2.4,38.115,4.523,26.61,1.8,46.941-9.108,67.983-11.413,22.017-27.9,37.052-48.266,54.42Z" transform="translate(-2085.903 -1073.467)"/><path class="b" d="M2170.219,2709.858l.333-.454a85.264,85.264,0,0,0-22.082-11.826,55.074,55.074,0,0,0-12.365-2.592l-.066.559a54.617,54.617,0,0,1,12.243,2.563A84.731,84.731,0,0,1,2170.219,2709.858Z" transform="translate(-2130.584 -2514.034)"/><path class="b" d="M2459.747,1992.311c15.39-13.173,36.744-20.943,60.13-21.877l-.023-.563c-23.512.939-44.988,8.756-60.474,22.012Z" transform="translate(-2418.748 -1867.809)"/><path class="b" d="M2367.624,1104.218l.557-.076c-.41-2.988-12.17-29.234-15.765-37.207-7.438-16.5-15.663-34.161-16.552-35.163l-.421.374c.74.833,8.278,16.871,16.46,35.021C2359.295,1083.56,2367.306,1101.9,2367.624,1104.218Z" transform="translate(-2308.294 -1031.771)"/></g></g></g></g><g transform="translate(0 96.944)"><g class="j"><g transform="translate(15.498 25.03)"><path class="d" d="M746.2,1996.765q18.144-9.125,35.981-18.957c.26.08-3.752-24.234-21.089-31.519-34.112-13.923-24.156-40.98-23.6-55.094,1.65-20.2-9.21-37.534-30.612-30.167-23.875,7.787-39.763-23.146-46.037-54.22-1.837-15.594-24.453-27.2-42.216-25.328-18.258,1.56-31.663,16.591-26.5,47.135,4.16,36.016,40.547,45.577,57.324,58.362,16.495,12.542-3.542,34.669,21.575,42.012,21.372,6.864,45.815,8.539,43.867,27.5C712.663,1975.334,719.239,1987.731,746.2,1996.765Z" transform="translate(-591.006 -1781.283)"/><g class="k"><g class="i" transform="translate(-5.005 -9.51)"><path class="l" d="M999.941,1913.919c-.069-.2-29.319-43.9-66.884-83.182-5.58-6.532-11.435-13.043-17.1-19.34-31.534-35.066-61.319-68.187-59.605-117.52l-.794.061c-1.722,49.563,28.138,82.768,59.751,117.922,5.66,6.294,11.513,12.8,17.1,19.341,37.768,39.492,66.632,82.725,66.776,83.007Z" transform="translate(-821.709 -1693.876)"/><path class="l" d="M610.307,2205.528l.414-.627c-18.744-7.945-42.36-20.323-55.048-26.973-10.269-5.382-10.3-5.367-10.669-5.177l.17.291-.08.337c.493.108,4.738,2.333,10.112,5.149C567.9,2185.184,591.535,2197.571,610.307,2205.528Z" transform="translate(-545.004 -2120.601)"/><path class="l" d="M1036.633,1913.159a61.224,61.224,0,0,1,5.1-35.89c3.979-8.29,8.778-13.168,9.454-13.531l-.139-.223.149-.426c-.227-.038-.428.086-.719.326-4.165,3.441-18.855,22-14.637,49.912Z" transform="translate(-981.772 -1844.673)"/><path class="l" d="M1721.936,2535.806l.73-.346c-14.859-28.146-.482-64.544,6.389-78.886a11.819,11.819,0,0,0,.52-1.14l-.772-.081.386.04-.385-.042c-.026.085-.236.521-.477,1.026a139.346,139.346,0,0,0-10.71,30.6C1713.484,2506.121,1714.937,2522.548,1721.936,2535.806Z" transform="translate(-1587.995 -2372.505)"/><path class="l" d="M1171.392,3003.656l-.137-.3-.014.34-.371-.217.178-.4,0,0c.5-.234,32.91-10.209,55.31,4.669l-.528.565C1203.656,2993.582,1171.693,3003.54,1171.392,3003.656Zm-.137-.305.015-.343Z" transform="translate(-1102.777 -2857.531)"/><path class="l" d="M2117.433,3339.134c-2.419-5.925-3.492-17.125,5.127-36.828.489-1.118.489-1.118.4-1.271l-.721.361.361-.181-.39-.007c-.022.08-.193.471-.39.924-8.707,19.9-7.6,31.27-5.141,37.3Z" transform="translate(-1944.117 -3126.181)"/><path class="l" d="M1733.522,3468.451l.668-.438c-7.588-9.4-28.449-10.774-40.208-10.758-.373,0-.613,0-.7,0l-.147.687c.094.006.352.006.754.006C1705.509,3457.928,1726.109,3459.273,1733.522,3468.451Z" transform="translate(-1568.222 -3265.402)"/></g></g></g></g></g></g><g transform="translate(85.599 59.412)"><path class="m" d="M1359.585,1010.147v215.2a6.325,6.325,0,0,1-5.743,6.265l-112.213,7.2a5.8,5.8,0,0,1-6.284-5.791V1007.107a5.987,5.987,0,0,1,3.082-5.242,6.172,6.172,0,0,1,3.187-.782l112.229,3.012A6.04,6.04,0,0,1,1359.585,1010.147Z" transform="translate(-1235.344 -1001.081)"/><path class="n" d="M1359.585,1215.308v16.459a6.324,6.324,0,0,1-5.743,6.265l-112.213,7.2a5.8,5.8,0,0,1-6.284-5.791V1013.526a5.987,5.987,0,0,1,3.082-5.242c9.275,3.053,36.339,17.6,38.506,84.09C1279.059,1157.505,1345.431,1171.972,1359.585,1215.308Z" transform="translate(-1235.344 -1007.5)"/></g><g transform="translate(182.835 11.256)"><path class="o" d="M2194.923,575.04l-58.1-3.562a7.335,7.335,0,0,0-7.74,7.451v54.277a7.891,7.891,0,0,0,7.74,7.923l3.233.03v13.366c0,2,2.375,2.981,4.335.766l12.154-13.976,38.379.117c3.589.034,6.487-3.142,6.487-7.093v-51.81C2201.41,578.577,2198.512,575.225,2194.923,575.04Z" transform="translate(-2129.082 -570.052)"/><path class="p" d="M2211.85,628.421l-58.1-.3a7.891,7.891,0,0,1-7.74-7.923V565.919a7.336,7.336,0,0,1,7.74-7.451l58.1,3.562c3.589.185,6.487,3.538,6.487,7.489v51.81C2218.337,625.28,2215.44,628.455,2211.85,628.421Z" transform="translate(-2144.167 -558.457)"/><path class="q" d="M2166.336,639.346V582.283a3.91,3.91,0,0,1,4.123-3.971l60.694,3.513a3.879,3.879,0,0,1,3.458,3.991V640.3a3.6,3.6,0,0,1-3.458,3.78l-60.694-.509A4.206,4.206,0,0,1,2166.336,639.346Z" transform="translate(-2162.283 -576.147)"/><path class="r" d="M2246.866,1189.874v-16.116l18.835.209-15.1,17.352A2.133,2.133,0,0,1,2246.866,1189.874Z" transform="translate(-2234.051 -1106.815)"/><g transform="translate(19.137 31.198)"><path class="s" d="M2314.127,849.73a4.355,4.355,0,0,1-4.56,4.284,4.632,4.632,0,0,1-4.592-4.518,4.355,4.355,0,0,1,4.592-4.283A4.632,4.632,0,0,1,2314.127,849.73Z" transform="translate(-2304.975 -845.211)"/><path class="s" d="M2457.046,853.786a4.277,4.277,0,0,1-4.454,4.235,4.549,4.549,0,0,1-4.485-4.463,4.277,4.277,0,0,1,4.485-4.234A4.549,4.549,0,0,1,2457.046,853.786Z" transform="translate(-2432.535 -848.875)"/><path class="s" d="M2596.642,857.748a4.2,4.2,0,0,1-4.352,4.187,4.469,4.469,0,0,1-4.381-4.41,4.2,4.2,0,0,1,4.381-4.186A4.47,4.47,0,0,1,2596.642,857.748Z" transform="translate(-2557.127 -852.453)"/></g></g><g transform="translate(224.652 209.233)"><g transform="translate(0 0.915)"><path class="t" d="M2513.437,2407.351c0-11.477,10.012-20.78,22.027-20.778,11.659,0,20.861,8.814,20.861,19.684s-9.2,20.153-20.861,20.749C2523.449,2427.621,2513.437,2418.829,2513.437,2407.351Z" transform="translate(-2513.437 -2386.573)"/></g><g transform="translate(1.295)"><path class="u" d="M2525.342,2398.939c0-11.477,9.722-20.78,21.389-20.779,11.322,0,20.258,8.814,20.258,19.685s-8.936,20.153-20.258,20.749C2535.064,2419.208,2525.342,2410.416,2525.342,2398.939Z" transform="translate(-2525.342 -2378.16)"/></g><g class="v" transform="translate(4.624 3.234)"><path class="s" d="M2555.936,2425.342c0-9.643,8.168-17.459,17.97-17.458a16.714,16.714,0,0,1,17.019,16.538c0,9.133-7.507,16.931-17.019,17.433C2564.1,2442.372,2555.936,2434.985,2555.936,2425.342Z" transform="translate(-2555.936 -2407.885)"/></g><path class="w" d="M2583.127,2409.366a16.554,16.554,0,0,1,15.816,22.744,16.569,16.569,0,0,0-15.141-24.226,18.068,18.068,0,0,0-16.762,11.2A18.12,18.12,0,0,1,2583.127,2409.366Z" transform="translate(-2561.208 -2404.65)"/><g transform="translate(10.471 12.024)"><path class="s" d="M2611.89,2505.273a2.224,2.224,0,0,1-1.559-.621,2.1,2.1,0,0,1-.649-1.527v-11.873a2.276,2.276,0,0,1,2.26-2.231l19.633-.327a2.182,2.182,0,0,1,1.56.619,2.11,2.11,0,0,1,.635,1.515v11.525a2.246,2.246,0,0,1-2.16,2.214l-19.634.7ZM2631.6,2490l-19.633.327a.963.963,0,0,0-.974.924v11.873a.809.809,0,0,0,.25.586.94.94,0,0,0,.69.254l19.633-.7a.928.928,0,0,0,.9-.907v-11.525a.812.812,0,0,0-.244-.583.842.842,0,0,0-.622-.244Z" transform="translate(-2609.682 -2488.692)"/><path class="s" d="M2634.22,2497.914a2.621,2.621,0,0,1-1.664-.593l-8.745-7.15a.654.654,0,1,1,.828-1.012l8.745,7.149a1.359,1.359,0,0,0,1.759-.055l8.492-7.412a.654.654,0,0,1,.86.985L2636,2497.24A2.709,2.709,0,0,1,2634.22,2497.914Z" transform="translate(-2622.061 -2488.682)"/></g></g><g transform="translate(120.799 0)"><g transform="translate(0 1.331)"><path class="x" d="M1586.236,472.171a15.587,15.587,0,0,1,0,22.023,16.115,16.115,0,0,1-22.561-.2,15.56,15.56,0,0,1,0-22.469A16.13,16.13,0,0,1,1586.236,472.171Z" transform="translate(-1558.881 -467.236)"/></g><g transform="translate(1.103)"><path class="y" d="M1596.373,459.935a15.587,15.587,0,0,1,0,22.023,16.114,16.114,0,0,1-22.561-.2,15.56,15.56,0,0,1,0-22.469A16.13,16.13,0,0,1,1596.373,459.935Z" transform="translate(-1569.019 -455)"/></g><g class="v" transform="translate(4.199 3.053)"><path class="s" d="M1619.525,487.04a12.562,12.562,0,0,1,0,17.749,12.988,12.988,0,0,1-18.183-.161,12.541,12.541,0,0,1,0-18.108A13,13,0,0,1,1619.525,487.04Z" transform="translate(-1597.478 -483.063)"/></g><path class="w" d="M1650.044,487.04a13,13,0,0,0-18.183-.52c-.047.045-.091.092-.138.138a13.063,13.063,0,0,1,16.417,1.912,12.562,12.562,0,0,1,0,17.749l-.043.04a12.47,12.47,0,0,0,1.946-19.318Z" transform="translate(-1623.799 -480.009)"/><g transform="translate(9.647 8.472)"><path class="s" d="M1765.328,559.265l2.37.029V546.262l-2.37-.057Z" transform="translate(-1752.515 -544.754)"/><path class="s" d="M1726.367,612.073l2.388.029v-6.541l-2.388-.043Z" transform="translate(-1717.792 -597.614)"/><path class="s" d="M1687.109,547.275l2.407.03V532.929l-2.407-.06Z" transform="translate(-1682.805 -532.869)"/><path class="s" d="M1647.552,563.909l2.425.03V551.65l-2.425-.056Z" transform="translate(-1647.552 -549.556)"/></g></g><g transform="translate(234.644 111.103)"><g transform="translate(0 0)"><g transform="translate(0 1.112)"><path class="z" d="M2605.284,1511.661c0-13.943,12.162-25.244,26.758-25.242,14.163,0,25.342,10.708,25.342,23.913s-11.178,24.481-25.342,25.206C2617.446,1536.284,2605.284,1525.6,2605.284,1511.661Z" transform="translate(-2605.284 -1486.419)"/></g><g transform="translate(1.573)"><path class="aa" d="M2619.746,1501.441c0-13.943,11.811-25.244,25.983-25.242,13.754,0,24.609,10.708,24.609,23.913s-10.855,24.481-24.609,25.206C2631.557,1526.064,2619.746,1515.383,2619.746,1501.441Z" transform="translate(-2619.746 -1476.199)"/></g><g class="v" transform="translate(5.617 3.929)"><path class="s" d="M2656.911,1533.515c0-11.714,9.922-21.209,21.83-21.207,11.556,0,20.675,9,20.675,20.09s-9.12,20.568-20.675,21.177C2666.833,1554.2,2656.911,1545.229,2656.911,1533.515Z" transform="translate(-2656.911 -1512.308)"/></g><path class="w" d="M2689.943,1514.107c11.556,0,20.676,9,20.676,20.09a20.3,20.3,0,0,1-1.463,7.54,20.4,20.4,0,0,0,2.282-9.34c0-11.094-9.12-20.089-20.676-20.091a21.948,21.948,0,0,0-20.362,13.607A22.012,22.012,0,0,1,2689.943,1514.107Z" transform="translate(-2663.317 -1508.378)"/><g transform="translate(16.824 12.858)"><path class="ab" d="M6.844,6H23.251a2.344,2.344,0,0,1,2.344,2.344V24.751a2.344,2.344,0,0,1-2.344,2.344H6.844A2.344,2.344,0,0,1,4.5,24.751V8.344A2.344,2.344,0,0,1,6.844,6Z" transform="translate(-4.5 -3.656)"/><path class="ab" d="M24,3V7.688" transform="translate(-8.765 -3)"/><path class="ab" d="M12,3V7.688" transform="translate(-6.14 -3)"/><path class="ab" d="M4.5,15H25.595" transform="translate(-4.5 -5.625)"/></g></g></g><g class="ac" transform="translate(98.195 109.022)"><path class="ad" d="M1453.368,1484.165h0a2.424,2.424,0,0,0-1.826.964l-.005,0c-5.683-15.967-24.4-27.845-46.862-28.056a62.6,62.6,0,0,0-13.226,1.268l-.013,0v0c-16.783,3.446-30.147,13.6-34.916,26.641a2.713,2.713,0,0,0-1.993-1c-1.828,0-3.413,2.38-3.413,5.321v15.472c0,2.945,1.513,5.319,3.342,5.309l.056,0,.052,0a3.267,3.267,0,0,0,2.717-2.177c6.721,15.351,25.509,26.206,47.39,25.939a61.53,61.53,0,0,0,17.35-2.672c13.6-4.173,24.218-12.906,28.811-23.718v0a3.032,3.032,0,0,0,2.536,2.1h0c1.726-.009,3.143-2.332,3.143-5.189v-15.023C1456.511,1486.486,1455.094,1484.168,1453.368,1484.165Z" transform="translate(-1351.113 -1457.07)"/><path class="ad" d="M1565.223,2215.094l-29.167.4a21.041,21.041,0,0,0-10.489,2.985,21.672,21.672,0,0,0-9.649,24.916c.041.131.082.266.123.4l.762,2.455q2.316,7.447,4.62,14.878a28.9,28.9,0,0,0,28.641,20.509,31.511,31.511,0,0,0,11.778-2.705,32.771,32.771,0,0,0,18.016-20.527q2.052-6.833,4.1-13.651l.734-2.442c.039-.13.079-.264.118-.394a21.163,21.163,0,0,0-3.067-18.539A20.057,20.057,0,0,0,1565.223,2215.094Z" transform="translate(-1497.141 -2132.622)"/></g><g transform="translate(101.607 107.449)"><g transform="translate(0)"><path class="s" d="M1508.373,1480.079a30.026,30.026,0,0,1-2.43,11.8c-4.49,10.57-14.872,19.107-28.165,23.187a60.146,60.146,0,0,1-16.96,2.612c-21.392.26-39.756-10.351-46.326-25.359a29.811,29.811,0,0,1-.722-22.414c4.661-12.746,17.713-22.676,34.12-26.045a61.2,61.2,0,0,1,12.929-1.24c21.959.206,40.255,11.818,45.811,27.428A29.82,29.82,0,0,1,1508.373,1480.079Z" transform="translate(-1408.723 -1442.615)"/><path class="b" d="M1579.135,1704.754l-43.368.312a16.06,16.06,0,0,1-16.116-16.143v-9.494a7.305,7.305,0,0,1,7.3-7.329l60.741.134a7.123,7.123,0,0,1,7.02,7.2v9.292A15.874,15.874,0,0,1,1579.135,1704.754Z" transform="translate(-1504.727 -1647.133)"/><path class="b" d="M1711.717,1789.606l-6.18.059a15.49,15.49,0,0,1-15.546-15.618h0a15.676,15.676,0,0,1,15.546-15.772l6.18,0a15.458,15.458,0,0,1,15.354,15.591h0A15.645,15.645,0,0,1,1711.717,1789.606Z" transform="translate(-1656.535 -1723.929)"/><path class="ae" d="M1604.787,1718.235l-46.195.235a11.439,11.439,0,0,1-11.455-11.493v-4.212a7.3,7.3,0,0,1,7.287-7.328l54.413.081a7.126,7.126,0,0,1,7.033,7.206v4.13A11.27,11.27,0,0,1,1604.787,1718.235Z" transform="translate(-1529.223 -1667.931)"/><path class="s" d="M1687.076,1758.661a3.737,3.737,0,0,0,.715-2.132c0-2.507-2.626-4.539-5.87-4.538s-5.89,2.041-5.89,4.557a3.728,3.728,0,0,0,.719,2.135Z" transform="translate(-1644.093 -1718.333)"/><path class="s" d="M1957.711,1758.531a3.727,3.727,0,0,0,.7-2.114c0-2.486-2.582-4.5-5.772-4.5s-5.791,2.024-5.791,4.518a3.717,3.717,0,0,0,.707,2.118Z" transform="translate(-1885.449 -1718.267)"/><path class="ae" d="M1388.542,1689.683v15.1a7.556,7.556,0,0,1-.463,3.087c-.585,1.285-1.415,2.123-2.482,2.129-1.788.01-3.121-2.311-3.121-5.19v-15.125c0-2.875,1.417-5.2,3.2-5.2a2.48,2.48,0,0,1,1.858.974c.145.166.108.352.233.555A7.067,7.067,0,0,1,1388.542,1689.683Z" transform="translate(-1382.476 -1658.165)"/><path class="ae" d="M2273.639,1710.908h0c-1.689.009-3.06-2.251-3.06-5.048v-14.713c0-2.8,1.371-5.063,3.06-5.06h0c1.688,0,3.054,2.269,3.054,5.062v14.687C2276.693,1708.627,2275.327,1710.9,2273.639,1710.908Z" transform="translate(-2173.956 -1659.598)"/></g><path class="s" d="M1608.513,2209.891c-.039.127-.077.258-.116.385l-.718,2.387q-2,6.669-4.013,13.345a32.039,32.039,0,0,1-17.613,20.068,30.818,30.818,0,0,1-11.515,2.645,28.254,28.254,0,0,1-28-20.049q-2.255-7.269-4.517-14.545l-.745-2.4c-.04-.128-.08-.26-.12-.388a21.187,21.187,0,0,1,9.433-24.358,20.57,20.57,0,0,1,10.255-2.918l28.514-.394a19.6,19.6,0,0,1,16.155,8.1A20.69,20.69,0,0,1,1608.513,2209.891Z" transform="translate(-1523.066 -2103.042)"/><path class="b" d="M1616.992,2428.25l-.718,2.387-65.656,1.464-.746-2.4Z" transform="translate(-1531.66 -2321.016)"/><path class="af" d="M1438.023,1518.464a70.033,70.033,0,0,0,13.509,6.78,60.162,60.162,0,0,1-16.96,2.612c-21.392.26-39.756-10.351-46.326-25.359a3.085,3.085,0,0,1-2.564,2.129c-1.788.01-3.2-2.31-3.2-5.19v-15.125c0-2.875,1.417-5.2,3.2-5.2a2.479,2.479,0,0,1,1.858.974c4.661-12.746,17.7-22.676,34.112-26.045,1.552,5.538,1.5,12.43-1.343,20.984-.313.937-.585,1.861-.823,2.774-.222.849-.409,1.69-.568,2.524a34.817,34.817,0,0,0-.623,6.408,31.915,31.915,0,0,0,.626,6.408c.028.128.052.252.083.377a32.644,32.644,0,0,0,3.855,9.767,40.246,40.246,0,0,0,5.6,7.341A53.622,53.622,0,0,0,1438.023,1518.464Z" transform="translate(-1382.476 -1452.796)"/><path class="af" d="M1586.054,2273.222a30.814,30.814,0,0,1-11.515,2.645,28.254,28.254,0,0,1-28-20.049q-2.255-7.269-4.517-14.545l-.745-2.4c-.04-.128-.08-.26-.12-.388a21.188,21.188,0,0,1,9.433-24.358c.14,7.073-1.181,15.061,8.59,24.359q1.219,1.164,2.671,2.345a69.622,69.622,0,0,0,8.783,6C1587.378,2256.633,1591.53,2266.337,1586.054,2273.222Z" transform="translate(-1523.066 -2130.188)"/></g><g transform="translate(38.649 222.065)"><g transform="translate(0 0)"><path class="ag" d="M865.393,2560.1a5.61,5.61,0,0,0,8.075-2.227,6.791,6.791,0,0,0-2.065-8.833c-.145-.094-.294-.176-.443-.256a37.333,37.333,0,0,0,1.356-5.256c.163.016.327.031.494.033a6.467,6.467,0,0,0,.138-12.885c-.17,0-.338.009-.5.023a37.879,37.879,0,0,0-1.237-5.284c.152-.076.3-.156.452-.247a6.781,6.781,0,0,0,2.254-8.781,5.616,5.616,0,0,0-8.024-2.413c-.145.09-.282.19-.418.291a33.166,33.166,0,0,0-3.486-3.873c.1-.148.19-.3.276-.456,1.656-3.065,3.8-6.383.983-8.126-6.5-4.025-9.417-1.408-11.066,1.653-.085.158-.16.321-.231.483a29.27,29.27,0,0,0-4.768-1.434c.016-.177.029-.355.031-.536.038-3.538,1.092-5.352-2.132-5.731-7.015-.824-9.474,2.152-9.513,5.681,0,.184.007.366.019.546a29.715,29.715,0,0,0-4.765,1.379c-.068-.164-.139-.327-.221-.487a5.482,5.482,0,0,0-7.88-2.37,6.769,6.769,0,0,0-2.209,8.694c.08.156.168.3.258.45a33.236,33.236,0,0,0-3.5,3.8c-.132-.1-.266-.2-.408-.3a5.48,5.48,0,0,0-7.886,2.273,6.73,6.73,0,0,0,2.008,8.7c.141.092.286.172.432.25a37.331,37.331,0,0,0-1.324,5.194c-.159-.016-.319-.03-.481-.032-3.172-.032-5.771,2.784-5.81,6.291s2.5,6.384,5.67,6.425c.166,0,.329-.008.492-.021a37.866,37.866,0,0,0,1.2,5.223c-.148.075-.3.152-.441.242a6.727,6.727,0,0,0-2.2,8.655c1.554,3.067,6.951,5.013,9.727,3.3.142-.087-1.616-1.029-1.483-1.128a33.214,33.214,0,0,0,3.421,3.874c-.094.146-.187.293-.271.45a6.779,6.779,0,0,0,2.019,8.747,5.478,5.478,0,0,0,7.931-2.188c.085-.156.158-.317.229-.478a29.312,29.312,0,0,0,4.736,1.5c-.015.177-.028.354-.03.535-.038,3.531,2.533,6.447,5.747,6.512a6.075,6.075,0,0,0,5.9-6.292c0-.185-.007-.367-.019-.548a29.634,29.634,0,0,0,4.8-1.318c.069.166.14.331.223.493a5.618,5.618,0,0,0,7.978,2.5,6.739,6.739,0,0,0,2.244-8.742c-.081-.159-.171-.309-.263-.457a33.14,33.14,0,0,0,3.561-3.8C865.111,2559.9,865.248,2560,865.393,2560.1Zm-35.157-3.391c-9.977-6.548-13.255-20.738-7.347-31.743,5.921-11.031,18.859-14.75,28.924-8.26,10.108,6.519,13.452,20.831,7.442,31.919C853.259,2559.686,840.255,2563.282,830.236,2556.707Z" transform="translate(-803.802 -2496.103)"/><path class="ah" d="M1108.042,2613.513a6.467,6.467,0,0,0,.138-12.885c-.17,0-.338.009-.5.023a37.868,37.868,0,0,0-1.237-5.284c.152-.076.3-.155.452-.247,2.841-1.754,6.432-6.332,4.549-9.259-3.57-5.549-7.485-3.693-10.319-1.935-.145.09-.282.189-.417.291a33.148,33.148,0,0,0-3.486-3.873c.1-.148.19-.3.276-.456a6.951,6.951,0,0,0,.522-5.29q-4.229,7-8.332,14.069c8.011,7.143,10.256,19.854,4.805,29.911-4.61,8.506-13.367,12.593-21.722,11.039-.4.978-.8,1.962-1.229,2.927-1.165,2.618-2.474,5.162-3.785,7.7q1.154.361,2.32.624c-.015.177-.028.354-.03.535-.038,3.531,1.9,6.757,7.721,7.1,3.225.188,3.886-3.336,3.925-6.877,0-.185-.007-.367-.019-.548a29.582,29.582,0,0,0,4.8-1.318c.069.166.14.331.223.493,1.583,3.1,7.347,4.993,10.174,3.272s1.637-6.41.048-9.514c-.082-.159-.171-.309-.263-.457a33.168,33.168,0,0,0,3.561-3.8c.135.105.271.209.416.3a5.61,5.61,0,0,0,8.075-2.227,6.79,6.79,0,0,0-2.065-8.833c-.145-.094-.294-.176-.443-.256a37.342,37.342,0,0,0,1.356-5.256C1107.711,2613.5,1107.875,2613.511,1108.042,2613.513Z" transform="translate(-1039.034 -2566.058)"/><path class="ai" d="M892.747,2561.628a5.618,5.618,0,0,0,8.085-2.228,6.792,6.792,0,0,0-2.068-8.839c-.145-.094-.294-.177-.443-.255a37.37,37.37,0,0,0,1.358-5.26c.163.017.327.031.494.034a6.471,6.471,0,0,0,.138-12.893c-.171,0-.338.009-.505.023a37.889,37.889,0,0,0-1.239-5.288c.153-.076.3-.155.453-.247a6.782,6.782,0,0,0,2.256-8.786,5.625,5.625,0,0,0-8.034-2.416c-.145.09-.282.189-.418.291a33.22,33.22,0,0,0-3.491-3.876c.1-.147.19-.3.276-.457a6.743,6.743,0,0,0-2.057-8.792,5.619,5.619,0,0,0-8.038,2.314c-.086.159-.16.321-.232.484a29.275,29.275,0,0,0-4.774-1.436c.015-.178.029-.355.03-.537a6.088,6.088,0,0,0-5.767-6.428,6.185,6.185,0,0,0-5.892,6.376c0,.185.007.366.019.546a29.74,29.74,0,0,0-4.771,1.38c-.068-.164-.139-.328-.221-.488a5.49,5.49,0,0,0-7.889-2.372,6.771,6.771,0,0,0-2.211,8.7c.08.156.168.3.258.451a33.243,33.243,0,0,0-3.5,3.8c-.132-.1-.266-.2-.408-.3a5.487,5.487,0,0,0-7.9,2.273,6.732,6.732,0,0,0,2.011,8.708c.142.093.287.173.432.25a37.354,37.354,0,0,0-1.326,5.2c-.159-.016-.319-.03-.482-.032-3.176-.033-5.778,2.786-5.817,6.295s2.5,6.387,5.677,6.429c.166,0,.33-.008.492-.021a37.938,37.938,0,0,0,1.205,5.227c-.148.075-.3.152-.441.242a6.729,6.729,0,0,0-2.2,8.661,5.493,5.493,0,0,0,7.845,2.458c.143-.088.277-.185.41-.284a33.3,33.3,0,0,0,3.426,3.877c-.094.146-.187.293-.271.449a6.781,6.781,0,0,0,2.021,8.753,5.486,5.486,0,0,0,7.941-2.188c.085-.157.159-.317.23-.479a29.315,29.315,0,0,0,4.742,1.5c-.015.177-.029.355-.031.536a6.2,6.2,0,0,0,5.754,6.516,6.079,6.079,0,0,0,5.907-6.3c0-.185-.007-.367-.019-.548a29.6,29.6,0,0,0,4.8-1.318c.069.166.141.332.223.494a5.627,5.627,0,0,0,7.988,2.5,6.74,6.74,0,0,0,2.246-8.747c-.082-.159-.172-.31-.263-.458a33.14,33.14,0,0,0,3.566-3.8C892.466,2561.43,892.6,2561.534,892.747,2561.628Zm-35.2-3.4c-9.989-6.554-13.272-20.753-7.357-31.765,5.929-11.037,18.883-14.756,28.961-8.261,10.121,6.524,13.469,20.847,7.452,31.941C880.6,2561.215,867.578,2564.812,857.546,2558.23Z" transform="translate(-828.111 -2496.934)"/></g></g><g transform="translate(14.531 91.512)"><g transform="translate(0)"><g transform="translate(0 1.08)"><path class="aj" d="M589.2,1311.583c9.213-8.013,23.684-7.159,32.333,1.543,8.448,8.5,8.448,21.627,0,29.666-8.649,8.231-23.12,8.3-32.333-.22C579.761,1333.843,579.761,1319.8,589.2,1311.583Z" transform="translate(-582.121 -1306.054)"/></g><g transform="translate(0.977)"><path class="ak" d="M598.182,1301.657c9.213-8.013,23.684-7.159,32.333,1.543,8.448,8.5,8.448,21.627,0,29.666-8.649,8.231-23.12,8.3-32.333-.22C588.74,1323.918,588.74,1309.87,598.182,1301.657Z" transform="translate(-591.1 -1296.128)"/></g><g class="v" transform="translate(4.323 3.138)"><path class="s" d="M627.9,1329.693c7.865-6.841,20.219-6.112,27.6,1.317,7.212,7.257,7.212,18.464,0,25.327-7.384,7.027-19.738,7.082-27.6-.188C619.84,1348.7,619.84,1336.7,627.9,1329.693Z" transform="translate(-621.855 -1324.973)"/></g><path class="al" d="M643.6,1331.293c7.866-6.841,20.219-6.112,27.6,1.318a17.684,17.684,0,0,1,3.357,20.944,17.615,17.615,0,0,0-2.38-22.544c-7.384-7.429-19.738-8.159-27.6-1.317a17.773,17.773,0,0,0-4.01,5A18.027,18.027,0,0,1,643.6,1331.293Z" transform="translate(-634.208 -1321.835)"/><path class="s" d="M15.348,7.356a7.942,7.942,0,0,1,1.314.246,5.6,5.6,0,0,1,4.267,5.485V20.1l.512.514.428.43H8.718l.428-.43.512-.514v-7.01A5.6,5.6,0,0,1,13.925,7.6a9.725,9.725,0,0,1,1.314-.246m.055-3.981a1.679,1.679,0,0,0-1.706,1.714v.8a7.406,7.406,0,0,0-5.687,7.2v6.284L5.625,21.657V22.8H24.962V21.657l-2.275-2.285V13.087A7.406,7.406,0,0,0,17,5.889v-.8a1.679,1.679,0,0,0-1.706-1.714Zm2.275,20.567h-4.55a2.275,2.275,0,1,0,4.55,0Z" transform="translate(8.438 6.653)"/></g></g><path class="s" d="M626.263,578.574c3.975-1.537,12.789-4.312,12.789-4.312l-6.692,8.675-10.59-2.094S622.287,580.11,626.263,578.574Z" transform="translate(-464.141 -473.036)"/></g><circle class="am" cx="2.588" cy="2.588" r="2.588" transform="translate(1173.604 209.143)"/><ellipse class="an" cx="2.588" cy="2.219" rx="2.588" ry="2.219" transform="translate(1175.823 208.404)"/></g></svg>