<svg xmlns="http://www.w3.org/2000/svg" xmlns:xlink="http://www.w3.org/1999/xlink" width="169.274" height="192.634" viewBox="0 0 169.274 192.634"><defs><style>.a{fill:url(#a);}.b{fill:url(#b);}.c{clip-path:url(#d);}.d,.j{mix-blend-mode:soft-light;}.d,.j,.l{isolation:isolate;}.e{fill:#fcfdfe;}.f{clip-path:url(#f);}.g{fill:#4b4f84;}.h,.j{fill:#fff;}.i{fill:url(#g);}.j{opacity:0.3;}.k{fill:#2f3262;}.l,.m{fill:#d8dee8;}.l{opacity:0.4;mix-blend-mode:multiply;}.n{fill:url(#h);}.o{fill:url(#i);}.p{fill:#2e3060;}</style><linearGradient id="a" x1="0.365" y1="0.051" x2="0.607" y2="1.001" gradientUnits="objectBoundingBox"><stop offset="0" stop-color="#ffc444"/><stop offset="0.996" stop-color="#f36f56"/></linearGradient><linearGradient id="b" x1="0.13" y1="0.181" x2="1.162" y2="1.357" gradientUnits="objectBoundingBox"><stop offset="0.004" stop-color="#e38ddd"/><stop offset="1" stop-color="#9571f6"/></linearGradient><clipPath id="d"><path class="a" d="M723.1,610.917c1.354,3.21,3.877,7.668,6.563,12.8H672.411c8.745-16.169,20.185-32.823,11.271-64.388-4.183-14.813-17.114-41.663-7.971-57,10.416-17.469,24.536-7.23,30.5-21.06,9.317-21.615,30.729-34.49,49.679-20.333,18.7,13.972,12.185,54.183-20.949,94.408C714.438,586.9,716.034,594.154,723.1,610.917Z" transform="translate(-672.411 -455)"/></clipPath><clipPath id="f"><path class="b" d="M494.817,1212.04c.308,26.3,13,17.637,24.694,20.233,13.5,19.535,14.774,37.66-5.385,53.312l-22.462-3.361c-8.334-.386-18.114-2.934-17.562-14.032.624-12.551,3.592-20.523-10.575-26.687s-20.252-17.411-14.516-30.2c6.037-13.463-8.123-31.61,2.225-40.63C469.27,1154.952,494.5,1184.649,494.817,1212.04Z" transform="translate(-446.868 -1166.301)"/></clipPath><linearGradient id="g" y1="0.5" x2="1" y2="0.5" gradientUnits="objectBoundingBox"><stop offset="0" stop-color="#444b8c"/><stop offset="0.996" stop-color="#26264f"/></linearGradient><linearGradient id="h" x1="6.088" y1="-0.585" x2="4.971" y2="0.825" xlink:href="#g"/><linearGradient id="i" x1="33.224" y1="-21.043" x2="32.023" y2="-19.069" xlink:href="#g"/></defs><g transform="translate(0 -0.001)"><g transform="translate(0 0.001)"><g transform="translate(0 0)"><g transform="translate(72.891)"><g transform="translate(0)"><path class="a" d="M723.1,610.917c1.354,3.21,3.877,7.668,6.563,12.8H672.411c8.745-16.169,20.185-32.823,11.271-64.388-4.183-14.813-17.114-41.663-7.971-57,10.416-17.469,24.536-7.23,30.5-21.06,9.317-21.615,30.729-34.49,49.679-20.333,18.7,13.972,12.185,54.183-20.949,94.408C714.438,586.9,716.034,594.154,723.1,610.917Z" transform="translate(-672.411 -455)"/><g class="c"><g class="d" transform="translate(8.461 -13.1)"><path class="e" d="M674.723,432.111c.661-7.423,1.662-14.391,2.721-21.769l.353-2.46c.729-3.521,1.352-7.012,1.954-10.389a166.257,166.257,0,0,1,5.054-22.32c.09-.445.156-.88.225-1.342a9.464,9.464,0,0,1,1.7-4.841l.032-.065c9.737-40.071,27.9-78.8,53.993-115.124l-.27-.194c-26.107,36.343-44.288,75.1-54.037,115.2a9.908,9.908,0,0,0-1.741,4.97c-.069.457-.133.889-.217,1.308a166.322,166.322,0,0,0-5.06,22.345c-.6,3.374-1.225,6.863-1.955,10.39l-.354,2.47c-1.06,7.382-2.061,14.354-2.723,21.787Z" transform="translate(-655.53 -253.609)"/><path class="e" d="M1616.076,1106.848c3.142-19.162-3.688-43.453-9.97-60.457a275.635,275.635,0,0,0-14.526-32.625l-.292.159a275.356,275.356,0,0,1,14.507,32.586c6.268,16.965,13.083,41.195,9.952,60.284Z" transform="translate(-1591.288 -964.319)"/><path class="e" d="M1149.824,439.952c4.468-20.148,4.49-42.327,4.5-49.616,0-1.394,0-2.315.034-2.49l-.327-.059c-.035.2-.037.922-.039,2.548-.008,7.279-.03,29.432-4.49,49.544Z" transform="translate(-1100.041 -379.06)"/><path class="e" d="M666.894,1281.276c9.414-16.552,47.6-26.908,47.985-27.01l-.086-.321c-.386.1-38.706,10.5-48.188,27.167Z" transform="translate(-629.152 -1188.876)"/></g></g></g></g><g transform="translate(0 58.15)"><path class="b" d="M494.817,1212.04c.308,26.3,13,17.637,24.694,20.233,13.5,19.535,14.774,37.66-5.385,53.312l-22.462-3.361c-8.334-.386-18.114-2.934-17.562-14.032.624-12.551,3.592-20.523-10.575-26.687s-20.252-17.411-14.516-30.2c6.037-13.463-8.123-31.61,2.225-40.63C469.27,1154.952,494.5,1184.649,494.817,1212.04Z" transform="translate(-446.868 -1166.301)"/><g class="f"><g class="d" transform="translate(-2.804 -2.895)"><path class="e" d="M645.993,1217.5a172.146,172.146,0,0,1-24.15-33.886,166.767,166.767,0,0,1-15.187-38.658,157.26,157.26,0,0,1-4.059-23.129l.338-.033a156.96,156.96,0,0,0,4.05,23.079,166.4,166.4,0,0,0,15.157,38.579,171.813,171.813,0,0,0,24.1,33.819Z" transform="translate(-589.662 -1121.791)"/><path class="e" d="M895.856,2724.707l-.154-.3a58.287,58.287,0,0,1,14.627-4.926,56.819,56.819,0,0,1,7.786-1.069l.022.339a56.437,56.437,0,0,0-7.739,1.063A57.953,57.953,0,0,0,895.856,2724.707Z" transform="translate(-863.702 -2614.553)"/><path class="e" d="M440.317,2035.919c-11.6-11.22-36.29-10.194-36.537-10.181l-.016-.339c.25-.011,25.084-1.046,36.789,10.277Z" transform="translate(-403.764 -1966.593)"/><path class="e" d="M737.58,1179.825c-3.472-17.9,9.944-38.585,10.079-38.792l.284.186c-.135.206-13.475,20.778-10.03,38.541Z" transform="translate(-715.329 -1139.781)"/></g></g></g></g></g><g transform="translate(29.787 54.149)"><ellipse class="g" cx="13.731" cy="19.297" rx="13.731" ry="19.297" transform="translate(112.024 27.462)"/><path class="h" d="M951.6,1196.109H925.753a47.982,47.982,0,0,0-47.982,47.982h0a25.6,25.6,0,0,0,25.6,25.6h70.6a25.6,25.6,0,0,0,25.6-25.6h0A47.982,47.982,0,0,0,951.6,1196.109Z" transform="translate(-867.809 -1196.109)"/><path class="h" d="M1253.273,2460.2h-16.33c-16.744,0-30.318-17.566-30.318-39.236h0c0-11.563,7.243-20.937,16.178-20.937h44.61c8.935,0,16.178,9.374,16.178,20.937h0C1283.591,2442.633,1270.017,2460.2,1253.273,2460.2Z" transform="translate(-1173.211 -2321.714)"/><g transform="translate(46.001 31.167)"><path class="i" d="M1493.052,1707.324h-49.126c-6.658,0-12.12-5.1-12.12-11.4v-9.653c0-6.295,5.462-11.224,12.12-11.011l49.126,1.567a11.053,11.053,0,0,1,10.712,10.933v8.97A10.633,10.633,0,0,1,1493.052,1707.324Z" transform="translate(-1431.806 -1675.256)"/><g transform="translate(11.67 7.492)"><path class="h" d="M1627.4,1798.268a7.7,7.7,0,0,1-8.03,7.51,8.09,8.09,0,0,1-8.16-7.84,7.7,7.7,0,0,1,8.16-7.508A8.089,8.089,0,0,1,1627.4,1798.268Z" transform="translate(-1611.208 -1790.427)"/><path class="h" d="M2153.258,1812.534a7.306,7.306,0,0,1-7.5,7.261,7.671,7.671,0,0,1-7.616-7.569,7.305,7.305,0,0,1,7.616-7.259A7.676,7.676,0,0,1,2153.258,1812.534Z" transform="translate(-2103.869 -1804.019)"/></g></g><path class="j" d="M956.5,1289.927c-7.306-8.585-4.059-15.45-13.611-27.083-13.143-16.007-28.475-14.2-31.986-25.052-.973-3.008-1.085-7.137,1.525-12.845a48,48,0,0,0-34.659,46.106h0a25.6,25.6,0,0,0,25.6,25.6H964.9A29.214,29.214,0,0,1,956.5,1289.927Z" transform="translate(-867.809 -1223.071)"/><ellipse class="g" cx="13.731" cy="19.297" rx="13.731" ry="19.297" transform="translate(3.136 27.328)"/><ellipse class="k" cx="6.004" cy="8.438" rx="6.004" ry="8.438" transform="translate(0 38.186)"/><path class="l" d="M1257.294,2438.6c-2.24-13.617-27.022-13.288-27.7-22.189-.519-6.862,13.709-13.654,15.5-14.508a45.994,45.994,0,0,1,4.55-1.876H1222.8c-8.935,0-16.178,9.374-16.178,20.937h0c0,21.67,13.574,39.236,30.318,39.236h16.33a23.768,23.768,0,0,0,4.615-.451,16.647,16.647,0,0,1-2.572-7.494C1254.819,2446.221,1258.163,2443.876,1257.294,2438.6Z" transform="translate(-1173.211 -2321.714)"/><ellipse class="m" cx="26.481" cy="3.206" rx="26.481" ry="3.206" transform="translate(44.799 76.031)"/></g><g transform="translate(25.315 141.182) rotate(-17)"><path class="h" d="M25.748,5.675a4.608,4.608,0,0,1-4.8,4.411L0,9.207.386,0,21.337.879A4.608,4.608,0,0,1,25.748,5.675Z" transform="translate(13.824 19.045)"/><path class="h" d="M2.274.636A4.607,4.607,0,0,1,8.581,2.274L19.206,20.351l-7.944,4.67L.636,6.943A4.608,4.608,0,0,1,2.274.636Z"/><ellipse class="n" cx="6.686" cy="6.686" rx="6.686" ry="6.686" transform="translate(5.419 23.608) rotate(-45)"/></g><path class="o" d="M11.84,9.855,3.02,12.8C1.71,13.236.245,11.557.068,9.381-.191,6.193.165,2.1,3.316.616c3.986-1.877,7.089.875,9.06,3.694C13.714,6.222,13.4,9.333,11.84,9.855Z" transform="translate(18.61 134.471) rotate(-17)"/><path class="h" d="M628.06,580.3c5.565-2.151,17.9-6.036,17.9-6.036l-10.729,13.556-13.462-4.343S622.494,582.449,628.06,580.3Z" transform="translate(-500.325 -527.564)"/><ellipse class="p" cx="3.582" cy="3.768" rx="3.582" ry="3.768" transform="translate(146.815 39.582)"/><rect class="h" width="2.803" height="10.711" rx="1.402" transform="matrix(0.588, -0.809, 0.809, 0.588, 11.622, 132.958)"/><rect class="h" width="2.803" height="7.475" rx="1.402" transform="matrix(0.358, -0.934, 0.934, 0.358, 13.443, 140.044)"/><rect class="h" width="2.803" height="7.333" rx="1.402" transform="translate(32.753 134.827) rotate(177)"/><rect class="h" width="2.803" height="12.146" rx="1.402" transform="translate(13.443 127.121) rotate(-43)"/><rect class="h" width="2.803" height="11.212" rx="1.402" transform="translate(18.61 124.263) rotate(-32)"/></g></svg>