<svg xmlns="http://www.w3.org/2000/svg" xmlns:xlink="http://www.w3.org/1999/xlink" width="163.67" height="158.564" viewBox="0 0 163.67 158.564"><defs><style>.a{fill:url(#a);}.b,.e,.g,.r{mix-blend-mode:soft-light;}.ad,.b,.e,.g,.j,.r,.v{isolation:isolate;}.b{clip-path:url(#b);}.c{fill:#fcfdfe;}.d{fill:url(#c);}.e{clip-path:url(#d);}.f{fill:url(#e);}.g{clip-path:url(#f);}.ae,.h,.r,.t{fill:#fff;}.i{fill:url(#g);}.j,.v{opacity:0.302;}.ad,.j,.v{mix-blend-mode:multiply;}.k{fill:#d8dee8;}.l{fill:#1a094a;}.m{opacity:0.2;}.n{fill:url(#h);}.o{fill:url(#i);}.p{fill:url(#j);}.q{fill:url(#k);}.r{opacity:0.349;}.s{fill:url(#l);}.t{opacity:0.671;}.u{opacity:0.12;}.v{fill:url(#m);}.w{fill:url(#n);}.x{fill:#4520aa;}.y{opacity:0.23;}.z{fill:url(#o);}.aa{fill:url(#p);}.ab{fill:url(#q);}.ac{fill:url(#r);}.ad{opacity:0.599;fill:url(#s);}.ae{opacity:0.3;}.af,.ah{fill-rule:evenodd;}.af{fill:url(#t);}.ag{fill:url(#u);}.ah{fill:url(#v);}</style><linearGradient id="a" x1="1.081" y1="0.567" x2="0.609" y2="1.515" gradientUnits="objectBoundingBox"><stop offset="0.004" stop-color="#e38ddd"/><stop offset="1" stop-color="#9571f6"/></linearGradient><clipPath id="b"><path d="M322.978,949.788a6.77,6.77,0,0,0,1.484-2.826c.219-3.609,1.069-10.341-1.288-13.351-.4-.514-3.142.646-3.818.387-1.926.315-2.575.545-4.554-.054-5.841-1.769-3.831-14.076-13.909-10.937-7.382,2.3-11.06,7.936-16.926-1.934s-25.215-21.863-30.612-8.409c-3.1,7.721,8.24,11.72,9.393,19.66,1.095,7.545,6.674,10.519,14.969,9.761s6.9,4.036,8.862,10.57c2.353,7.849,13,2.162,17.688-.883C308.043,949.319,319.315,945.623,322.978,949.788Z" transform="translate(-252.822 -906.661)"/></clipPath><linearGradient id="c" x1="-0.081" y1="0.567" x2="0.391" y2="1.515" gradientUnits="objectBoundingBox"><stop offset="0" stop-color="#e38ddd"/><stop offset="0.004" stop-color="#fee74e"/><stop offset="1" stop-color="#ffb462"/></linearGradient><clipPath id="d"><path d="M1.814,43.127A6.77,6.77,0,0,1,.329,40.3C.11,36.691-.74,29.959,1.617,26.949c.4-.514,3.142.646,3.818.387,1.926.315,2.575.545,4.554-.054C15.83,25.512,13.82,13.206,23.9,16.345c7.382,2.3,11.06,7.936,16.926-1.934S66.038-7.452,71.435,6c3.1,7.721-8.24,11.72-9.393,19.66-1.095,7.545-6.674,10.519-14.969,9.761s-6.9,4.036-8.862,10.57c-2.353,7.849-13,2.162-17.688-.883C16.748,42.657,5.476,38.961,1.814,43.127Z"/></clipPath><linearGradient id="e" x1="1.22" y1="0.352" x2="0.948" y2="1.024" gradientUnits="objectBoundingBox"><stop offset="0" stop-color="#aa80f9"/><stop offset="0.996" stop-color="#6165d7"/></linearGradient><clipPath id="f"><path d="M307.874,336.213q6.313-4.63,12.482-9.556c.1.025-2.418-10.4-9.131-12.932-13.191-4.807-10.667-16.933-11.064-23.089-.251-8.842-5-15.981-12.591-12-8.486,4.258-15.671-8.61-19.312-21.89-1.343-6.711-10.19-10.93-16.671-9.468-6.677,1.345-10.987,8.37-7.78,21.46,3.071,15.505,16.917,18.332,23.658,23.277,6.626,4.85.168,15.2,9.757,17.476,8.186,2.2,17.285,2.039,17.373,10.35C294.576,328.122,297.533,333.271,307.874,336.213Z" transform="translate(-242.725 -246.993)"/></clipPath><linearGradient id="g" x1="1.618" y1="0.285" x2="1.17" y2="0.776" xlink:href="#a"/><linearGradient id="h" x1="0.991" y1="-0.18" x2="1.229" y2="2.167" gradientUnits="objectBoundingBox"><stop offset="0" stop-color="#ffc444"/><stop offset="0.996" stop-color="#f36f56"/></linearGradient><linearGradient id="i" x1="0.99" y1="-0.031" x2="1.568" y2="1.78" xlink:href="#a"/><linearGradient id="j" x1="0.392" y1="-0.181" x2="1.903" y2="1.097" xlink:href="#e"/><linearGradient id="k" x1="1.561" y1="0.285" x2="0.863" y2="1.187" gradientUnits="objectBoundingBox"><stop offset="0" stop-color="#ff9085"/><stop offset="1" stop-color="#fb6fbb"/></linearGradient><linearGradient id="l" x1="1.114" y1="0.211" x2="0.574" y2="4.131" xlink:href="#k"/><linearGradient id="m" x1="-0.595" y1="1.436" x2="0.197" y2="-0.497" xlink:href="#k"/><linearGradient id="n" x1="1.617" y1="0.285" x2="1.17" y2="0.776" xlink:href="#a"/><linearGradient id="o" x1="0.989" y1="-0.18" x2="1.226" y2="2.167" xlink:href="#h"/><linearGradient id="p" x1="0.989" y1="-0.03" x2="1.566" y2="1.781" xlink:href="#a"/><linearGradient id="q" x1="0.39" y1="-0.18" x2="1.901" y2="1.098" xlink:href="#e"/><linearGradient id="r" x1="1.56" y1="0.284" x2="0.862" y2="1.186" xlink:href="#k"/><linearGradient id="s" x1="-0.594" y1="1.437" x2="0.198" y2="-0.496" xlink:href="#k"/><linearGradient id="t" x1="-0.275" y1="-0.483" x2="2.04" y2="0.662" gradientUnits="objectBoundingBox"><stop offset="0" stop-color="#444b8c"/><stop offset="0.996" stop-color="#3e4177"/></linearGradient><linearGradient id="u" x1="-1.147" y1="-0.587" x2="2.712" y2="0.654" xlink:href="#t"/><linearGradient id="v" x1="1.337" y1="0.188" x2="-0.841" y2="3.136" xlink:href="#e"/></defs><g transform="translate(-15.785 -15.669)"><g transform="translate(15.785 15.669)"><g transform="translate(0.001)"><g transform="translate(0.584 38.183)"><path class="a" d="M322.978,949.788a6.77,6.77,0,0,0,1.484-2.826c.219-3.609,1.069-10.341-1.288-13.351-.4-.514-3.142.646-3.818.387-1.926.315-2.575.545-4.554-.054-5.841-1.769-3.831-14.076-13.909-10.937-7.382,2.3-11.06,7.936-16.926-1.934s-25.215-21.863-30.612-8.409c-3.1,7.721,8.24,11.72,9.393,19.66,1.095,7.545,6.674,10.519,14.969,9.761s6.9,4.036,8.862,10.57c2.353,7.849,13,2.162,17.688-.883C308.043,949.319,319.315,945.623,322.978,949.788Z" transform="translate(-252.822 -906.661)"/><g class="b"><g transform="translate(1.057 -3.047)"><path class="c" d="M331.126,962.509a67.5,67.5,0,0,1-29.5-6.854,80.933,80.933,0,0,1-30.539-26.461l.16-.113a80.729,80.729,0,0,0,30.463,26.4,66.775,66.775,0,0,0,39.391,6.075l.03.193A66.1,66.1,0,0,1,331.126,962.509Z" transform="translate(-271.09 -924.735)"/><path class="c" d="M844.086,1513.457l-.156-.118c4.46-5.889,14.077-12.622,21.437-15.009l.06.186C858.1,1500.893,848.526,1507.6,844.086,1513.457Z" transform="translate(-810.773 -1461.036)"/><path class="c" d="M1123.627,1179.926c-4.026-.521-7.629-3.051-10.708-7.518a45.757,45.757,0,0,1-5.709-12.471l.187-.057a45.558,45.558,0,0,0,5.683,12.418c3.046,4.419,6.6,6.92,10.572,7.434Z" transform="translate(-1058.814 -1142.176)"/><path class="c" d="M434.834,1369.619l-.1-.166c4.769-2.986,12.015-6.26,19.455-4.906l-.035.192C446.771,1363.394,439.573,1366.651,434.834,1369.619Z" transform="translate(-425.258 -1334.7)"/><path class="c" d="M433.609,874.415c-2.308-2.867-6.065-9.33-5.291-20.4l.2.014c-.77,11,2.958,17.414,5.248,20.259Z" transform="translate(-419.12 -854.02)"/></g></g></g><g transform="translate(77.326 55.731) rotate(-25)"><path class="d" d="M1.814,43.127A6.77,6.77,0,0,1,.329,40.3C.11,36.691-.74,29.959,1.617,26.949c.4-.514,3.142.646,3.818.387,1.926.315,2.575.545,4.554-.054C15.83,25.512,13.82,13.206,23.9,16.345c7.382,2.3,11.06,7.936,16.926-1.934S66.038-7.452,71.435,6c3.1,7.721-8.24,11.72-9.393,19.66-1.095,7.545-6.674,10.519-14.969,9.761s-6.9,4.036-8.862,10.57c-2.353,7.849-13,2.162-17.688-.883C16.748,42.657,5.476,38.961,1.814,43.127Z"/><g class="e" transform="translate(0 0)"><g transform="translate(0.868 -3.047)"><path class="c" d="M10.008,33.429a67.5,67.5,0,0,0,29.5-6.854A80.932,80.932,0,0,0,70.044.113L69.884,0A80.728,80.728,0,0,1,39.42,26.4,66.775,66.775,0,0,1,.03,32.472L0,32.666A66.1,66.1,0,0,0,10.008,33.429Z" transform="translate(0 4.345)"/><path class="c" d="M21.342,15.127l.156-.118C17.037,9.12,7.42,2.388.06,0L0,.186C7.327,2.563,16.9,9.266,21.342,15.127Z" transform="translate(15.389 37.294)"/><path class="c" d="M.025,20.046C4.051,19.525,7.654,17,10.733,12.529A45.757,45.757,0,0,0,16.442.057L16.255,0a45.56,45.56,0,0,1-5.683,12.418C7.526,16.837,3.969,19.338,0,19.852Z" transform="translate(5.205 17.704)"/><path class="c" d="M19.351,5.387l.1-.166C14.686,2.235,7.44-1.04,0,.315L.035.507C7.414-.838,14.612,2.419,19.351,5.387Z" transform="translate(41.117 29.532)"/><path class="c" d="M.152,20.4C2.461,17.528,6.218,11.065,5.443,0l-.2.014c.77,11-2.958,17.414-5.248,20.259Z" transform="translate(55.403)"/></g></g></g><path class="f" d="M307.874,336.213q6.313-4.63,12.482-9.556c.1.025-2.418-10.4-9.131-12.932-13.191-4.807-10.667-16.933-11.064-23.089-.251-8.842-5-15.981-12.591-12-8.486,4.258-15.671-8.61-19.312-21.89-1.343-6.711-10.19-10.93-16.671-9.468-6.677,1.345-10.987,8.37-7.78,21.46,3.071,15.505,16.917,18.332,23.658,23.277,6.626,4.85.168,15.2,9.757,17.476,8.186,2.2,17.285,2.039,17.373,10.35C294.576,328.122,297.533,333.271,307.874,336.213Z" transform="translate(-242.725 -246.993)"/><g class="g"><g transform="translate(-1.419 -3.99)"><path class="h" d="M458.163,268.621a297.49,297.49,0,0,0-28.182-33.627c-2.349-2.646-4.787-5.261-7.146-7.79-6.326-6.784-12.868-13.8-17.842-21.638a57.544,57.544,0,0,1-9.264-27.479l.39-.027a57.157,57.157,0,0,0,9.2,27.3c4.955,7.807,11.484,14.809,17.8,21.581,2.36,2.531,4.8,5.148,7.144,7.789a294.246,294.246,0,0,1,28.252,33.733l-.182.072Z" transform="translate(-385.455 -178.06)"/><path class="h" d="M243.759,602.012c-7.275-2.774-16.533-7.3-21.506-9.727-2.084-1.018-3.73-1.822-3.936-1.863a.171.171,0,0,0,.126-.035l-.233-.313c.155-.115.16-.12,4.214,1.86,4.968,2.427,14.216,6.944,21.474,9.712Z" transform="translate(-218.21 -566.187)"/><path class="h" d="M560.559,315.847c-2.754-12.012,2.028-20.759,3.359-22.281.08-.092.158-.165.268-.157l-.036.39a.164.164,0,0,0,.113-.028,18.591,18.591,0,0,0-2.944,6.234,30.746,30.746,0,0,0-.38,15.754Z" transform="translate(-539.952 -286.733)"/><path class="h" d="M1091.508,767.89c-3.155-5.518-4.394-12.616-3.682-21.1a68.449,68.449,0,0,1,2.653-13.7c.067-.226.125-.421.132-.46l.387.053c-.007.056-.041.169-.144.519a68.047,68.047,0,0,0-2.638,13.624c-.706,8.4.516,15.423,3.632,20.87Z" transform="translate(-1037.307 -700.53)"/><path class="h" d="M721.952,1207.649l-.212-.107.046-.232a26.431,26.431,0,0,1,7.018-2.189c3.67-.642,9.021-.789,13.672,2.161l-.209.331c-8.745-5.547-20.14-.052-20.246.009l-.1-.168-.006,0Z" transform="translate(-692.595 -1145.313)"/><path class="h" d="M1418.5,1416.825c-1.169-2.538-2.065-7.449.306-16.432.053-.2.1-.376.1-.413l.172.024.189-.115c.05.082.05.082-.087.6-2.341,8.87-1.471,13.689-.329,16.169Z" transform="translate(-1347.907 -1329.168)"/><path class="h" d="M1134.692,1560.256c-3.224-3.832-11.583-3.441-15.027-3.1-.151.015-.248.024-.283.026l-.012-.391c.033,0,.12-.01.255-.024,10.146-1.019,13.982,1.588,15.365,3.233Z" transform="translate(-1067.209 -1476.752)"/></g></g></g><g transform="translate(3.649 76.282)"><g transform="translate(8.893)"><path class="i" d="M475.994,1251.143l-43.425-1.47a1.719,1.719,0,0,0-1.8,1.719v78.882a1.672,1.672,0,0,0,1.8,1.677l43.425-2.469a1.775,1.775,0,0,0,1.625-1.78v-74.816A1.726,1.726,0,0,0,475.994,1251.143Z" transform="translate(-430.77 -1249.672)"/><g class="j"><path class="k" d="M458.177,1309.391c-.739-9.02,4.8-12.742,2.689-20.914-2.612-10.1-12.657-10.535-16.077-20.44-1.31-3.795-1.829-9.532,1.923-17.886l-14.143-.479a1.719,1.719,0,0,0-1.8,1.719v78.882a1.672,1.672,0,0,0,1.8,1.677l38.72-2.2C461.438,1322.121,458.631,1314.935,458.177,1309.391Z" transform="translate(-430.77 -1249.672)"/></g><path class="l" d="M493.263,1269.183l-43.425-1.419a.707.707,0,0,0-.739.705v78.791a.688.688,0,0,0,.739.689l43.425-2.42a.729.729,0,0,0,.668-.731v-74.9A.709.709,0,0,0,493.263,1269.183Z" transform="translate(-448.039 -1266.716)"/><g class="m" transform="matrix(1, -0.017, 0.017, 1, 4.325, 65.19)"><path class="k" d="M37.432,0,1.535.95C.688.973,0,1.495,0,2.116S.688,3.222,1.535,3.2l35.9-1.016a1.349,1.349,0,0,0,1.443-1.13C38.875.451,38.229-.02,37.432,0Z"/><path class="k" d="M37.432,0,1.535,1.068C.688,1.093,0,1.617,0,2.239s.688,1.1,1.535,1.077l35.9-1.133a1.354,1.354,0,0,0,1.443-1.135C38.875.446,38.229-.023,37.432,0Z" transform="translate(0 3.886)"/><path class="k" d="M37.432,0,1.535,1.186C.688,1.214,0,1.74,0,2.362s.688,1.1,1.535,1.072l35.9-1.25a1.36,1.36,0,0,0,1.443-1.14C38.875.442,38.229-.025,37.432,0Z" transform="translate(0 7.772)"/></g><g class="m" transform="translate(9.546 5.246)"><path class="k" d="M609.512,1340.681l-13.254-.375a.538.538,0,0,0-.558.541.577.577,0,0,0,.558.572l13.254.359a.527.527,0,0,0,.541-.534A.564.564,0,0,0,609.512,1340.681Z" transform="translate(-595.7 -1340.306)"/><path class="k" d="M609.512,1374.9l-13.254-.346a.54.54,0,0,0-.558.542.574.574,0,0,0,.558.571l13.254.33a.529.529,0,0,0,.541-.534A.563.563,0,0,0,609.512,1374.9Z" transform="translate(-595.7 -1372.574)"/><path class="k" d="M609.512,1409.134l-13.254-.317a.542.542,0,0,0-.558.544.573.573,0,0,0,.558.569l13.254.3a.529.529,0,0,0,.541-.535A.56.56,0,0,0,609.512,1409.134Z" transform="translate(-595.7 -1404.852)"/></g><g transform="translate(9.499 14.174)"><g transform="translate(0 5.294)"><path class="n" d="M622.438,1597.064a5.672,5.672,0,0,1,4.359-3l.131-8.045a13.612,13.612,0,0,0-12.088,8.211Z" transform="translate(-613.685 -1586.02)"/><path class="o" d="M732.154,1840.03a5.7,5.7,0,0,1-5.53,4.75,5.566,5.566,0,0,1-2.309-.475l-4.216,6.929a13.346,13.346,0,0,0,6.524,1.558,13.694,13.694,0,0,0,13.3-12.468Z" transform="translate(-712.852 -1825.327)"/><path class="p" d="M600.826,1768.386l4.227-6.935a5.721,5.721,0,0,1-2.088-4.436,5.811,5.811,0,0,1,.138-1.262l-7.607-2.823a13.909,13.909,0,0,0-.617,4.108A13.716,13.716,0,0,0,600.826,1768.386Z" transform="translate(-594.88 -1743.269)"/></g><g transform="translate(14.618)"><path class="q" d="M847.42,1507.919a5.676,5.676,0,0,1,4.745,5.113l12.852.508v-.017a18.939,18.939,0,0,0-17.379-18.973Z" transform="translate(-847.42 -1494.55)"/></g></g><path class="r" d="M477.27,1326.489c-.738-9.018,4.8-12.741,2.689-20.911-2.611-10.1-12.653-10.533-16.073-20.437-1.256-3.639-1.784-9.062,1.482-16.869l-13.7-.447a.706.706,0,0,0-.738.705v78.781a.688.688,0,0,0,.738.689l37.536-2.091C480.3,1338.626,477.705,1331.8,477.27,1326.489Z" transform="translate(-449.763 -1266.773)"/></g><g transform="translate(0 12.965)"><path class="s" d="M299.007,1483.521l-21.016-.209a.859.859,0,0,1-.861-.846v-7.993a.825.825,0,0,1,.861-.817l18.3.436a.838.838,0,0,1,.814.833v6.87Z" transform="translate(-277.13 -1473.656)"/><path class="t" d="M344.628,1511.09l-13.918-.271v-.958l13.918.291Z" transform="translate(-327.609 -1507.764)"/><path class="t" d="M344.628,1544.161l-13.918-.233v-.959l13.918.252Z" transform="translate(-327.609 -1538.958)"/><path class="t" d="M344.628,1577.233l-13.918-.195v-.958l13.918.214Z" transform="translate(-327.609 -1570.151)"/></g><g class="u" transform="translate(30.361 48.245)"><path class="v" d="M803.611,2084.657l18.776-.4a.877.877,0,0,1,.885.9v8.742a.938.938,0,0,1-.885.945l-19.79.667a.9.9,0,0,1-.928-.907V2083.17Z" transform="translate(-801.67 -2083.17)"/><path class="t" d="M859.41,2229.4l15.055-.45v1.057l-15.055.468Z" transform="translate(-856.068 -2220.512)"/><path class="t" d="M859.41,2192.853l15.055-.413v1.057l-15.055.432Z" transform="translate(-856.068 -2186.115)"/><path class="t" d="M859.41,2156.307l15.055-.377v1.057l-15.055.395Z" transform="translate(-856.068 -2151.719)"/></g></g><g transform="translate(52.554 10.289)"><path class="w" d="M1389.624,427.038l-67.41-2.281a2.669,2.669,0,0,0-2.794,2.667V549.877a2.6,2.6,0,0,0,2.794,2.6l67.41-3.833a2.756,2.756,0,0,0,2.522-2.763V429.743A2.679,2.679,0,0,0,1389.624,427.038Z" transform="translate(-1319.42 -424.755)"/><g class="j"><path class="k" d="M1361.965,517.46c-1.146-14,7.454-19.781,4.175-32.466-4.054-15.68-19.647-16.353-24.957-31.729-2.035-5.891-2.838-14.8,2.986-27.765l-21.955-.743a2.669,2.669,0,0,0-2.794,2.667V549.877a2.6,2.6,0,0,0,2.794,2.6l60.107-3.418C1367.028,537.221,1362.67,526.066,1361.965,517.46Z" transform="translate(-1319.42 -424.755)"/></g><path class="x" d="M1412.607,451.265l-67.41-2.2a1.1,1.1,0,0,0-1.147,1.1v122.31a1.068,1.068,0,0,0,1.147,1.069l67.41-3.756a1.133,1.133,0,0,0,1.037-1.135V452.376A1.1,1.1,0,0,0,1412.607,451.265Z" transform="translate(-1342.403 -447.435)"/><g class="u" transform="matrix(1, -0.017, 0.017, 1, 7.771, 100.585)"><path class="k" d="M56.664,0,2.325,1.475C1.041,1.51,0,2.32,0,3.285S1.041,5,2.325,4.964L56.664,3.388a2.056,2.056,0,0,0,2.184-1.755A1.923,1.923,0,0,0,56.664,0Z"/><path class="k" d="M56.664,0,2.325,1.657C1.041,1.7,0,2.51,0,3.475S1.041,5.188,2.325,5.147L56.664,3.388a2.065,2.065,0,0,0,2.184-1.763A1.916,1.916,0,0,0,56.664,0Z" transform="translate(0 6.032)"/><path class="k" d="M56.664,0,2.325,1.84C1.041,1.884,0,2.7,0,3.666s1.041,1.71,2.325,1.664L56.664,3.388a2.073,2.073,0,0,0,2.184-1.769A1.908,1.908,0,0,0,56.664,0Z" transform="translate(0 12.065)"/></g><g class="y" transform="translate(14.819 8.143)"><path class="k" d="M1562.5,547.127l-20.576-.582a.837.837,0,0,0-.867.84.9.9,0,0,0,.867.888l20.576.558a.819.819,0,0,0,.84-.828A.875.875,0,0,0,1562.5,547.127Z" transform="translate(-1541.06 -546.544)"/><path class="k" d="M1562.5,593.114l-20.576-.538a.84.84,0,0,0-.867.843.893.893,0,0,0,.867.886l20.576.511a.82.82,0,0,0,.84-.83A.872.872,0,0,0,1562.5,593.114Z" transform="translate(-1541.06 -589.498)"/><path class="k" d="M1562.5,639.109l-20.576-.492a.842.842,0,0,0-.867.844.89.89,0,0,0,.867.884l20.576.467a.822.822,0,0,0,.84-.832A.869.869,0,0,0,1562.5,639.109Z" transform="translate(-1541.06 -632.46)"/></g><g transform="translate(14.746 22.003)"><g transform="translate(0 8.218)"><path class="z" d="M1578.575,893.885a8.807,8.807,0,0,1,6.765-4.657l.2-12.488a21.13,21.13,0,0,0-18.764,12.746Z" transform="translate(-1564.987 -876.74)"/><path class="aa" d="M1726.944,1218.1a8.842,8.842,0,0,1-8.585,7.373,8.634,8.634,0,0,1-3.585-.738l-6.544,10.757a20.711,20.711,0,0,0,10.128,2.418,21.256,21.256,0,0,0,20.64-19.354Z" transform="translate(-1696.979 -1195.276)"/><path class="ab" d="M1549.191,1125.034l6.563-10.766a8.881,8.881,0,0,1-3.242-6.886,9.045,9.045,0,0,1,.214-1.959l-11.808-4.383a21.6,21.6,0,0,0-.958,6.377A21.294,21.294,0,0,0,1549.191,1125.034Z" transform="translate(-1539.96 -1086.043)"/></g><g transform="translate(22.691)"><path class="ac" d="M1879.33,774.583a8.811,8.811,0,0,1,7.366,7.937l19.951.789c0-.009,0-.018,0-.027a29.4,29.4,0,0,0-26.978-29.452Z" transform="translate(-1879.33 -753.83)"/></g></g><path class="r" d="M1387.4,540.21c-1.146-14,7.453-19.779,4.174-32.463-4.054-15.679-19.643-16.351-24.952-31.725-1.95-5.648-2.769-14.068,2.3-26.187l-21.266-.695a1.1,1.1,0,0,0-1.146,1.1v122.3a1.069,1.069,0,0,0,1.146,1.07l58.268-3.246C1392.107,559.051,1388.074,548.459,1387.4,540.21Z" transform="translate(-1344.699 -447.51)"/><g transform="translate(33.327 74.891)"><path class="ad" d="M1820.873,1547.139l29.147-.626a1.361,1.361,0,0,1,1.373,1.391v13.571a1.456,1.456,0,0,1-1.373,1.468l-30.721,1.035a1.391,1.391,0,0,1-1.439-1.408v-17.74Z" transform="translate(-1817.86 -1544.83)"/><path class="ae" d="M1895.45,1741.439l23.371-.7v1.64l-23.371.727Z" transform="translate(-1890.262 -1727.641)"/><path class="ae" d="M1895.45,1692.322l23.371-.642v1.64l-23.371.671Z" transform="translate(-1890.262 -1681.861)"/><path class="ae" d="M1895.45,1643.2l23.371-.586v1.641l-23.371.613Z" transform="translate(-1890.262 -1636.072)"/></g></g><g transform="translate(0 120.308)"><path class="af" d="M1485.211,222.728a8.1,8.1,0,0,1-.771.9c.021.03.042.059.062.091a1.466,1.466,0,0,1-.444,1.921,1.241,1.241,0,0,1-1.808-.343c-.02-.032-.036-.066-.053-.1a7.41,7.41,0,0,1-1.071.4c0,.038.007.077.008.117a1.466,1.466,0,0,1-1.288,1.492,1.241,1.241,0,0,1-1.343-1.257c0-.039,0-.077,0-.116a6.545,6.545,0,0,1-1.083-.207c-.015.036-.031.073-.049.108a1.3,1.3,0,1,1-2.307-1.171c.018-.036.038-.07.059-.1a6.523,6.523,0,0,1-.553-.488,1.846,1.846,0,0,1-2.153-.537,1.466,1.466,0,0,1,.444-1.921c.032-.023.066-.043.1-.063a7.37,7.37,0,0,1-.311-1.1c-.037.007-.075.013-.112.016a1.241,1.241,0,0,1-1.344-1.257,1.465,1.465,0,0,1,1.288-1.492c.037,0,.073,0,.11,0a8.178,8.178,0,0,1,.267-1.151c-.034-.013-.067-.027-.1-.044a1.405,1.405,0,0,1,1.268-2.5.982.982,0,0,1,.095.055,8.044,8.044,0,0,1,.772-.9c-.021-.03-.043-.06-.062-.091a1.466,1.466,0,0,1,.444-1.921,1.242,1.242,0,0,1,1.808.343c.02.033.037.067.053.1a7.344,7.344,0,0,1,1.071-.4c0-.039-.008-.078-.008-.117-.016-.759.521-1.45,2.112-1.419.729.014.5.425.52,1.184,0,.039,0,.078,0,.116a6.542,6.542,0,0,1,1.084.207c.015-.036.031-.073.049-.109.35-.689.987-1.31,2.473-.585.642.313.185,1.067-.166,1.757-.018.036-.038.069-.059.1a6.548,6.548,0,0,1,.806.753c.03-.025.06-.049.091-.071a1.241,1.241,0,0,1,1.808.343,1.465,1.465,0,0,1-.444,1.92,1.141,1.141,0,0,1-.1.063,7.407,7.407,0,0,1,.311,1.1c.038-.006.075-.012.113-.016a1.241,1.241,0,0,1,1.343,1.257,1.466,1.466,0,0,1-1.288,1.492c-.038,0-.074,0-.111,0a8.036,8.036,0,0,1-.267,1.151c.033.014.068.028.1.045a1.4,1.4,0,0,1-1.268,2.5C1485.273,222.766,1485.242,222.747,1485.211,222.728Zm-10.547,1.18c.025-.018-.237-.127-.322-.181.074.081.15.161.229.238A.928.928,0,0,0,1474.664,223.907Zm-.322-.181-.024-.027C1474.312,223.7,1474.322,223.714,1474.342,223.726Zm9.513-3.251a4.712,4.712,0,1,0-6.49,2.408A4.9,4.9,0,0,0,1483.855,220.475Z" transform="translate(-1471.195 -209.572)"/><path class="ag" d="M1597.207,242.344a1.466,1.466,0,0,0,1.288-1.492,1.241,1.241,0,0,0-1.343-1.257c-.038,0-.075.009-.113.016a7.393,7.393,0,0,0-.311-1.1,1.157,1.157,0,0,0,.1-.063c.622-.435,1.391-1.488.953-2.071-.833-1.107-1.695-.627-2.317-.192-.032.023-.062.046-.091.071a6.542,6.542,0,0,0-.806-.753c.021-.034.041-.067.059-.1a1.447,1.447,0,0,0,.081-1.141q-.9,1.586-1.775,3.186a4.978,4.978,0,0,1,1.279,6.288,5.093,5.093,0,0,1-4.817,2.87c-.085.219-.168.44-.258.657-.246.59-.526,1.167-.805,1.745q.264.049.53.078c0,.039,0,.077,0,.116.015.759.476,1.4,1.793,1.334.729-.039.854-.81.839-1.569,0-.04,0-.079-.008-.117a7.406,7.406,0,0,0,1.071-.4c.017.034.033.068.053.1a1.9,1.9,0,0,0,2.3.455c.622-.436.324-1.407-.053-2.032-.02-.032-.041-.062-.062-.091a8.106,8.106,0,0,0,.771-.9c.031.02.062.038.1.055a1.4,1.4,0,0,0,1.268-2.5c-.033-.017-.067-.031-.1-.045a8.019,8.019,0,0,0,.267-1.151C1597.133,242.348,1597.169,242.347,1597.207,242.344Z" transform="translate(-1581.55 -232.831)"/><path class="ah" d="M1497.042,222.815a8.052,8.052,0,0,1-.772.895c.021.03.043.06.062.091a1.466,1.466,0,0,1-.444,1.921,1.241,1.241,0,0,1-1.808-.343c-.02-.033-.037-.067-.053-.1a7.4,7.4,0,0,1-1.071.4c0,.039.008.078.008.118a1.465,1.465,0,0,1-1.288,1.492,1.242,1.242,0,0,1-1.344-1.257c0-.039,0-.078,0-.116a6.6,6.6,0,0,1-1.084-.207c-.015.036-.031.072-.049.108a1.3,1.3,0,1,1-2.307-1.171c.019-.036.038-.07.059-.1a6.555,6.555,0,0,1-.806-.752c-.029.024-.06.048-.091.071a1.241,1.241,0,0,1-1.807-.343,1.466,1.466,0,0,1,.444-1.921c.032-.023.065-.043.1-.062a7.353,7.353,0,0,1-.311-1.1c-.037.006-.075.013-.113.016a1.241,1.241,0,0,1-1.344-1.257,1.466,1.466,0,0,1,1.288-1.492c.038,0,.074,0,.11,0a8.025,8.025,0,0,1,.267-1.151c-.033-.013-.068-.028-.1-.045a1.405,1.405,0,0,1,1.268-2.5c.033.017.064.036.1.055a8.035,8.035,0,0,1,.771-.895c-.021-.03-.042-.06-.062-.092a1.464,1.464,0,0,1,.444-1.92,1.241,1.241,0,0,1,1.808.343c.02.032.036.067.053.1a7.5,7.5,0,0,1,1.071-.4c0-.038-.007-.077-.008-.117a1.466,1.466,0,0,1,1.288-1.492,1.241,1.241,0,0,1,1.344,1.257c0,.039,0,.078,0,.116a6.61,6.61,0,0,1,1.084.207c.015-.036.031-.072.049-.108a1.3,1.3,0,1,1,2.307,1.171c-.018.036-.038.07-.058.1a6.591,6.591,0,0,1,.806.752c.029-.024.06-.049.091-.071a1.241,1.241,0,0,1,1.808.343,1.466,1.466,0,0,1-.444,1.921c-.032.023-.066.043-.1.063a7.412,7.412,0,0,1,.311,1.1c.037-.006.075-.013.112-.016a1.241,1.241,0,0,1,1.343,1.257,1.465,1.465,0,0,1-1.289,1.492c-.037,0-.073,0-.11,0a8.158,8.158,0,0,1-.267,1.151c.034.013.067.028.1.044a1.405,1.405,0,0,1-1.268,2.5C1497.1,222.853,1497.072,222.834,1497.042,222.815Zm-1.356-2.253a4.711,4.711,0,1,0-6.49,2.408A4.9,4.9,0,0,0,1495.686,220.562Z" transform="translate(-1482.341 -209.582)"/></g></g></g></svg>