<svg xmlns="http://www.w3.org/2000/svg" xmlns:xlink="http://www.w3.org/1999/xlink" width="188.634" height="152.613" viewBox="0 0 188.634 152.613"><defs><style>.a{fill:url(#a);}.b{clip-path:url(#b);}.c{opacity:0.502;}.c,.g{mix-blend-mode:soft-light;}.ab,.af,.ak,.c,.g,.k,.o,.x,.z{isolation:isolate;}.d{fill:#fff;}.e{fill:url(#c);}.f{clip-path:url(#d);}.g{opacity:0.702;}.h{fill:url(#e);}.i{fill:#afa0ed;}.j{fill:url(#g);}.ab,.k{opacity:0.302;}.ab,.af,.ak,.k,.o,.x,.z{mix-blend-mode:multiply;}.k{fill:url(#h);}.l{fill:url(#i);}.m{fill:url(#j);}.n{fill:url(#k);}.o,.v{opacity:0.541;}.p{fill:#d8dee8;}.q{fill:url(#l);}.r{fill:url(#m);}.s{fill:url(#n);}.t{fill:url(#o);}.u{fill:url(#p);}.w{fill:url(#q);}.x{opacity:0.349;}.y{fill:url(#r);}.z{opacity:0.129;}.aa{fill:url(#s);}.ab{fill:url(#t);}.ac{fill:url(#u);}.ad{fill:url(#v);}.ae{fill:url(#w);}.af{opacity:0.239;}.ag{fill:#552d63;}.ah{fill:url(#x);}.ai{fill:url(#y);}.aj{fill:url(#z);}.ak{opacity:0.2;}.al{fill:url(#aa);}.am{fill:url(#ab);}.an{fill:url(#ac);}.ao{fill:#9f73f8;}.ap{fill:#ae87f9;}.aq{fill:url(#ad);}.ar{fill:url(#ae);}.as{fill:url(#af);}.at{fill:#26264f;}.au{fill:#444b8c;}.av{fill:url(#ag);}.aw{fill:#1f1f44;}.ax{fill:url(#ah);}.ay{fill:url(#ai);}.az{fill:url(#aj);}.ba{fill:url(#ak);}.bb{fill:url(#al);}</style><linearGradient id="a" x1="1.148" y1="0.301" x2="0.591" y2="0.765" gradientUnits="objectBoundingBox"><stop offset="0" stop-color="#ff9085"/><stop offset="1" stop-color="#fb6fbb"/></linearGradient><clipPath id="b"><path d="M2012.713,1113.793a37.256,37.256,0,0,1,.033-20.028c2.727-9.055,7.547-10.585,12.413-20.135,6.947-13.633.8-24.244,7.317-28.121a10.03,10.03,0,0,1,10.768.716c8.015,6.544,3.991,32.481-10.022,41.782-6.337,4.207-11.567,3.314-16.488,8.973C2012.386,1101.981,2012.242,1108.948,2012.713,1113.793Z" transform="translate(-2011.346 -1044.273)"/></clipPath><linearGradient id="c" x1="1.015" y1="0.25" x2="0.692" y2="1.145" gradientUnits="objectBoundingBox"><stop offset="0" stop-color="#aa80f9"/><stop offset="0.996" stop-color="#6165d7"/></linearGradient><clipPath id="d"><path d="M1824.5,1391.167c-1.093-3.819-2.164-9.856.377-15.659,4.434-10.123,14.873-8.139,23.345-19.415,6.833-9.094,3.647-15.182,11.638-21.623,1.337-1.078,8.382-6.975,14.4-4.607a10.456,10.456,0,0,1,5.245,5.328c4.429,9.54-3.883,26.236-16.232,34.858-7.1,4.954-9.69,3.9-22.456,10.2A75.418,75.418,0,0,0,1824.5,1391.167Z" transform="translate(-1823.316 -1329.307)"/></clipPath><linearGradient id="e" x1="1.015" y1="0.25" x2="0.692" y2="1.145" gradientUnits="objectBoundingBox"><stop offset="0" stop-color="#4520aa"/><stop offset="1" stop-color="#1a094a"/></linearGradient><linearGradient id="g" x1="1.187" y1="0.509" x2="0.188" y2="1.938" gradientUnits="objectBoundingBox"><stop offset="0" stop-color="#ffc444"/><stop offset="0.996" stop-color="#f36f56"/></linearGradient><linearGradient id="h" x1="1.229" y1="0.471" x2="0.921" y2="0.881" xlink:href="#g"/><linearGradient id="i" x1="0.704" y1="-0.533" x2="1.183" y2="0.687" xlink:href="#g"/><linearGradient id="j" x1="-0.657" y1="1.907" x2="0.318" y2="-0.594" gradientUnits="objectBoundingBox"><stop offset="0.004" stop-color="#ebeff2"/><stop offset="1" stop-color="#fff"/></linearGradient><linearGradient id="k" x1="1.441" y1="0.32" x2="-0.009" y2="2.35" xlink:href="#g"/><linearGradient id="l" x1="-3.298" y1="-7.44" x2="6.494" y2="9.946" xlink:href="#a"/><linearGradient id="m" x1="-3.268" y1="-1.169" x2="12.229" y2="3.175" xlink:href="#a"/><linearGradient id="n" x1="-0.917" y1="-9.732" x2="2.705" y2="10.289" xlink:href="#a"/><linearGradient id="o" x1="0" y1="-0.003" x2="1" y2="-0.003" xlink:href="#c"/><linearGradient id="p" x1="1.203" y1="-0.088" x2="0.634" y2="2.72" xlink:href="#c"/><linearGradient id="q" x1="0.646" y1="0.065" x2="1.273" y2="1.445" xlink:href="#a"/><linearGradient id="r" x1="0.569" y1="-0.029" x2="1.526" y2="1.894" xlink:href="#a"/><linearGradient id="s" x1="0.607" y1="-0.248" x2="1.311" y2="1.607" xlink:href="#a"/><linearGradient id="t" x1="0.029" y1="-0.002" x2="1" y2="-0.002" xlink:href="#a"/><linearGradient id="u" x1="-0.094" y1="0.689" x2="0.591" y2="-0.142" gradientUnits="objectBoundingBox"><stop offset="0" stop-color="#40447e"/><stop offset="0.996" stop-color="#3c3b6b"/></linearGradient><linearGradient id="v" x1="-9.082" y1="-11.788" x2="17.028" y2="20.188" xlink:href="#g"/><linearGradient id="w" x1="0.108" y1="-0.425" x2="1.164" y2="0.835" gradientUnits="objectBoundingBox"><stop offset="0" stop-color="#311944"/><stop offset="1" stop-color="#6b3976"/></linearGradient><linearGradient id="x" x1="-1.178" y1="0.531" x2="2.155" y2="-0.297" gradientUnits="objectBoundingBox"><stop offset="0" stop-color="#311944"/><stop offset="1" stop-color="#893976"/></linearGradient><linearGradient id="y" x1="1.301" y1="2.095" x2="0.368" y2="0.602" xlink:href="#c"/><linearGradient id="z" x1="0.144" y1="1.013" x2="-0.089" y2="0.37" xlink:href="#c"/><linearGradient id="aa" x1="0.148" y1="1.018" x2="-0.093" y2="0.103" xlink:href="#c"/><linearGradient id="ab" x1="-0.176" y1="0.39" x2="2.917" y2="-1.502" xlink:href="#g"/><linearGradient id="ac" x1="0.311" y1="1.29" x2="-0.061" y2="0.32" gradientUnits="objectBoundingBox"><stop offset="0.283" stop-color="#aa80f9"/><stop offset="0.996" stop-color="#6165d7"/></linearGradient><linearGradient id="ad" x1="-0.249" y1="1.228" x2="0.141" y2="-0.365" xlink:href="#g"/><linearGradient id="ae" x1="0.075" y1="1.846" x2="1.223" y2="0.316" xlink:href="#w"/><linearGradient id="af" x1="1.036" y1="0.226" x2="0.742" y2="3.243" xlink:href="#g"/><linearGradient id="ag" x1="-0.054" y1="0.061" x2="0.998" y2="-0.007" xlink:href="#u"/><linearGradient id="ah" x1="0.003" y1="0.325" x2="0.776" y2="-0.483" xlink:href="#u"/><linearGradient id="ai" x1="-0.89" y1="1.367" x2="55.603" y2="46.837" xlink:href="#g"/><linearGradient id="aj" x1="-3.628" y1="0.746" x2="0.905" y2="-0.134" xlink:href="#w"/><linearGradient id="ak" x1="-0.623" y1="0.744" x2="0.913" y2="-0.006" xlink:href="#x"/><linearGradient id="al" x1="-0.247" y1="0.925" x2="0.983" y2="-0.057" xlink:href="#w"/></defs><g transform="translate(-1.443 -19.381)"><g transform="translate(0.286 0.031)"><g transform="translate(117.226 66.692)"><g transform="translate(10.028)"><path class="a" d="M2012.713,1113.793a37.256,37.256,0,0,1,.033-20.028c2.727-9.055,7.547-10.585,12.413-20.135,6.947-13.633.8-24.244,7.317-28.121a10.03,10.03,0,0,1,10.768.716c8.015,6.544,3.991,32.481-10.022,41.782-6.337,4.207-11.567,3.314-16.488,8.973C2012.386,1101.981,2012.242,1108.948,2012.713,1113.793Z" transform="translate(-2011.346 -1044.273)"/><g class="b"><g class="c" transform="translate(1.038 -2.672)"><path class="d" d="M2030.995,1054.428l-.185-.06a36.138,36.138,0,0,1,2.414-5.7c2.214-4.181,4.5-6.406,7.384-9.223a83.567,83.567,0,0,0,6.5-6.906c4.666-5.622,6.13-7.606,7.534-10.86a33,33,0,0,0,2.581-15.349,32.181,32.181,0,0,0-3.381-12.065l.173-.087a32.383,32.383,0,0,1,3.4,12.138,33.206,33.206,0,0,1-2.6,15.441c-1.414,3.276-2.883,5.269-7.563,10.907a83.588,83.588,0,0,1-6.509,6.922c-2.876,2.805-5.149,5.021-7.348,9.175A35.837,35.837,0,0,0,2030.995,1054.428Z" transform="translate(-2030.81 -994.18)"/><path class="d" d="M2319.256,1128.578l.008-.159c.448-9.3-10.5-13.222-10.614-13.261l.063-.183a21.519,21.519,0,0,1,5.539,3.139c2.478,1.957,5.377,5.3,5.212,10.151a17.74,17.74,0,0,0,4.808-3.751,15.88,15.88,0,0,0,4.044-12.635l.193-.019a16.066,16.066,0,0,1-4.1,12.79,17.569,17.569,0,0,1-5.01,3.862Z" transform="translate(-2293.832 -1105.584)"/><path class="d" d="M2317.289,1433.534a16.525,16.525,0,0,1-7.073-1.639l-.072-.039.026-.077c2.993-8.964-2.771-14.042-2.83-14.092l.126-.147c.059.051,5.887,5.185,2.913,14.221.787.395,7.824,3.7,14.218-.629l.109.16A13.006,13.006,0,0,1,2317.289,1433.534Z" transform="translate(-2292.592 -1394.961)"/><path class="d" d="M2234.936,1602.824a14.218,14.218,0,0,1-4.639-.727,8.955,8.955,0,0,1-3.378-1.926l-.048-.05.032-.062c2.431-4.7,0-12.821-.021-12.9l.185-.057c.025.082,2.454,8.2.041,12.984.5.471,4.871,4.215,13.614,1.659l.054.186A20.784,20.784,0,0,1,2234.936,1602.824Z" transform="translate(-2216.414 -1555.478)"/></g></g></g><g transform="translate(0 15.201)"><path class="e" d="M1824.5,1391.167c-1.093-3.819-2.164-9.856.377-15.659,4.434-10.123,14.873-8.139,23.345-19.415,6.833-9.094,3.647-15.182,11.638-21.623,1.337-1.078,8.382-6.975,14.4-4.607a10.456,10.456,0,0,1,5.245,5.328c4.429,9.54-3.883,26.236-16.232,34.858-7.1,4.954-9.69,3.9-22.456,10.2A75.418,75.418,0,0,0,1824.5,1391.167Z" transform="translate(-1823.316 -1329.307)"/><g class="f"><g class="g" transform="translate(0.421 -3.875)"><path class="d" d="M1831.4,1327.2l-.193-.017c.865-9.536,3.821-16.218,8.787-19.859a16.045,16.045,0,0,1,6.642-2.758,17.513,17.513,0,0,0,7.712-3.407,15.185,15.185,0,0,0,4.963-6.658,36.949,36.949,0,0,1,5.5-8.834,39.327,39.327,0,0,1,6.757-6.522,18.7,18.7,0,0,0,5.3-5.688c2.754-4.626,3.821-10.274,3.17-16.787l.193-.019c.655,6.555-.421,12.243-3.2,16.905a18.863,18.863,0,0,1-5.342,5.741,39.162,39.162,0,0,0-6.727,6.493,36.759,36.759,0,0,0-5.473,8.793,15.337,15.337,0,0,1-5.02,6.729,17.67,17.67,0,0,1-7.787,3.441,15.9,15.9,0,0,0-6.571,2.726C1835.192,1311.087,1832.262,1317.722,1831.4,1327.2Z" transform="translate(-1831.21 -1256.65)"/><path class="d" d="M2525.035,1364.34l.026-.127c.028-.135,2.711-13.518-2.651-18.3l.128-.145c5.162,4.6,3,16.961,2.737,18.354a25.321,25.321,0,0,0,14.917-6.557,23.922,23.922,0,0,0,4.67-5.686l.17.091a24.089,24.089,0,0,1-4.709,5.739,25.521,25.521,0,0,1-15.16,6.618Z" transform="translate(-2485.547 -1341.017)"/><path class="d" d="M2381.747,1588.922a29.414,29.414,0,0,1-7.96-1.015l-.08-.025.013-.083c1.082-6.942-1.662-16.33-1.691-16.424l.186-.055c.028.094,2.763,9.448,1.709,16.426a30.928,30.928,0,0,0,26.261-5.172l.119.154a30.24,30.24,0,0,1-17.942,6.189Q2382.051,1588.923,2381.747,1588.922Z" transform="translate(-2343.187 -1554.538)"/><path class="d" d="M2173.077,1846.752a39.83,39.83,0,0,1-9.731-1.164,25.487,25.487,0,0,1-5.807-2.127l-.089-.051.055-.086c4.387-6.822,1.208-16.893,1.175-16.994l.184-.06c.033.1,3.211,10.175-1.141,17.071.929.493,8.991,4.508,21.465,2.8l.026.191A45.026,45.026,0,0,1,2173.077,1846.752Z" transform="translate(-2140.051 -1795.891)"/></g></g></g><g transform="translate(28.595 20.991) rotate(40)"><path class="h" d="M1824.5,1391.167c-1.093-3.819-2.164-9.856.377-15.659,4.434-10.123,14.873-8.139,23.345-19.415,6.833-9.094,3.647-15.182,11.638-21.623,1.337-1.078,8.382-6.975,14.4-4.607a10.456,10.456,0,0,1,5.245,5.328c4.429,9.54-3.883,26.236-16.232,34.858-7.1,4.954-9.69,3.9-22.456,10.2A75.418,75.418,0,0,0,1824.5,1391.167Z" transform="translate(-1823.316 -1329.307)"/><g class="f"><g class="g" transform="translate(0.421 -3.875)"><path class="d" d="M1831.4,1327.2l-.193-.017c.865-9.536,3.821-16.218,8.787-19.859a16.045,16.045,0,0,1,6.642-2.758,17.513,17.513,0,0,0,7.712-3.407,15.185,15.185,0,0,0,4.963-6.658,36.949,36.949,0,0,1,5.5-8.834,39.327,39.327,0,0,1,6.757-6.522,18.7,18.7,0,0,0,5.3-5.688c2.754-4.626,3.821-10.274,3.17-16.787l.193-.019c.655,6.555-.421,12.243-3.2,16.905a18.863,18.863,0,0,1-5.342,5.741,39.162,39.162,0,0,0-6.727,6.493,36.759,36.759,0,0,0-5.473,8.793,15.337,15.337,0,0,1-5.02,6.729,17.67,17.67,0,0,1-7.787,3.441,15.9,15.9,0,0,0-6.571,2.726C1835.192,1311.087,1832.262,1317.722,1831.4,1327.2Z" transform="translate(-1831.21 -1256.65)"/><path class="d" d="M2525.035,1364.34l.026-.127c.028-.135,2.711-13.518-2.651-18.3l.128-.145c5.162,4.6,3,16.961,2.737,18.354a25.321,25.321,0,0,0,14.917-6.557,23.922,23.922,0,0,0,4.67-5.686l.17.091a24.089,24.089,0,0,1-4.709,5.739,25.521,25.521,0,0,1-15.16,6.618Z" transform="translate(-2485.547 -1341.017)"/><path class="d" d="M2381.747,1588.922a29.414,29.414,0,0,1-7.96-1.015l-.08-.025.013-.083c1.082-6.942-1.662-16.33-1.691-16.424l.186-.055c.028.094,2.763,9.448,1.709,16.426a30.928,30.928,0,0,0,26.261-5.172l.119.154a30.24,30.24,0,0,1-17.942,6.189Q2382.051,1588.923,2381.747,1588.922Z" transform="translate(-2343.187 -1554.538)"/><path class="d" d="M2173.077,1846.752a39.83,39.83,0,0,1-9.731-1.164,25.487,25.487,0,0,1-5.807-2.127l-.089-.051.055-.086c4.387-6.822,1.208-16.893,1.175-16.994l.184-.06c.033.1,3.211,10.175-1.141,17.071.929.493,8.991,4.508,21.465,2.8l.026.191A45.026,45.026,0,0,1,2173.077,1846.752Z" transform="translate(-2140.051 -1795.891)"/></g></g></g></g><g transform="translate(28.167 19.35)"><path class="i" d="M284.045,421.458c.07,31.945-16.91,58.014-47.149,58.872-.467.013-8.185,0-8.655,0-30.892.075-55.992-26.16-56.064-58.6s24.913-58.8,55.8-58.872c.723,0,7.5.065,8.219.092C266.095,364.068,283.975,389.778,284.045,421.458Z" transform="translate(-172.177 -362.859)"/><path class="j" d="M480.115,431.3c.072,32.439-24.913,58.8-55.8,58.872s-55.992-26.161-56.064-58.6,24.913-58.8,55.8-58.872S480.044,398.858,480.115,431.3Z" transform="translate(-357.79 -372.172)"/><path class="k" d="M503.727,457.57c.07,31.622-24.285,57.316-54.4,57.389s-54.582-25.5-54.651-57.123,24.285-57.316,54.4-57.389S503.657,425.949,503.727,457.57Z" transform="translate(-382.811 -398.442)"/><path class="l" d="M531.3,488.387c0,30.667-23.675,55.527-52.879,55.527s-52.879-24.86-52.879-55.527,23.675-55.527,52.879-55.527S531.3,457.72,531.3,488.387Z" transform="translate(-412.028 -429.127)"/><path class="m" d="M529.037,509.451c0,30.012-23.169,54.341-51.749,54.341s-51.748-24.329-51.748-54.341,23.169-54.341,51.748-54.341S529.037,479.439,529.037,509.451Z" transform="translate(-412.028 -450.19)"/><g transform="translate(70.725 13.534)"><path class="n" d="M1498.29,660.791l39.419,15.286a47.938,47.938,0,0,0,1.975-13.674c0-24.522-18.335-44.547-41.394-45.783Z" transform="translate(-1498.29 -616.62)"/></g><g class="o" transform="translate(10.457 2.878)"><path class="p" d="M410.058,471.97c-4.093-13.254,10.7-22.819,8.371-38.267-1.029-6.817-5.035-12.4-9.961-16.883-23.29,7.145-40.279,29.762-40.22,56.519.072,32.439,25.172,58.675,56.064,58.6a53.48,53.48,0,0,0,21.374-4.5c-.954-18.747-6.7-29.337-12.819-35.717C423.44,481.887,413.178,482.076,410.058,471.97Z" transform="translate(-368.247 -416.82)"/></g><path class="q" d="M1338,1428.645a3.294,3.294,0,1,1-3.29-3.455A3.375,3.375,0,0,1,1338,1428.645Z" transform="translate(-1269.595 -1368.534)"/><path class="r" d="M1356.209,973.71a2.133,2.133,0,0,0-2.079,2.183v23.29a2.082,2.082,0,1,0,4.158,0v-23.29A2.133,2.133,0,0,0,1356.209,973.71Z" transform="translate(-1291.094 -941.132)"/><path class="s" d="M712.024,1288.468l-37.254-10.952a1.322,1.322,0,0,0-1.611.813,1.176,1.176,0,0,0,.766,1.539l37.253,10.952a1.322,1.322,0,0,0,1.612-.813A1.175,1.175,0,0,0,712.024,1288.468Z" transform="translate(-646.371 -1228.683)"/></g><g transform="translate(118.219 28.313)"><path class="t" d="M1917.673,530.913l-41.487,2.389c-2.242.129-3.986,2.548-3.986,5.407v12.661l-2.8,5.784,2.735.412,3.9.353,41.648,3.756a6.1,6.1,0,0,0,6.646-6.238V537.367A6.338,6.338,0,0,0,1917.673,530.913Z" transform="translate(-1867.936 -530.903)"/><path class="u" d="M1890.229,530.913l-41.517,2.389c-2.242.129-4.015,2.548-4.015,5.407v12.661l-2.757,5.784,2.757.412,3.906.353,41.626,3.756a6.079,6.079,0,0,0,6.625-6.238V537.367A6.316,6.316,0,0,0,1890.229,530.913Z" transform="translate(-1841.94 -530.903)"/><g class="v" transform="translate(6.679 7.923)"><path class="d" d="M1967.17,682.319l40.69-.3V679.47l-40.69.8Z" transform="translate(-1967.17 -679.47)"/><path class="d" d="M1967.17,771.371l40.69.679V769.5l-40.69-.178Z" transform="translate(-1967.17 -764.528)"/><path class="d" d="M2224.37,853.71l26.973,1.1v-2.552l-26.973-.764Z" transform="translate(-2210.653 -842.316)"/></g></g><g transform="translate(1.156 68.089)"><path class="w" d="M51.049,1283.312q-10.27-17.784-24.159,12.459c-10.816,23.549-3.826,49.748,21.2,56.938s64.1-7.33,51.834-17.562C73.9,1313.442,54.151,1294.2,51.049,1283.312Z" transform="translate(-21.969 -1276.727)"/><g class="x" transform="translate(15.458 1.335)"><path class="y" d="M312.541,1323c-.731,2.154-.9,8.291-.588,15.347.275,6.3-.3,9.586,9.719,14.165,3.433,1.57,5.807,6.55,11.063,9.512a35.223,35.223,0,0,0,22.953,4.239,33.942,33.942,0,0,0,17.228-8.567c-25.333-21.229-44.441-39.979-47.488-50.677q-3.753-6.493-9.788-4.956C317.1,1303.691,317.6,1308.086,312.541,1323Z" transform="translate(-311.805 -1301.765)"/></g><g class="z" transform="translate(0 12.883)"><path class="aa" d="M88.134,1574.225c-11.833,6.534-31.6,10.522-46.32-.413-13.633-10.126-14.848-27.084-15.3-32.259a50.286,50.286,0,0,1,3.52-23.273c-1.023,1.79-2.072,3.833-3.141,6.161-10.816,23.549-3.826,49.748,21.2,56.937,24.629,7.076,62.878-6.879,52.374-17.077A46.526,46.526,0,0,1,88.134,1574.225Z" transform="translate(-21.969 -1518.28)"/></g><path class="ab" d="M231.653,1441.922c-.35,0-.7,0-1.059-.012-9.139-.2-21.97-3.24-31.2-16.542-7.792-11.235-6.749-23.914-4.5-32.573a62.6,62.6,0,0,1,6.8-16.248.163.163,0,0,1,.274.176,62.214,62.214,0,0,0-6.766,16.163c-2.227,8.59-3.262,21.166,4.457,32.3,9.148,13.19,21.872,16.2,30.935,16.4a51.587,51.587,0,0,0,17.665-2.749.163.163,0,0,1,.117.3A51.894,51.894,0,0,1,231.653,1441.922Z" transform="translate(-184.13 -1371.153)"/><g transform="translate(18.925 11.091)"><g transform="translate(21.522 33.268)"><g transform="translate(53.36 15.589)"><path class="ac" d="M1817.054,2409.912c-.652-.7-1.821-3.724.31-4.345s3.334-1.415,6.286-3.781,3.709-.334-.459,3.508S1817.981,2410.911,1817.054,2409.912Z" transform="translate(-1814.261 -2400.774)"/><path class="ad" d="M1780.88,2459.039l1.755,1.533a1.1,1.1,0,0,0,1.312.1.715.715,0,0,0,.083-1.147l-2.566-2.2Z" transform="translate(-1780.88 -2454.314)"/></g><path class="ae" d="M781.131,2114.029c-3.1,2.717,3.373,11.628,13.716,8.74,12.534-3.5,28.475-1.927,39.221,6.822.623-.554,2.167-1.425,1.461-2.139-9.707-9.816-18.7-15.451-26.146-16.963C798.124,2108.2,789.963,2106.292,781.131,2114.029Z" transform="translate(-780.351 -2108.475)"/><g class="af"><path class="ag" d="M817.495,2117.761c1.818,1.058,2.206-1.092,3.144-2.5a35.472,35.472,0,0,0-11.255-4.767c-11.259-2.286-19.42-4.2-28.253,3.54-3.1,2.717,3.373,11.628,13.716,8.74a48.2,48.2,0,0,1,11.906-1.711C810.067,2118.975,812.777,2114.194,817.495,2117.761Z" transform="translate(-780.351 -2108.475)"/></g></g><g transform="translate(14.925 33.814)"><path class="ah" d="M662.214,2133l-.636.243a59.446,59.446,0,0,1-4.853-4.879c-.9-1.209,9.19-4.292,12.464-8.325q3.442-4.238.723,5.031Z" transform="translate(-656.669 -2118.706)"/></g><g transform="translate(0 9.069)"><path class="ai" d="M690.61,1671.34q3.657.5,7.665,7.61a29.8,29.8,0,0,0,9.559,9.774l.672,4.206-5.431.954-1.943-1.279-5.3-11.277Z" transform="translate(-673.874 -1670.454)"/><g transform="translate(0.434)"><path class="aj" d="M394.16,1655.157q-9.013,1.111-9.206,11.482c-.179,9.571,3.274,13.278,11.747,21.258a5.37,5.37,0,0,0,2.335.918q.826.931,1.672,1.944a38.942,38.942,0,0,1,16.133-9.741q-7.907-16.359-11.382-21.781C401.876,1653.646,396.473,1654.6,394.16,1655.157Z" transform="translate(-384.947 -1654.724)"/><g class="ak" transform="translate(0 9.98)"><path class="al" d="M409.123,1856.461c-3.8,2.036-9.2,1.805-11.18-.714a46.818,46.818,0,0,1-3.553-5.583c-1.462-2.4-2.174-2.781-5.37-4.8a16.08,16.08,0,0,1-3.917-3.516,16.135,16.135,0,0,0-.151,1.935c-.179,9.57,3.274,13.278,11.747,21.258a5.369,5.369,0,0,0,2.336.918q.825.931,1.672,1.944a38.936,38.936,0,0,1,16.133-9.741q-1.312-2.573-3.05-6.191A10.242,10.242,0,0,1,409.123,1856.461Z" transform="translate(-384.947 -1841.85)"/></g></g><path class="am" d="M721.74,2040.846a6.945,6.945,0,0,0,2.921-.41,6.6,6.6,0,0,1,2.51-.778c1.357-.173,4.03-.978,2.517-2.355-1.684-1.532-4.572-1.1-5.4-.085a5.856,5.856,0,0,1-2.186,1.6Z" transform="translate(-703.344 -2015.95)"/><path class="an" d="M379.973,1758.721q-5.006.583-2.084,16.7c1.515,8.36,9,7.183,18.045,3.729q.612-1.281-.175-3.995-11.234,4.632-11.525-2.125C383.908,1765.455,382.893,1757.921,379.973,1758.721Z" transform="translate(-376.812 -1753.119)"/><path class="ao" d="M517.907,1668.252a8.757,8.757,0,0,1-4.423-1.664.081.081,0,1,1,.1-.131c.029.021,2.89,2.108,5.206,1.529a1.849,1.849,0,0,0,1.305-.933,2.731,2.731,0,0,0-.062-2,.081.081,0,0,1,.149-.066,2.845,2.845,0,0,1,.059,2.141,2,2,0,0,1-1.412,1.019A3.763,3.763,0,0,1,517.907,1668.252Z" transform="translate(-506.164 -1664.39)"/><path class="ap" d="M655.284,2124.07a.081.081,0,0,1-.054-.142c.081-.073,8.149-7.295,15.433-9.076a.08.08,0,0,1,.1.06.081.081,0,0,1-.059.1c-7.244,1.771-15.282,8.966-15.363,9.039A.082.082,0,0,1,655.284,2124.07Z" transform="translate(-640.356 -2090.31)"/></g><g transform="translate(6.722 -8.065)"><path class="aq" d="M551.291,1587.7q.531,6.106.052,7.263c-.48,1.157,1.035,2.733,4.029,3.34q2.994.608.623-6.089Z" transform="translate(-550.451 -1577.851)"/><path class="ar" d="M552.311,1494.984c3.111-1.7,3.046-9.662,1.286-10.269-1.01-.348-1.508,2.107-4.841,3.529-2.6,1.106-4.443.534-5.389,2.06a4.118,4.118,0,0,0-.471,2.667,10.346,10.346,0,0,0,.775,2.208c.438,1.025.4.986.539,1.286a14.424,14.424,0,0,0,2.368,3.512,10.087,10.087,0,0,1,.81-1.546,8.858,8.858,0,0,1,1.452-1.735C550.2,1495.49,551.418,1495.471,552.311,1494.984Z" transform="translate(-542.845 -1484.681)"/><path class="as" d="M547.551,1577.527a4.847,4.847,0,0,0,4.349,3.153c2.851.271,4.282-5.99,2.7-7.622a3.607,3.607,0,0,0-2.727-.808c-.6.069-.838.278-1.828.372-.913.086-1.145-.051-1.446.129-.376.226-.728.869-.472,2.808a1.555,1.555,0,0,0-1.555-.8.979.979,0,0,0-.435.306C545.622,1575.721,546.134,1576.75,547.551,1577.527Z" transform="translate(-545.644 -1563.859)"/></g><g transform="translate(19.417 20.748)"><path class="at" d="M741.075,2120.875a.216.216,0,0,0-.179.149c0,.012.029.42.028.433a.205.205,0,0,0,.141.212l7.664,2.489,14.322-5.608-6.805.52Z" transform="translate(-740.895 -2105.492)"/><path class="au" d="M741.062,2112.8a.2.2,0,0,0-.034.4l7.664,2.489,14.322-5.609-6.805.521Z" transform="translate(-740.886 -2097.474)"/><path class="av" d="M880.89,1891.817l1.141-14.94a.518.518,0,0,1,.436-.472l17.152-2.685a.518.518,0,0,1,.6.536l-.644,13.925a.518.518,0,0,1-.423.485l-17.818,3.3Z" transform="translate(-873.423 -1873.714)"/><path class="at" d="M887.77,1896.541l1.177-15.269a.518.518,0,0,1,.436-.472l17.152-2.684a.518.518,0,0,1,.6.535l-.644,13.927a.517.517,0,0,1-.42.485Z" transform="translate(-879.936 -1877.875)"/><path class="aw" d="M887.77,2078.813l18.3-3.479a.517.517,0,0,0,.42-.484l.194-4.2c-5.451,3.1-12.282,3.489-18.648,4.73Z" transform="translate(-879.936 -2060.147)"/></g><g transform="translate(18.687 31.953)"><path class="ax" d="M1464.151,2105.984c-.25-.869-.8-1.828,1.171-2.529a26.094,26.094,0,0,1,6.183-.788c3.17-.162,3.9,1.734-.734,2.94C1467.738,2106.4,1464.507,2107.219,1464.151,2105.984Z" transform="translate(-1424.597 -2101.652)"/><path class="ay" d="M1487.435,2125.229a.842.842,0,0,1-.684.925c-.938.134-.762-.349-.792-.835s-.409-.823.684-.926A.812.812,0,0,1,1487.435,2125.229Z" transform="translate(-1445.411 -2122.227)"/><path class="az" d="M1334.73,2085.1l.926-.146a48.3,48.3,0,0,1,6.773,1.539c1.064.177,2.515,3.282-.6,3.4a14.642,14.642,0,0,0-6.912,2.443Z" transform="translate(-1302.329 -2084.889)"/><path class="ba" d="M727.239,2098.461q.454,4.03,9.823,3.663c9.369-.367,26.107-10.093,26-15.2s-6.334-3.065-12.783-.115c-5.443,2.49-13.851,3.932-15.574,4.2C732.5,2091.354,726.706,2096.526,727.239,2098.461Z" transform="translate(-727.204 -2083.808)"/><g class="ak" transform="translate(4.493 0.035)"><path class="bb" d="M819.25,2094.039c4.337-.442,5.311-3.554,10.708-4.454,3.5-.583,4.732.45,6.515-.744a6.521,6.521,0,0,0,2.471-4.37c-2.391.2-5.62,1.464-8.911,2.969-5.287,2.418-13.37,3.848-15.409,4.173q-.06.01-1.427-.479-1.018.582-1.747,1.041A15.829,15.829,0,0,0,819.25,2094.039Z" transform="translate(-811.45 -2084.47)"/></g></g></g></g></g></g></svg>