<svg xmlns="http://www.w3.org/2000/svg" xmlns:xlink="http://www.w3.org/1999/xlink" width="188.127" height="166.552" viewBox="0 0 188.127 166.552"><defs><style>.a{fill:#26264f;}.b{fill:url(#a);}.ab,.aj,.c{fill:#fff;}.ad,.c,.l,.q{opacity:0.302;isolation:isolate;}.c{mix-blend-mode:soft-light;}.d{fill:url(#b);}.e{fill:url(#c);}.f{fill:url(#d);}.g{fill:url(#e);}.h{fill:url(#f);}.i{fill:url(#g);}.j{fill:url(#h);}.k,.l{fill:url(#i);}.ad,.l,.q{mix-blend-mode:multiply;}.m{fill:url(#k);}.n{fill:url(#l);}.o{fill:url(#m);}.p{fill:url(#n);}.q{fill:url(#o);}.r{fill:url(#p);}.s{fill:url(#q);}.t{fill:url(#r);}.u{fill:url(#s);}.v{fill:url(#t);}.w{fill:url(#u);}.x{fill:url(#v);}.y{fill:url(#w);}.z{fill:url(#x);}.aa{fill:url(#y);}.ac{fill:url(#z);}.ad{fill:url(#aa);}.ae{fill:#f4f7fa;}.af{fill:url(#ab);}.ag{fill:url(#ac);}.ah{fill:url(#ad);}.ai{fill:url(#ae);}.aj{fill-rule:evenodd;}</style><linearGradient id="a" x1="2.013" y1="-1.816" x2="-0.463" y2="3.756" gradientUnits="objectBoundingBox"><stop offset="0" stop-color="#ffc444"/><stop offset="0.996" stop-color="#f36f56"/></linearGradient><linearGradient id="b" x1="0.947" y1="0.737" x2="0.199" y2="1.974" gradientUnits="objectBoundingBox"><stop offset="0.004" stop-color="#e38ddd"/><stop offset="1" stop-color="#9571f6"/></linearGradient><linearGradient id="c" x1="1.931" y1="0.009" x2="0.899" y2="0.864" gradientUnits="objectBoundingBox"><stop offset="0" stop-color="#ff9085"/><stop offset="1" stop-color="#fb6fbb"/></linearGradient><linearGradient id="d" x1="1.375" y1="-1.644" x2="0.394" y2="3.607" gradientUnits="objectBoundingBox"><stop offset="0" stop-color="#aa80f9"/><stop offset="0.996" stop-color="#6165d7"/></linearGradient><linearGradient id="e" x1="0.026" y1="-0.038" x2="1" y2="-0.038" gradientUnits="objectBoundingBox"><stop offset="0" stop-color="#40447e"/><stop offset="0.996" stop-color="#3c3b6b"/></linearGradient><linearGradient id="f" x1="0.034" y1="-0.02" x2="0.975" y2="-0.02" xlink:href="#e"/><linearGradient id="g" x1="1.194" y1="0.722" x2="1.864" y2="2.653" gradientUnits="objectBoundingBox"><stop offset="0" stop-color="#311944"/><stop offset="1" stop-color="#a03976"/></linearGradient><linearGradient id="h" x1="1.56" y1="-2.234" x2="0.026" y2="5.481" xlink:href="#g"/><linearGradient id="i" x1="0.471" y1="1.191" x2="-0.311" y2="0.827" gradientUnits="objectBoundingBox"><stop offset="0" stop-color="#ab316d"/><stop offset="1" stop-color="#792d3d"/></linearGradient><linearGradient id="k" x1="0.592" y1="1.076" x2="-0.065" y2="0.606" xlink:href="#i"/><linearGradient id="l" x1="1.251" y1="0.147" x2="0.914" y2="1.016" xlink:href="#a"/><linearGradient id="m" x1="0.595" y1="1.674" x2="0.064" y2="1.012" xlink:href="#g"/><linearGradient id="n" x1="1.081" y1="0.368" x2="0.812" y2="1.623" xlink:href="#a"/><linearGradient id="o" x1="1.316" y1="-0.178" x2="0.935" y2="1.011" xlink:href="#a"/><linearGradient id="p" x1="-0.145" y1="1.279" x2="0.983" y2="-1.215" xlink:href="#g"/><linearGradient id="q" x1="-0.94" y1="1.746" x2="0.685" y2="-0.407" xlink:href="#g"/><linearGradient id="r" x1="-5.178" y1="5.894" x2="2.973" y2="-2.956" xlink:href="#g"/><linearGradient id="s" x1="0.926" y1="-3.432" x2="1.148" y2="6.029" gradientUnits="objectBoundingBox"><stop offset="0" stop-color="#444b8c"/><stop offset="0.996" stop-color="#26264f"/></linearGradient><linearGradient id="t" x1="-0.021" y1="1.74" x2="-0.351" y2="-8.239" xlink:href="#a"/><linearGradient id="u" x1="0.87" y1="-1.037" x2="1.134" y2="2.378" xlink:href="#s"/><linearGradient id="v" x1="0.012" y1="1.249" x2="-0.163" y2="-3.73" xlink:href="#a"/><linearGradient id="w" x1="-1.09" y1="0.425" x2="-0.175" y2="0.098" xlink:href="#d"/><linearGradient id="x" x1="0.912" y1="0.172" x2="2.444" y2="5.81" xlink:href="#a"/><linearGradient id="y" x1="-0.962" y1="0.368" x2="0.656" y2="-0.258" xlink:href="#d"/><linearGradient id="z" x1="0.241" y1="0.886" x2="0.029" y2="0.648" xlink:href="#s"/><linearGradient id="aa" x1="-1.231" y1="0.448" x2="-0.131" y2="0.166" xlink:href="#d"/><linearGradient id="ab" x1="0.122" y1="0.473" x2="0.747" y2="-1.124" xlink:href="#a"/><linearGradient id="ac" x1="0.029" y1="0.088" x2="3.173" y2="-1.589" xlink:href="#a"/><linearGradient id="ad" x1="0.886" y1="0.229" x2="1.759" y2="5.982" xlink:href="#a"/><linearGradient id="ae" x1="0.567" y1="-0.295" x2="1.984" y2="1.601" xlink:href="#d"/></defs><g transform="translate(-11.098 -31.29)"><g transform="translate(11.098 31.29)"><path class="a" d="M1594.229,1670.6c1.5,1.2,3.961,2.313,7.886,2.111,8.009-.41,14.187-12.7,4.755-18.134q-9.536-5.5-15.355,2V1633.87l-19.054.544a2.875,2.875,0,0,0-2.151,4.432c6.079,9.257-.926,18.309-6.579,18.887-6.564.671-13.177-2.874-12.546-10.958a24.526,24.526,0,0,1,2.158-8.4,2.745,2.745,0,0,0-2.388-4l-22.644.639v20.163a1.906,1.906,0,0,0,2.846,1.752,14.86,14.86,0,0,1,8.5-1.891c7.646.455,11.989,6.959,9.222,12.5-5.336,10.676-12.365,8.226-16.343,5.54a2.051,2.051,0,0,0-3.078,1.874v23.236l62.689-3.97v-22.393A1.337,1.337,0,0,1,1594.229,1670.6Z" transform="translate(-1428.408 -1550.535)"/><path class="a" d="M411.428,1406.427c3.978,2.686,11.007,5.135,16.343-5.54,2.767-5.537-1.576-12.042-9.222-12.5a14.857,14.857,0,0,0-8.5,1.891,1.906,1.906,0,0,1-2.846-1.752v-20.163l-21.435.6a2.837,2.837,0,0,1-2.421-4.292c7.439-13.527-4.592-19-7.63-18.718-3.361.311-13.858,2.395-13.858,10.415a19.634,19.634,0,0,0,2.193,8.925,3.019,3.019,0,0,1-2.527,4.4l-19.391.547v19.973a3.327,3.327,0,0,1-4.317,3.2,26.537,26.537,0,0,0-11.713-1.456c-8.532,1.051-10.676,13.156-5.679,19.053,3.673,4.334,10.437.732,15.532-2.063a3.05,3.05,0,0,1,4.57,2.688v24.193l1.152,1.153,66.676-5.447V1408.3A2.051,2.051,0,0,1,411.428,1406.427Z" transform="translate(-307.296 -1283.887)"/><path class="a" d="M1524.759,551.06a12.034,12.034,0,0,1,10.326-1.431c8.9,2.471,8.425,11.044,6.683,15.27-1.47,3.566-10.194,7.87-16.392,3.228a2,2,0,0,0-3.16,1.709v20.529l22.644-.639a2.745,2.745,0,0,1,2.387,4,24.512,24.512,0,0,0-2.158,8.4c-.632,8.084,5.981,11.629,12.546,10.958,5.653-.578,12.658-9.629,6.579-18.887a2.875,2.875,0,0,1,2.151-4.433l19.054-.544,1.152-23.134-1.152-1.152c-5.858,7.659-14.495,5.837-17.875-1.729-3.393-7.595-.615-14.585,7.054-15.286a10.1,10.1,0,0,1,8.162,2.66,1.3,1.3,0,0,0,2.162-1.065v-19.6l-18.718-.1a2.73,2.73,0,0,1-2.015-4.346,10.273,10.273,0,0,0,2.123-5.705c.308-6.631-4.328-13.021-10.547-13.8-6.264-.789-12.889,5.471-11.939,11.871a28.566,28.566,0,0,0,2.662,8.112,2.72,2.72,0,0,1-2.284,3.987l-22.473-.122v19.519A1.963,1.963,0,0,0,1524.759,551.06Z" transform="translate(-1422.314 -505.886)"/><path class="b" d="M1609.828,1686.188c1.5,1.2,3.961,2.312,7.885,2.111,8.009-.41,14.187-12.7,4.755-18.134q-9.536-5.5-15.355,2V1649.46l-19.055.544a2.875,2.875,0,0,0-2.15,4.432c6.078,9.258-.926,18.309-6.58,18.887-6.563.671-13.176-2.874-12.545-10.958a24.511,24.511,0,0,1,2.157-8.4,2.744,2.744,0,0,0-2.387-4l-22.644.638v20.164a1.905,1.905,0,0,0,2.846,1.752,14.854,14.854,0,0,1,8.5-1.891c7.646.455,11.989,6.959,9.222,12.5-5.336,10.677-12.365,8.227-16.344,5.541a2.05,2.05,0,0,0-3.077,1.874v23.236l62.688-3.97v-22.394A1.337,1.337,0,0,1,1609.828,1686.188Z" transform="translate(-1442.856 -1564.974)"/><path class="c" d="M1583.938,1748.134v-18.477a13.316,13.316,0,0,0,7.224,1.864c3.3-.174,8.022-1.972,11.794-9.534a10.853,10.853,0,0,0-.033-9.892c-2.056-4.014-6.307-6.6-11.391-6.911-.67-.042-1.34-.049-1.993-.024a17.479,17.479,0,0,0-6.75,1.583v-15.651l19.542-.583a27.7,27.7,0,0,0-2.341,9.261,12.812,12.812,0,0,0,3.019,9.819,14.287,14.287,0,0,0,11.4,4.317c.359-.016.723-.042,1.083-.079,4.061-.422,8.144-3.766,10.173-8.315a15.693,15.693,0,0,0-1.333-15.015l16.1-.487v27.861l4.692-6.311a8.761,8.761,0,0,1,6.089-2.944,11.112,11.112,0,0,1,5.967,1.676c2.785,1.6,3.913,3.887,3.27,6.617-.67,2.841-3.368,5.882-6.734,6.048a9.142,9.142,0,0,1-6.243-1.588,3.547,3.547,0,0,0-2.421-.8,4.428,4.428,0,0,0-3.98,4.529v19.511Z" transform="translate(-1478.863 -1602.527)"/><path class="d" d="M427.021,1422.018c3.979,2.686,11.008,5.135,16.344-5.541,2.767-5.537-1.577-12.041-9.222-12.5a14.851,14.851,0,0,0-8.5,1.891,1.906,1.906,0,0,1-2.846-1.752v-20.164l-21.435.605a2.837,2.837,0,0,1-2.42-4.292c7.438-13.526-4.593-19-7.63-18.718-3.361.311-13.858,2.4-13.858,10.415a19.646,19.646,0,0,0,2.193,8.927,3.019,3.019,0,0,1-2.527,4.4l-19.39.547v19.973a3.326,3.326,0,0,1-4.318,3.2,26.533,26.533,0,0,0-11.712-1.456c-8.531,1.051-10.677,13.157-5.68,19.053,3.673,4.334,10.438.732,15.533-2.062a3.05,3.05,0,0,1,4.57,2.688v24.193l67.829-4.3v-23.236A2.051,2.051,0,0,1,427.021,1422.018Z" transform="translate(-321.737 -1298.326)"/><path class="c" d="M398.8,1486.625V1465.6a5.979,5.979,0,0,0-6.274-6.07,6.355,6.355,0,0,0-2.765.787c-2.714,1.483-6.442,3.521-9.17,3.654a2.761,2.761,0,0,1-2.535-.96c-2.057-2.433-2.547-6.616-1.162-9.938a5.834,5.834,0,0,1,4.654-3.862c.493-.062,1-.1,1.509-.125a24.763,24.763,0,0,1,8.833,1.421,6.073,6.073,0,0,0,2.247.328,6.649,6.649,0,0,0,6.265-6.62V1427.4l16.307-.488a5.994,5.994,0,0,0,5.008-3.025,6.191,6.191,0,0,0,.2-5.955,16.418,16.418,0,0,1-1.851-7.5c0-6.049,10.5-7.233,11.04-7.288a8.865,8.865,0,0,1,5.995,4.158c1.476,2.62,1.1,5.991-1.127,10.029a6.09,6.09,0,0,0,0,5.979,5.472,5.472,0,0,0,4.984,2.837l18.553-.554v17.171a4.994,4.994,0,0,0,1.471,3.6,4.517,4.517,0,0,0,3.383,1.314,4.76,4.76,0,0,0,2.189-.655,11.643,11.643,0,0,1,5.461-1.53c.476-.019.969-.015,1.463.013,3.141.182,5.8,1.69,6.958,3.935a4.55,4.55,0,0,1,.055,4.25c-1.979,3.952-4.284,6.024-6.852,6.15a9.4,9.4,0,0,1-5.393-1.858,4.441,4.441,0,0,0-2.72-.765,5.3,5.3,0,0,0-4.858,5.344v20.25Z" transform="translate(-361.33 -1336.851)"/><path class="e" d="M1540.358,566.659a12.035,12.035,0,0,1,10.326-1.43c8.9,2.47,8.425,11.043,6.682,15.27-1.469,3.566-10.193,7.87-16.392,3.227a2,2,0,0,0-3.159,1.71v20.529l22.644-.638a2.744,2.744,0,0,1,2.387,4,24.51,24.51,0,0,0-2.157,8.4c-.632,8.085,5.981,11.629,12.545,10.958,5.654-.579,12.658-9.63,6.58-18.887a2.874,2.874,0,0,1,2.15-4.432l19.055-.544V580.535c-5.859,7.659-14.494,5.837-17.875-1.728-3.394-7.6-.616-14.586,7.054-15.286a10.1,10.1,0,0,1,8.162,2.66,1.3,1.3,0,0,0,2.162-1.066v-19.6l-18.719-.1a2.73,2.73,0,0,1-2.014-4.347,10.283,10.283,0,0,0,2.122-5.7c.308-6.631-4.328-13.021-10.547-13.8-6.264-.789-12.888,5.471-11.939,11.87a28.542,28.542,0,0,0,2.661,8.112,2.72,2.72,0,0,1-2.285,3.988l-22.473-.122v19.519A1.963,1.963,0,0,0,1540.358,566.659Z" transform="translate(-1436.762 -520.334)"/><path class="c" d="M1608.334,662.973a9.272,9.272,0,0,1-7.282-2.589,6.879,6.879,0,0,1-1.546-5.325,21.26,21.26,0,0,1,1.867-7.293,6.047,6.047,0,0,0-.241-5.609,5.2,5.2,0,0,0-4.646-2.629l-19.772.525V624.29a13.189,13.189,0,0,0,6.738,1.651c5.345-.1,10.947-3.284,12.514-7.092a16.222,16.222,0,0,0,.049-12.378,12.629,12.629,0,0,0-8.571-6.956,17,17,0,0,0-4.617-.651,14.162,14.162,0,0,0-6.6,1.618V585.618l19.6.074a5.249,5.249,0,0,0,4.6-2.733,5.985,5.985,0,0,0,.167-5.6,25.34,25.34,0,0,1-2.371-7.186,6.918,6.918,0,0,1,1.683-5.2,8.637,8.637,0,0,1,6.57-3.339,6.142,6.142,0,0,1,.64.044c4.635.576,8.327,5.466,8.084,10.682a7.262,7.262,0,0,1-1.534,4.027,5.859,5.859,0,0,0-.6,5.9,5.271,5.271,0,0,0,4.767,3.249l16.034.062v13.833a12.717,12.717,0,0,0-6.537-1.714c-.431,0-.875.022-1.319.061a11.537,11.537,0,0,0-9.556,5.964c-2.009,3.764-1.918,8.708.248,13.549,2.328,5.2,6.852,8.366,11.788,8.272a12.023,12.023,0,0,0,5.875-1.71v15.3l-16.372.44a5.492,5.492,0,0,0-4.744,3.218,6.039,6.039,0,0,0,.333,5.911c2.6,3.948,2.025,7.273,1.086,9.369-1.3,2.895-3.83,4.643-5.561,4.816C1608.849,662.944,1608.589,662.963,1608.334,662.973Z" transform="translate(-1472.788 -557.518)"/><g transform="translate(4.709 23.645)"><path class="a" d="M250.87,864.466a18.747,18.747,0,0,1,4.764-3.614c10.735-5.608,13.8,9.229,9.816,16.927-2.04,3.938-5.876,4.15-9.16,3.4a3.226,3.226,0,0,0-3.75,4.165l6.317,19.739,18.3-6.432a3.018,3.018,0,0,0,1.067-4.958,19.646,19.646,0,0,1-4.809-7.833c-2.444-7.638,6.918-12.823,10.025-14.143,2.807-1.193,15.934.352,12.972,15.5a2.837,2.837,0,0,0,3.614,3.35l20.23-7.109L314,863.911a2,2,0,0,1,2.488-2.591c7.318,2.532,14.315-4.226,14.627-8.071.372-4.556-1.79-12.866-11.018-12.506a12.034,12.034,0,0,0-9.4,4.51,1.963,1.963,0,0,1-3.415-.733l-5.949-18.59-21.056,6.613a2.805,2.805,0,0,0-.782,4.873c2.521,2,5.406,4.478,6.469,6.093,2.032,3.09,2.372,10.673-5.2,14.362-7.638,3.722-15.2.112-17.2-7.242a24.6,24.6,0,0,1-.79-8.473,2.856,2.856,0,0,0-3.663-2.968l-19.3,6.06,5.746,17.954A3.162,3.162,0,0,0,250.87,864.466Z" transform="translate(-239.82 -825.93)"/><path class="f" d="M270.471,874.566a18.714,18.714,0,0,1,4.764-3.614c10.735-5.608,13.8,9.229,9.816,16.927-2.04,3.938-5.876,4.15-9.16,3.4a3.226,3.226,0,0,0-3.75,4.166l6.317,19.738,18.3-6.432a3.018,3.018,0,0,0,1.067-4.958,19.644,19.644,0,0,1-4.809-7.833c-2.445-7.638,6.918-12.822,10.024-14.143,2.807-1.193,15.934.352,12.972,15.5a2.836,2.836,0,0,0,3.613,3.349l20.231-7.109L333.6,874.012a2,2,0,0,1,2.488-2.591c7.318,2.532,14.315-4.226,14.628-8.071.372-4.556-1.79-12.866-11.019-12.506a12.033,12.033,0,0,0-9.4,4.51,1.963,1.963,0,0,1-3.415-.733l-5.95-18.59-21.056,6.613a2.8,2.8,0,0,0-.782,4.873c2.521,2,5.406,4.478,6.469,6.093,2.032,3.091,2.371,10.673-5.2,14.362-7.638,3.722-15.2.112-17.2-7.242a24.581,24.581,0,0,1-.79-8.473,2.857,2.857,0,0,0-3.663-2.968l-19.3,6.06,5.746,17.954A3.162,3.162,0,0,0,270.471,874.566Z" transform="translate(-257.972 -835.284)"/><path class="c" d="M329.231,958.143l-5.354-16.731a.146.146,0,0,1-.01-.045.14.14,0,0,1,.078-.073.145.145,0,0,1,.086,0,12.9,12.9,0,0,0,7.031-.151,9.628,9.628,0,0,0,5.479-4.853c2.951-5.714,2.587-14.068-.706-18.747q.134.079.271.154a14.91,14.91,0,0,0,12.059.95h0a18.6,18.6,0,0,0,2.315-.948,13.68,13.68,0,0,0,7.676-9.024,12.812,12.812,0,0,0-1.348-9.785c-.384-.584-1.534-2.335-6.748-6.52l17.86-5.642,5.036,15.739a5.144,5.144,0,0,0,2.544,3.045,4.65,4.65,0,0,0,5.846-1.258,8.736,8.736,0,0,1,4.216-2.931,11.6,11.6,0,0,1,3.134-.539,7.144,7.144,0,0,1,5.879,2.089,10.012,10.012,0,0,1,2.14,7.1c-.085,1.04-2.278,4.253-5.969,5.5a7.547,7.547,0,0,1-4.991.04,4.626,4.626,0,0,0-3.018-.027,5.077,5.077,0,0,0-3.055,6.4l5.345,16.7-17.274,6.037c1.543-8.314-1.253-12.97-3.892-15.426-4.148-3.86-10.067-4.328-12.768-3.422-.137.046-.265.095-.385.146-5.692,2.409-14.639,8.935-11.746,17.975a22.536,22.536,0,0,0,5.428,8.94Zm-12.194-38.776a.1.1,0,0,1-.123-.063l-4.784-14.949,16.017-5.06a27.685,27.685,0,0,0,.918,9.179,15.531,15.531,0,0,0,3.02,5.884,9.618,9.618,0,0,0-7.071-.228,15.571,15.571,0,0,0-2.374,1.005,21.7,21.7,0,0,0-5.553,4.193A.155.155,0,0,1,317.037,919.366Z" transform="translate(-306.788 -882.238)"/></g><g transform="translate(0 52.319)"><path class="g" d="M274.472,2709.15c-1.081,1.091-1.519,2.262-1.127,2.948.272.475.872.6,1.529.725a8.926,8.926,0,0,0,4.345-.484c2.077-.586,3.3-.931,3.3-1.43,0-.467-1.067-.83-2-1.148a11.735,11.735,0,0,0-3.286-.611Z" transform="translate(-266.028 -2598.693)"/><path class="h" d="M711.07,2469.681a2.081,2.081,0,0,0-1.278,1.193c-.262.967.771,1.966,2.425,3.524,1.24,1.168,2.917,2.747,3.5,2.348.358-.243.146-1.12-.05-1.937a10.908,10.908,0,0,0-2.055-4.168S712.765,2470.32,711.07,2469.681Z" transform="translate(-670.324 -2376.916)"/><path class="i" d="M291.744,2676.61l-2.327,2.58a.482.482,0,0,0,.225.787,3.567,3.567,0,0,0,1.872.073.894.894,0,0,0,.376-.231l2.322-2.267Z" transform="translate(-280.928 -2568.558)"/><path class="j" d="M728.152,2448.59,726.9,2450.4a.523.523,0,0,0,.18.758,4.482,4.482,0,0,0,.621.286.944.944,0,0,0,1.03-.256l1.361-1.532Z" transform="translate(-686.117 -2357.384)"/><path class="k" d="M299.432,1879.369a43.876,43.876,0,0,1,3.5,10.585,47.439,47.439,0,0,1-1.605,22.9,48.946,48.946,0,0,1-13.119,20.638,8.87,8.87,0,0,0,5.406,2.1,54.991,54.991,0,0,0,17.516-20.163c7.63-15.256,5.715-30.231,2.38-36.565a7.055,7.055,0,0,0-3.733-3.707C305.282,1873.543,300.068,1878.723,299.432,1879.369Z" transform="translate(-279.926 -1826.024)"/><path class="l" d="M313.512,1878.858a7.055,7.055,0,0,0-3.733-3.707c-4.5-1.608-9.712,3.572-10.347,4.218a43.934,43.934,0,0,1,3.462,10.4c3.142.739,7.531,2.491,9.67,6.632,3.46,6.7-1.515,14.729-2.547,16.4-2.273,3.666-3.648,3.323-7,8.595-2.535,3.982-2.728,5.717-4.934,7.641a13.809,13.809,0,0,1-8.449,3.07c-.513.521-.991.985-1.421,1.387a8.87,8.87,0,0,0,5.406,2.1,54.991,54.991,0,0,0,17.516-20.163C318.761,1900.168,316.847,1885.193,313.512,1878.858Z" transform="translate(-279.926 -1826.024)"/><path class="m" d="M518.75,1847.442a17.771,17.771,0,0,0,3.1,4.457c4.032,4.2,7.8,3.807,12.075,7.271a18.406,18.406,0,0,1,5.707,8.142c2.69,8.812-5.127,17.5-5.992,18.437a9.4,9.4,0,0,0,4.765,2.365c11.207-10.24,16.683-22.649,12.954-30.712-2.035-4.4-6.85-7.6-10.407-9.958a46.411,46.411,0,0,0-14.98-6.472Z" transform="translate(-493.434 -1794.654)"/><path class="n" d="M208.079,1409.264c.169,4.955-.98,7.525.629,11.569a15.846,15.846,0,0,0,4.525,6.145,19.286,19.286,0,0,1-17.358,10.408,38.858,38.858,0,0,1-14.042-12.075c-3.1-4.4-6.51-9.235-5.609-15.4,1.145-7.827,8.4-12.008,10.454-13.193,1.353-.78,10.7-6.169,16.413-2.208C207.686,1397.7,207.953,1405.558,208.079,1409.264Z" transform="translate(-176.078 -1379.849)"/><path class="o" d="M1031.563,1638.441a3.422,3.422,0,0,1,1.05-1.712c.38-.384.457-.323.7-.636.624-.79.473-1.6.713-1.632.208-.024.575.564.55,1.17-.028.679-.524.881-.43,1.257.131.529,1.307.913,2.348.716,1.207-.228,1.8-1.2,2.268-.954.343.179.321.819.319.875-.053,1.2-1.658,2.461-3.224,2.626-.9.094-1.239-.232-2.308.04-.709.18-.957.424-1.314.279C1031.657,1640.231,1031.421,1639.206,1031.563,1638.441Z" transform="translate(-968.323 -1603.401)"/><path class="p" d="M472.759,1416.107c-9.651.668-15.414-1.842-18.889-4.245-7.882-5.451-9.429-14.117-18.57-16.448-1.667-.425-4.571-1.166-6.155.318-3.292,3.083.59,14.384,7.428,21.33a27.615,27.615,0,0,0,15.931,8.11c11.509,1.552,19.765-4.942,21.189-6.1a1.821,1.821,0,0,0,.355-1.844A1.9,1.9,0,0,0,472.759,1416.107Z" transform="translate(-409.346 -1381.492)"/><path class="q" d="M191.737,1555.605c-2.717-2.574-1.431-4.169-4.776-9.338-3.407-5.266-5.859-5.364-7.428-8.914a12.652,12.652,0,0,1-.418-8.263,14.965,14.965,0,0,0-2.891,6.792c-.9,6.161,2.506,10.994,5.609,15.4a38.858,38.858,0,0,0,14.042,12.075,19.552,19.552,0,0,0,10.841-3.176,19.169,19.169,0,0,0,4.017-3.542,17.92,17.92,0,0,1-4.883,1.836C204.945,1558.666,196.718,1560.323,191.737,1555.605Z" transform="translate(-176.078 -1505.816)"/><path class="r" d="M302.085,1362.855l-1.164,3.933a6.316,6.316,0,0,1-2.161,3.179l-3.09,2.419q9.424-1.582,13.93-5.973l-2.752-.867a.7.7,0,0,1-.486-.663v-2.892Z" transform="translate(-290.796 -1351.437)"/><g transform="translate(7.098 -5.635)"><g transform="translate(0.001)"><path class="s" d="M351.717,1293.964c.449-.1,3.7.434,4.626-1.13,1.256-2.123.007-5.514-.119-6.038-.529-2.194-.724-2.526-1.131-2.99l-.577-.609c-.023-.018-.048-.035-.073-.053a8.284,8.284,0,0,0-2.218-.739c-1.031-.051-3.128,3.645-4.33,9.341-.1.2-.194.408-.289.616C347.356,1292.9,351.688,1294.172,351.717,1293.964Z" transform="translate(-344.137 -1274.927)"/><path class="a" d="M328.815,1221.271a6.773,6.773,0,0,1-2.283,3.566,2.97,2.97,0,0,0-.814.52.894.894,0,0,0-.154.18c-.674,1,.727,2.75.258,3.152-.338.291-1.4-.5-1.619-.231-.21.254.615,1.116.372,1.422-.184.231-.727-.169-1.216.129-.244.149-.23.322-.594.878a5.748,5.748,0,0,1-.647.827c-.874.862-2.676.781-2.9.285-.061-.138.043-.214.051-.62a2.875,2.875,0,0,0-.129-.854,8.23,8.23,0,0,0-1.629-2.171,5.838,5.838,0,0,1-1.5-3.023c-.014-.13-.02-.227-.023-.3a6.7,6.7,0,0,1,1.314-4.282c1.484-1.684,3.417-.181,5.714-1.63,2.649-1.67,2.232-5.03,3.439-5.067C327.792,1214.017,329.683,1218.055,328.815,1221.271Z" transform="translate(-315.989 -1214.058)"/><path class="t" d="M389.6,1339.441c-.27-.7-1.166-.349-1.373.408a1.432,1.432,0,0,0,1.071,1.781C390.048,1341.671,389.961,1340.382,389.6,1339.441Z" transform="translate(-380.28 -1325.385)"/></g></g></g><g transform="translate(99.416 44.513)"><path class="u" d="M1989.4,2638.521a6.315,6.315,0,0,1,.059,1.9c-.121.476-4.257.821-5.661.655s.836-1.6,1.731-1.87A33.14,33.14,0,0,1,1989.4,2638.521Z" transform="translate(-1949.247 -2525.476)"/><path class="v" d="M2037.11,2604.788l.436,2.855q1.111.5,1.646.006l.059-2.988Z" transform="translate(-1999.034 -2494.117)"/><path class="w" d="M2344.086,2602a1.279,1.279,0,0,0-.644,1.432,13.711,13.711,0,0,0,3.742,4.793c1.459.887,1-.961.578-2.112a22.254,22.254,0,0,0-1.934-4.113Q2345.4,2601.576,2344.086,2602Z" transform="translate(-2282.69 -2491.458)"/><path class="x" d="M2331.4,2562.22c.424,1.182.833,2.155,1.152,2.872a10.246,10.246,0,0,0,1.529,2.7c.381.45,1.284,1.409,1.526,1.25s-.414-1.329-1.687-4.745q-.185-.5-.769-2.075Z" transform="translate(-2271.582 -2454.813)"/><path class="y" d="M1915.083,1892.218a73.906,73.906,0,0,0-.159,13.188c.566,7.3,2.025,11.913,3.854,19.693,1.119,4.754,2.625,11.752,3.989,20.5a3.847,3.847,0,0,0,2.446.479,3.72,3.72,0,0,0,1.469-.557c3.577-10.931,2.521-17.705.794-21.926a23.631,23.631,0,0,1-2.1-5.983c-.631-3.659.149-5.7,1.262-14.179.793-6.041.656-6.974.128-7.88C1924.651,1891.933,1918.2,1892,1915.083,1892.218Z" transform="translate(-1885.671 -1834.233)"/><path class="z" d="M1528.9,1431.115a4.048,4.048,0,0,0-1.338-2.49c-.835-.52-2.016-1.075-2.286-1.3s-.587.454.193.976l.779.522a.769.769,0,0,1-.032.335,1.173,1.173,0,0,1-1.065.671,8.52,8.52,0,0,1-3.088.35c-.045-.013-.219-.07-.293.007-.117.124.094.517.185.656.541.827,2.421,1.186,3.827.539.514-.236.71-.489,1.085-.426.6.1.961.887,1.178,1.537Z" transform="translate(-1521.731 -1403.719)"/><path class="aa" d="M2086.51,1910.47c2.191,11.317,4.342,17.261,5.969,20.624a56.252,56.252,0,0,1,3.007,7.339,59.762,59.762,0,0,1,1.827,6.991c.756,3.469,2.623,8.534,7.647,15.178a1.909,1.909,0,0,0,1.739.089,1.679,1.679,0,0,0,.7-.73c-.656-6.352-1.41-11.689-2.065-15.809-.138-.864-.743-4.644-1.691-9.638-.371-1.954-.915-4.818-1.566-7.76-.811-3.662-2.055-8.645-3.972-14.616Z" transform="translate(-2044.785 -1851.214)"/><path class="ab" d="M1596.87,1279.83l1.709-1.52a8.623,8.623,0,0,0,7.5,2.279c2.928-.619,4.616-3.023,5.7-4.558,3.248-4.608,1.306-7.991,4.8-11.123.971-.87,2.877-1.922,4.122-1.6,2.968.765,4.677,9.691,1.8,16.711-.58,1.417-3.772,9.219-11.015,10.065C1605.645,1290.767,1599.445,1286.648,1596.87,1279.83Z" transform="translate(-1591.319 -1251.809)"/><path class="ac" d="M1991.675,1123.5c-1.3-1.2-3.772-2.577-5.015-5.785-.374-.965-1.7-4.387.256-7a5.59,5.59,0,0,1,5.215-2.235c1.624.32,1.877,1.45,4.635,3.725a19.491,19.491,0,0,0,4.72,3.1c3.291,1.356,5.268.08,8.571.225,4.058.179,8.773,2.444,11.045,5.738,4.032,5.846-1.809,11.777,2.608,18.625,1.447,2.244,2.16,1.74,5.587,6.084s5.148,6.524,4.842,9.189c-.424,3.7-4.407,7.231-8.158,7.471-3.664.235-5.993-2.648-7.859-1.387-1.328.9-.569,2.643-1.979,4.74-1.817,2.7-5.39,3.243-5.967,3.33-5.356.808-12.577-5.472-15.645-12.913C1989,1142.986,1998.715,1130.008,1991.675,1123.5Z" transform="translate(-1952.062 -1111.264)"/><path class="ad" d="M1978.661,1926.371a23.639,23.639,0,0,1-2.1-5.983c-.631-3.659.149-5.7,1.262-14.179.793-6.041.656-6.974.128-7.88-1.146-1.968-3.575-2.841-6.054-3.2.033.127.066.254.094.378,1.3,5.939-3.664,9.564-1.425,16.094,1.1,3.219,2.865,3.956,3.276,7.691.384,3.5-1.01,4.227-.712,7.406.445,4.753,3.822,5.9,4.7,9.543.571,2.365.09,5.823-4.08,10.829.07.431.139.864.208,1.3a3.847,3.847,0,0,0,2.445.479,3.722,3.722,0,0,0,1.469-.558C1981.444,1937.365,1980.388,1930.592,1978.661,1926.371Z" transform="translate(-1936.857 -1837.007)"/><path class="ae" d="M1620.039,1355.456c-5.353,4.228-4.757,12.336-8.048,12.747-1,.125-.949-.645-3.347-1.424-3.506-1.14-5.154.012-7.62-.854a7.648,7.648,0,0,1-3.659-2.933l-.495.44c2.575,6.818,8.775,10.937,14.622,10.255,7.243-.845,10.435-8.647,11.015-10.065a21.492,21.492,0,0,0,1.361-10.1A11.16,11.16,0,0,0,1620.039,1355.456Z" transform="translate(-1591.319 -1335.411)"/><path class="ab" d="M1849.723,1245.389c.328-.509,1.371-1.921,5.8-2.961a25.471,25.471,0,0,1,11.6-.3,25.9,25.9,0,0,1,13.461,7.713,18.16,18.16,0,0,0-7.132,8.913c-.592,1.632-2.339,7.209.161,12.433,1.44,3.01,3.987,5.27,5.922,6.987,2.9,2.574,4.405,2.97,5.378,5.277,1.06,2.512-.008,3.736,1.307,5.456,1.413,1.846,3.069.988,5.464,2.855,2.453,1.913,1.581,3.487,3.813,5.6,3.244,3.071,7.545,2.074,7.746,3.455.172,1.189-2.885,2.8-5.482,3.456a16.075,16.075,0,0,1-10.962-1.549c-3.693-1.856-3.056-3.057-5.871-4.471-4.715-2.369-7.937.267-18.676.538-5.815.147-8.756.18-10.367-1.787-1.471-1.8-.7-3.769.185-12.265h0c.284-2.838.878-8.777.882-12.163,0-2-.692-5.269-2.08-11.807-.082-.386-.833-3.918-1.439-8.636C1848.876,1247.887,1848.956,1246.582,1849.723,1245.389Z" transform="translate(-1824.886 -1231.754)"/><g transform="translate(39.552 17.608)"><path class="ae" d="M2088.141,1394.734c-2.233-2.114-1.36-3.688-3.813-5.6-2.394-1.867-4.05-1.009-5.464-2.855-1.315-1.72-.248-2.944-1.308-5.456-.972-2.306-2.476-2.7-5.377-5.277-1.935-1.717-4.482-3.977-5.922-6.987-2.5-5.224-.752-10.8-.16-12.433a18.156,18.156,0,0,1,7.131-8.913c-.134-.145-.292-.309-.46-.482-9.166,1.26-14.51,6.556-15.171,8.124-1.528,3.625.891,4.957.953,15.411.03,5-.509,6.97,1.112,9.057,1.854,2.385,3.992,1.647,6.673,4.766,2.061,2.4,1.731,3.915,3.655,4.925,2.069,1.085,3.387-.18,5.72.318,3.9.831,4.731,5.326,7.308,7.785,1.949,1.859,5.552,3.16,12.658,1.764a.991.991,0,0,0,.212-.691C2095.686,1396.808,2091.385,1397.805,2088.141,1394.734Z" transform="translate(-2057.091 -1346.73)"/></g><path class="ab" d="M2099.875,1285.9c-.975,2.069,3.5,6.888,8.479,9.176,1.014.466,8.3,3.813,11.54.595,2.681-2.661.95-8.161.333-10.124-3.034-9.643-12.351-14.548-16.255-16.317-2.915,7.286-1.2,10.532-.522,11.546a38.793,38.793,0,0,0,4.766,5.243c1.472,1.379,2.387,2.049,2.264,2.265-.154.267-1.878-.238-8.576-3.5A2.606,2.606,0,0,0,2099.875,1285.9Z" transform="translate(-2057.038 -1257.348)"/><path class="af" d="M1966.189,1172.17q.617,4.932,2.435,6.061c1.821,1.13,4.762,2.605,5.087,3.006s-11.274,1.647-17.021-1.253q1.894-.395,2.409-.54a10.7,10.7,0,0,0,2.434-.964,8.275,8.275,0,0,0,2.676-2.475l-.021-2.731Z" transform="translate(-1927.658 -1169.119)"/><path class="ag" d="M2019.987,1148.414a2.42,2.42,0,0,1-3.047.951c-1.666-.609-.671-4.911.649-5.4a2.338,2.338,0,0,1,1.792.246,2.591,2.591,0,0,1,.814,2.915c.421-.121.792-.011.885.2.116.265-.24.625-.32.707A1.408,1.408,0,0,1,2019.987,1148.414Z" transform="translate(-1981.18 -1143.615)"/><path class="ah" d="M2041.045,1425.6q-4.083-4.177-5.745-4.795c-1.662-.618-.665.285,0,.807s1.107.693.768,1.486-.958,1.5.015,2.117a4.56,4.56,0,0,0,2.113.954l.76.1,1,.531Q2041.235,1426.648,2041.045,1425.6Z" transform="translate(-1996.516 -1397.535)"/></g><g transform="translate(145.151 10.867)"><path class="ai" d="M2166.754,653.212c-11.426-1.578-22.4,5.005-24.172,14.75a14.567,14.567,0,0,0,1.469,9.469l-3.163,5.726a.7.7,0,0,0,.619,1.1c1.933-.2,5.568-.572,7.885-.776a22.386,22.386,0,0,0,11.125,4.012c11.167,1,21.326-5.68,23-14.883S2177.824,654.741,2166.754,653.212Z" transform="translate(-2140.778 -652.979)"/><g transform="translate(9.836 3.877)"><path class="ab" d="M2286.121,948.111l-3.63.086v-5.972l3.63-.034Z" transform="translate(-2281.856 -924.7)"/><path class="ab" d="M2367.448,923.2l-3.528.083v-7.825l3.528-.016Z" transform="translate(-2357.27 -899.926)"/><path class="ab" d="M2446.48,891.085l-3.429.08V880.91l3.429.006Z" transform="translate(-2430.555 -867.947)"/><path class="ab" d="M2523.325,849.334l-3.335.078V835.97l3.335.033Z" transform="translate(-2501.81 -826.327)"/><path class="aj" d="M2274.543,736.4a.693.693,0,0,1-.246-.048.592.592,0,0,1-.337-.789.822.822,0,0,1,.733-.415c.153-.017.361-.033.622-.052,8.512-.643,14.482-3.821,17.956-9.392a.569.569,0,0,1,.792-.168.579.579,0,0,1,.193.792,19.919,19.919,0,0,1-10.281,8.209,31.006,31.006,0,0,1-8.551,1.753c-.245.019-.5.039-.613.055A.673.673,0,0,1,2274.543,736.4Zm.578-.357Zm0,0Zm0,0h0Zm0,0h0Zm0,0h0Zm0,0h0Zm0,0v0Z" transform="translate(-2273.91 -723.97)"/><path class="ab" d="M2499.212,710.536a.59.59,0,0,1-.574-.548l-.164-2.513-2.416,1.537a.6.6,0,0,1-.812-.179.567.567,0,0,1,.161-.8l4.085-2.585.292,4.49a.557.557,0,0,1-.535.6Z" transform="translate(-2478.803 -705.45)"/></g></g></g></g></svg>