<svg xmlns="http://www.w3.org/2000/svg" xmlns:xlink="http://www.w3.org/1999/xlink" width="356.734" height="419.87" viewBox="0 0 356.734 419.87"><defs><style>.a{fill:url(#a);}.b{fill:url(#b);}.c{clip-path:url(#d);}.d{opacity:0.7;mix-blend-mode:soft-light;}.ae,.ak,.ao,.ax,.bd,.bg,.bl,.bp,.d,.h,.u{isolation:isolate;}.e{fill:#fff;}.f{clip-path:url(#f);}.g{fill:url(#g);}.ae,.ak,.h,.u{opacity:0.3;}.ae,.ak,.ao,.ax,.bd,.bg,.bl,.bp,.h,.u{mix-blend-mode:multiply;}.h{fill:url(#h);}.i{fill:url(#i);}.j{fill:url(#j);}.k{fill:url(#k);}.l{fill:url(#l);}.m{fill:url(#m);}.n{fill:url(#n);}.o{fill:url(#o);}.p{fill:url(#p);}.q{fill:url(#q);}.r{fill:url(#r);}.s{fill:url(#s);}.t{fill:url(#t);}.v{fill:url(#u);}.w{fill:url(#v);}.x{fill:url(#w);}.y{fill:url(#x);}.z{fill:url(#y);}.aa{fill:url(#z);}.ab{fill:url(#aa);}.ac{fill:url(#ab);}.ad{fill:url(#ac);}.ae{fill:url(#ad);}.af{fill:url(#ae);}.ag{fill:#26264f;}.ah{fill:#ffe19f;}.ai{fill:url(#af);}.aj{fill:url(#ag);}.ak{fill:url(#ah);}.al{fill:url(#ai);}.am{fill:url(#aj);}.an{fill:url(#ak);}.ao{opacity:0.2;fill:url(#al);}.ap{fill:url(#am);}.aq{fill:url(#ao);}.ar{fill:url(#aq);}.as{fill:url(#as);}.at{fill:url(#au);}.au{fill:url(#aw);}.av{fill:url(#ay);}.aw{fill:url(#ba);}.ax,.bh{fill:#d8dee8;}.ax{opacity:0.4;}.ay{fill:url(#bb);}.az{fill:url(#bc);}.ba{fill:url(#bd);}.bb{fill:url(#be);}.bc{fill:url(#bf);}.bd,.bg,.bl,.bp{opacity:0.302;}.bd{fill:url(#bg);}.be{fill:url(#bh);}.bf{fill:url(#bi);}.bg{fill:url(#bj);}.bi{fill:url(#bk);}.bj{clip-path:url(#bl);}.bk{fill:url(#bm);}.bl{fill:url(#bn);}.bm{fill:url(#bo);}.bn{fill:url(#bp);}.bo{fill:url(#bq);}.bq{fill:url(#br);}</style><linearGradient id="a" y1="0.5" x2="1" y2="0.5" gradientUnits="objectBoundingBox"><stop offset="0.004" stop-color="#e38ddd"/><stop offset="1" stop-color="#9571f6"/></linearGradient><linearGradient id="b" x1="0.579" y1="0.368" x2="0.134" y2="1.506" xlink:href="#a"/><clipPath id="d"><path class="a" d="M721.083,1570.389c26.842-20.742,29.643-63.7,16.165-74.943-7.01-5.847-15.524-.693-21.95-7.752-7.12-7.821-.189-18.014-1.82-40-.842-11.361-2.371-31.963-14.57-38.983-12.1-6.962-22.629,6.373-36.06-.4-12.7-6.4-8.11-20.76-23.74-33.586-1.454-1.193-17.975-14.42-30.8-8.7-13.032,5.807-17.648,29.114-10.513,43.576,6.482,13.139,20.759,15.117,20.1,22.935-.726,8.615-18.3,9.036-19.9,17.815-2.306,12.689,32.731,21.067,33.956,41.017.72,11.731-11.072,14.093-13.388,28.976-2.989,19.208,12.983,38.857,26.718,48.549C665.188,1582.935,697.818,1588.367,721.083,1570.389Z" transform="translate(-594.445 -1364.593)"/></clipPath><clipPath id="f"><path class="b" d="M2117.478,1221.938c-33.9-16.761-46.416-63.094-34.16-78.346,6.375-7.933,16.813-4.174,22.283-13.3,6.06-10.115-3.758-19.728-6.815-44.118-1.579-12.6-4.443-35.453,7.344-45.811,11.689-10.271,26.134,1.984,39.321-8.372,12.47-9.792,4.294-24.473,18.553-41.931,1.327-1.624,16.471-19.715,31.747-16.292,15.52,3.478,25.695,27.934,21.08,45.31-4.192,15.786-19.36,21.089-16.919,29.488,2.69,9.256,21.989,5.848,25.666,15.091,5.313,13.36-31.134,30.227-28.082,52.3,1.795,12.979,18.41,14.058,15.946,30.667-3.971,26.773-9.313,33.192-22.19,46.808C2172.586,1213.163,2146.86,1236.466,2117.478,1221.938Z" transform="translate(-2078.717 -973.337)"/></clipPath><linearGradient id="g" x1="1.022" y1="1.035" x2="0.482" y2="0.024" gradientUnits="objectBoundingBox"><stop offset="0" stop-color="#aa80f9"/><stop offset="1" stop-color="#8f6af3"/></linearGradient><linearGradient id="h" x1="0.827" y1="1.135" x2="-0.118" y2="0.295" gradientUnits="objectBoundingBox"><stop offset="0" stop-color="#aa80f9"/><stop offset="0.996" stop-color="#6165d7"/></linearGradient><linearGradient id="i" x1="-0.322" y1="1.342" x2="3.127" y2="-2.564" gradientUnits="objectBoundingBox"><stop offset="0" stop-color="#ab316d"/><stop offset="1" stop-color="#792d3d"/></linearGradient><linearGradient id="j" x1="-0.024" y1="1.226" x2="0.603" y2="0.358" gradientUnits="objectBoundingBox"><stop offset="0" stop-color="#fcb148"/><stop offset="0.052" stop-color="#fdb946"/><stop offset="0.142" stop-color="#fec144"/><stop offset="0.318" stop-color="#ffc444"/><stop offset="0.485" stop-color="#fdb946"/><stop offset="0.775" stop-color="#f99c4c"/><stop offset="0.866" stop-color="#f8924f"/><stop offset="1" stop-color="#f8924f"/></linearGradient><linearGradient id="k" x1="0.661" y1="0.946" x2="0.244" y2="-0.205" xlink:href="#j"/><linearGradient id="l" x1="-0.483" y1="1.328" x2="2.871" y2="-3.201" xlink:href="#j"/><linearGradient id="m" x1="0.456" y1="-0.114" x2="0.673" y2="2.255" gradientUnits="objectBoundingBox"><stop offset="0" stop-color="#311944"/><stop offset="1" stop-color="#893976"/></linearGradient><linearGradient id="n" x1="0.475" y1="0.373" x2="1.017" y2="2.152" xlink:href="#m"/><linearGradient id="o" x1="0.021" y1="0.011" x2="1.482" y2="1.363" xlink:href="#m"/><linearGradient id="p" x1="0.828" y1="0.029" x2="0.275" y2="0.837" xlink:href="#m"/><linearGradient id="q" x1="0.456" y1="-0.112" x2="0.671" y2="2.235" gradientUnits="objectBoundingBox"><stop offset="0" stop-color="#ffc444"/><stop offset="0.996" stop-color="#f36f56"/></linearGradient><linearGradient id="r" x1="0.475" y1="0.373" x2="1.017" y2="2.152" xlink:href="#a"/><linearGradient id="s" x1="0.021" y1="0.011" x2="1.431" y2="1.318" xlink:href="#h"/><linearGradient id="t" x1="0.955" y1="-0.1" x2="0.281" y2="0.802" gradientUnits="objectBoundingBox"><stop offset="0" stop-color="#ff9085"/><stop offset="1" stop-color="#fb6fbb"/></linearGradient><linearGradient id="u" x1="0.353" y1="0.385" x2="1.219" y2="3.031" xlink:href="#a"/><linearGradient id="v" x1="0.422" y1="-0.186" x2="0.676" y2="2.347" xlink:href="#q"/><linearGradient id="w" x1="72.398" y1="12.874" x2="73.449" y2="14.324" gradientUnits="objectBoundingBox"><stop offset="0" stop-color="#444b8c"/><stop offset="0.996" stop-color="#26264f"/></linearGradient><linearGradient id="x" x1="113.21" y1="8.381" x2="113.21" y2="6.966" xlink:href="#q"/><linearGradient id="y" x1="92.205" y1="15.428" x2="93.537" y2="17.217" xlink:href="#w"/><linearGradient id="z" x1="70.195" y1="-0.515" x2="71.289" y2="0.793" xlink:href="#w"/><linearGradient id="aa" x1="82.77" y1="0.432" x2="82.77" y2="-0.932" xlink:href="#q"/><linearGradient id="ab" x1="87.769" y1="-1.298" x2="89.129" y2="0.479" xlink:href="#w"/><linearGradient id="ac" x1="3.502" y1="0.5" x2="4.502" y2="0.5" gradientUnits="objectBoundingBox"><stop offset="0" stop-color="#311944"/><stop offset="1" stop-color="#6b3976"/></linearGradient><linearGradient id="ad" x1="3.724" y1="0.5" x2="4.724" y2="0.5" xlink:href="#ac"/><linearGradient id="ae" x1="3.104" y1="0.611" x2="1.308" y2="0.495" gradientUnits="objectBoundingBox"><stop offset="0" stop-color="#311944"/><stop offset="0.741" stop-color="#5c3169"/><stop offset="1" stop-color="#6b3976"/></linearGradient><linearGradient id="af" x1="0.837" y1="0.5" x2="1.837" y2="0.5" xlink:href="#t"/><linearGradient id="ag" x1="4.643" y1="2.111" x2="4.355" y2="0.514" xlink:href="#ac"/><linearGradient id="ah" x1="0.871" y1="0.253" x2="1.625" y2="0.79" xlink:href="#t"/><linearGradient id="ai" x1="-0.362" y1="0.5" x2="0.638" y2="0.5" xlink:href="#t"/><linearGradient id="aj" x1="0.682" y1="-0.439" x2="0.235" y2="1.775" xlink:href="#m"/><linearGradient id="ak" x1="0.582" y1="-0.856" x2="0.135" y2="6.94" xlink:href="#t"/><linearGradient id="al" x1="0" y1="0.5" x2="1" y2="0.5" xlink:href="#t"/><linearGradient id="am" x1="1.069" y1="-0.21" x2="-0.285" y2="1.471" xlink:href="#t"/><linearGradient id="ao" x1="0.825" y1="-0.285" x2="0.053" y2="1.574" xlink:href="#t"/><linearGradient id="aq" x1="0.708" y1="-0.413" x2="0.214" y2="1.749" xlink:href="#t"/><linearGradient id="as" x1="1.412" y1="-0.177" x2="-0.757" y2="1.427" xlink:href="#t"/><linearGradient id="au" x1="1.323" y1="-0.183" x2="-0.635" y2="1.434" xlink:href="#t"/><linearGradient id="aw" x1="1.504" y1="-0.173" x2="-0.884" y2="1.42" xlink:href="#t"/><linearGradient id="ay" x1="1.249" y1="-0.189" x2="-0.532" y2="1.442" xlink:href="#t"/><linearGradient id="ba" x1="0.959" y1="-0.232" x2="-0.133" y2="1.502" xlink:href="#t"/><linearGradient id="bb" x1="1.049" y1="0.296" x2="0.796" y2="1.286" xlink:href="#q"/><linearGradient id="bc" x1="1.423" y1="-2.538" x2="0.173" y2="6.806" xlink:href="#q"/><linearGradient id="bd" x1="0.896" y1="1.042" x2="-2.289" y2="12.322" xlink:href="#q"/><linearGradient id="be" x1="0.79" y1="1.274" x2="-1.123" y2="9.998" xlink:href="#q"/><linearGradient id="bf" x1="1.163" y1="0.407" x2="0.937" y2="1.069" xlink:href="#m"/><linearGradient id="bg" x1="1.132" y1="0.479" x2="0.887" y2="1.407" xlink:href="#m"/><linearGradient id="bh" x1="1.129" y1="0.26" x2="0.813" y2="1.084" xlink:href="#m"/><linearGradient id="bi" x1="-0.129" y1="0.217" x2="0.732" y2="-0.021" xlink:href="#a"/><linearGradient id="bj" x1="0.472" y1="-1.858" x2="1.189" y2="2.061" xlink:href="#h"/><linearGradient id="bk" x1="0.095" y1="1.143" x2="1.115" y2="0.878" xlink:href="#m"/><clipPath id="bl"><path d="M831.347,952.853a21.767,21.767,0,0,0,9.117-6.386,30.808,30.808,0,0,0,6.007-11.171c2.84-9.183,2.367-19.894-1.332-30.162s-10.166-18.82-18.21-24.082a30.8,30.8,0,0,0-11.751-4.773,21.225,21.225,0,0,0-20.212,7.282,30.8,30.8,0,0,0-6.008,11.171c-2.839,9.183-2.366,19.894,1.333,30.162s10.166,18.82,18.21,24.082a30.8,30.8,0,0,0,11.751,4.773A21.768,21.768,0,0,0,831.347,952.853Z" transform="translate(-787.126 -875.943)"/></clipPath><linearGradient id="bm" x1="-0.048" y1="0.173" x2="0.812" y2="-0.068" xlink:href="#t"/><linearGradient id="bn" x1="0.233" y1="-0.556" x2="1.579" y2="1.2" xlink:href="#t"/><linearGradient id="bo" x1="-0.86" y1="-1.008" x2="0.904" y2="2.726" xlink:href="#m"/><linearGradient id="bp" x1="0.147" y1="-0.123" x2="-0.354" y2="1.377" xlink:href="#t"/><linearGradient id="bq" x1="0.5" y1="1" x2="0.5" y2="0" xlink:href="#t"/><linearGradient id="br" x1="0.308" y1="-0.156" x2="-0.476" y2="1.803" xlink:href="#t"/></defs><g transform="translate(-993.173 -197.785)"><g transform="translate(521.541 -271.558)"><g transform="translate(471.632 528.598)"><g transform="translate(0 55.184)"><path class="a" d="M721.083,1570.389c26.842-20.742,29.643-63.7,16.165-74.943-7.01-5.847-15.524-.693-21.95-7.752-7.12-7.821-.189-18.014-1.82-40-.842-11.361-2.371-31.963-14.57-38.983-12.1-6.962-22.629,6.373-36.06-.4-12.7-6.4-8.11-20.76-23.74-33.586-1.454-1.193-17.975-14.42-30.8-8.7-13.032,5.807-17.648,29.114-10.513,43.576,6.482,13.139,20.759,15.117,20.1,22.935-.726,8.615-18.3,9.036-19.9,17.815-2.306,12.689,32.731,21.067,33.956,41.017.72,11.731-11.072,14.093-13.388,28.976-2.989,19.208,12.983,38.857,26.718,48.549C665.188,1582.935,697.818,1588.367,721.083,1570.389Z" transform="translate(-594.445 -1364.593)"/><g class="c"><g class="d" transform="translate(-13.725 -13.323)"><path class="e" d="M712.6,1545.211l1.034-.3c-11.448-40.028-24.484-77.112-38.748-110.222a581.48,581.48,0,0,0-36.32-71.407c-21.621-35.6-37.333-49.935-37.489-50.076l-.72.8c.155.14,15.782,14.413,37.33,49.9C657.571,1396.668,686.713,1454.713,712.6,1545.211Z" transform="translate(-585.795 -1307.134)"/><path class="e" d="M839.139,1329.769c5.028-32.943-6.446-59.374-6.563-59.637l-.983.435c.115.26,11.462,26.42,6.483,59.04Z" transform="translate(-784.42 -1270.132)"/><path class="e" d="M1138.1,1658.044c16.371-32.4,20.777-55.181,21.591-68.584.886-14.6-2.094-21.419-2.222-21.7l-.981.44c.03.068,3.013,6.937,2.122,21.317-.824,13.287-5.217,35.877-21.47,68.045Z" transform="translate(-1046.869 -1525.779)"/><path class="e" d="M1323.943,2189.686c40.62-48.764,41.125-86.182,41.125-86.555h-1.075c0,.094-.16,9.792-5.561,25.558-4.756,13.882-14.744,35.614-35.315,60.31Z" transform="translate(-1206.618 -1985.642)"/><path class="e" d="M572.192,1895.739a98.336,98.336,0,0,0,11.315.949l.027-1.075c-25.181-.633-47.124-11.347-61.1-20.224a146.362,146.362,0,0,1-24.53-19.3l-.775.745a147.589,147.589,0,0,0,24.729,19.465C533.813,1883.89,551.557,1892.817,572.192,1895.739Z" transform="translate(-497.132 -1773.442)"/><path class="e" d="M801.749,2308.274q2.985.423,6.083.64l.074-1.072c-26.2-1.814-46.276-15.487-58.506-26.637a121.094,121.094,0,0,1-20.472-24.005l-.922.553A122.314,122.314,0,0,0,748.676,2282C760.069,2292.387,778.211,2304.942,801.749,2308.274Z" transform="translate(-695.443 -2117.982)"/></g></g></g><g transform="translate(209.345 0)"><path class="b" d="M2117.478,1221.938c-33.9-16.761-46.416-63.094-34.16-78.346,6.375-7.933,16.813-4.174,22.283-13.3,6.06-10.115-3.758-19.728-6.815-44.118-1.579-12.6-4.443-35.453,7.344-45.811,11.689-10.271,26.134,1.984,39.321-8.372,12.47-9.792,4.294-24.473,18.553-41.931,1.327-1.624,16.471-19.715,31.747-16.292,15.52,3.478,25.695,27.934,21.08,45.31-4.192,15.786-19.36,21.089-16.919,29.488,2.69,9.256,21.989,5.848,25.666,15.091,5.313,13.36-31.134,30.227-28.082,52.3,1.795,12.979,18.41,14.058,15.946,30.667-3.971,26.773-9.313,33.192-22.19,46.808C2172.586,1213.163,2146.86,1236.466,2117.478,1221.938Z" transform="translate(-2078.717 -973.337)"/><g class="f"><g class="d" transform="translate(-3.373 -11.758)"><path class="e" d="M2480.927,1168.063l-1.195-.1c3.7-46.265,9.787-89.663,18.088-128.987a648.25,648.25,0,0,1,23.978-86.033c15.795-43.66,29.81-62.79,29.949-62.978l.963.715c-.139.187-14.076,19.225-29.814,62.753C2508.369,993.613,2489.3,1063.462,2480.927,1168.063Z" transform="translate(-2419.799 -889.969)"/><path class="e" d="M2720.872,960.816c-12.746-34.9-6.023-66.308-5.953-66.621l1.17.259c-.069.31-6.712,31.4,5.909,65.951Z" transform="translate(-2620.239 -893.599)"/><path class="e" d="M2346.18,1411.306c-25.023-31.808-34.852-55.733-38.69-70.2-4.182-15.761-2.426-23.87-2.349-24.207l1.169.265c-.018.081-1.766,8.245,2.373,23.764,3.824,14.339,13.6,38.061,38.44,69.639Z" transform="translate(-2269.463 -1256.682)"/><path class="e" d="M2118.794,2060.769c-55.125-44.354-63.912-85.136-63.994-85.542l1.175-.238c.021.1,2.33,10.667,11.7,26.707,8.253,14.125,23.951,35.677,51.868,58.139Z" transform="translate(-2054.8 -1821.955)"/><path class="e" d="M2632.8,1520.32a109.618,109.618,0,0,1-12.157,3.527l-.266-1.169c27.381-6.234,49-22.773,62.32-35.549a163.17,163.17,0,0,0,22.56-26.495l1.011.644a164.541,164.541,0,0,1-22.741,26.715C2672.134,1498.923,2654.707,1512.586,2632.8,1520.32Z" transform="translate(-2540.605 -1380.147)"/><path class="e" d="M2530.89,2021.89q-3.17,1.119-6.507,2.039l-.317-1.156c28.233-7.749,47.166-27.109,58.077-41.987a134.989,134.989,0,0,0,17.089-30.74l1.13.4a136.361,136.361,0,0,1-17.253,31.049C2572.945,1995.354,2555.881,2013.068,2530.89,2021.89Z" transform="translate(-2457.88 -1800.53)"/></g></g></g></g><g transform="translate(536.281 537.811)"><path class="g" d="M1293.463,855.817v291.458a2.442,2.442,0,0,1-2.258,2.483l-22.564,1.156L1070.58,1161.04a2.431,2.431,0,0,1-2.644-2.387V847.5a2.486,2.486,0,0,1,2.661-2.428l2.346.086,218.262,8.21A2.4,2.4,0,0,1,1293.463,855.817Z" transform="translate(-1067.936 -845.066)"/><path class="h" d="M1275.593,1160.564l-204.9,10.475a2.531,2.531,0,0,1-2.753-2.469V857.579a2.572,2.572,0,0,1,2.753-2.511l2.427.089c7.01,9.552,21.558,20.562,50.917,29.993,69.2,22.224-9.253,119.213,78.21,150.407C1273.449,1060.953,1237.138,1127.651,1275.593,1160.564Z" transform="translate(-1067.936 -855.066)"/></g><g transform="translate(720.688 483.803)"><g transform="translate(0 0)"><path class="i" d="M2221.076,579.787l-64.435-1.4a8.188,8.188,0,0,0-8.274,8.3l.335,57.833a8.384,8.384,0,0,0,8.327,8.344l3.475.008.071,14.225c.011,2.13,2.572,3.17,4.676.811l13.144-15,42.731-.172a7.6,7.6,0,0,0,7.376-7.835l-.008-57.11A7.8,7.8,0,0,0,2221.076,579.787Z" transform="translate(-2148.367 -576.788)"/><path class="j" d="M2238.17,638.99l-64.214.167a8.388,8.388,0,0,1-8.341-8.347l-.328-57.895a8.208,8.208,0,0,1,8.291-8.318l64.554,1.355a7.8,7.8,0,0,1,7.429,8.017v57.173A7.62,7.62,0,0,1,2238.17,638.99Z" transform="translate(-2163.322 -564.596)"/><path class="k" d="M2186,650.438l-.335-60.929a4.375,4.375,0,0,1,4.417-4.433l67.418,1.255a4.156,4.156,0,0,1,3.96,4.272l.009,60.069a4.061,4.061,0,0,1-3.94,4.182l-67.085.032A4.47,4.47,0,0,1,2186,650.438Z" transform="translate(-2181.338 -582.698)"/><path class="l" d="M2269.9,1198.758l-.083-17.173,20.5.04-16.376,18.667A2.311,2.311,0,0,1,2269.9,1198.758Z" transform="translate(-2255.715 -1109.951)"/></g></g><g transform="translate(495.235 469.343)"><g transform="translate(0 0.058)"><g transform="translate(0 20.431)"><path class="m" d="M827.243,739.124l3.461-.019s8.291-10.489,13.893-11.068l.519-29.551c-21.458.072-40.4,12.162-49.021,30.031Z" transform="translate(-791.258 -698.486)"/><path class="n" d="M1021.306,1079.467c-1.759,9.709-10.6,17.343-21.44,17.68a14.264,14.264,0,0,1-5.778-1.516,19.858,19.858,0,0,1-3.342-.034l-16.914,26.188a55.417,55.417,0,0,0,26.034,4.754c27.017-1.552,48.258-21.89,50.617-46.374Z" transform="translate(-943.926 -1025.733)"/><path class="o" d="M786.406,1007.859l3.384.117,13.686-26.383a20.268,20.268,0,0,1-8.387-16.336,20.055,20.055,0,0,1,.557-4.7L767.77,950.04l-3.39.04a48.166,48.166,0,0,0-2.586,15.587C761.794,983.633,771.652,999.1,786.406,1007.859Z" transform="translate(-761.794 -914.56)"/></g><g transform="translate(59.254)"><path class="p" d="M1181.908,603.737c9.868,1.468,17.455,9.115,18.356,18.566l47.712,1.383c0-.01,0-.02,0-.03s0-.015,0-.03c0-.036,7.193-1.157,7.193-1.161,0-.327-65.178-68.838-65.178-68.838l-7.229,1.188S1182.193,587.429,1181.908,603.737Z" transform="translate(-1181.908 -553.626)"/></g></g><g transform="translate(3.414 0)"><g transform="translate(0 20.489)"><path class="q" d="M851.448,739.124A22.637,22.637,0,0,1,868.8,728.037l.519-29.551c-21.458.072-40.4,12.162-49.021,30.031Z" transform="translate(-815.463 -698.486)"/><path class="r" d="M1045.511,1079.467c-1.759,9.709-10.6,17.343-21.44,17.68a23.089,23.089,0,0,1-9.119-1.549l-16.914,26.188a55.418,55.418,0,0,0,26.034,4.754c27.017-1.552,48.258-21.89,50.618-46.374Z" transform="translate(-968.131 -1025.733)"/><path class="s" d="M810.611,1008.1l17.07-26.266a20.269,20.269,0,0,1-8.387-16.336,20.055,20.055,0,0,1,.557-4.7l-31.266-10.481A48.173,48.173,0,0,0,786,965.908C786,983.875,795.857,999.344,810.611,1008.1Z" transform="translate(-785.999 -914.802)"/></g><g transform="translate(63.033)"><path class="t" d="M1232.907,602.138c9.868,1.468,17.455,9.116,18.357,18.566l47.712,1.383c0-.02,0-.04,0-.06,0-35-27.888-64.955-65.214-68.811Z" transform="translate(-1232.907 -553.215)"/></g></g><g class="u" transform="translate(33.32 90.354)"><path class="v" d="M1017.548,1194.669a22.669,22.669,0,0,1-2.6-.834l-16.914,26.188a56.244,56.244,0,0,0,46.932-.578,31.87,31.87,0,0,1-16.659-7.433C1023.12,1207.409,1019.752,1201.007,1017.548,1194.669Z" transform="translate(-998.038 -1193.835)"/></g><g class="u" transform="translate(8.252 23.562)"><path class="w" d="M859.2,728.927a24.368,24.368,0,0,0-8.1-8.657,53.393,53.393,0,0,0-30.8,26.958l31.147,10.607a22.17,22.17,0,0,1,9.506-8.84C861.766,741.133,862.687,735.353,859.2,728.927Z" transform="translate(-820.301 -720.27)"/></g></g><g transform="translate(490.324 671.54)"><path class="x" d="M805.116,3178.844c-.159-.877-2.992-1.671-4.4-.5-.7.583-1.176,1.766-.773,2.3.147.195-.454.536.121.543C801.978,3181.213,805.274,3179.716,805.116,3178.844Z" transform="translate(-782.751 -2970.614)"/><path class="y" d="M796.141,3143.067l-2.939.146c1.018-1.851-.206-6.885-.206-6.885l3.174.093s-.078,1.462-.271,3.633A13.747,13.747,0,0,0,796.141,3143.067Z" transform="translate(-776.874 -2934.832)"/><path class="z" d="M792.608,3182.943s-3.508-.808-3.887-.113-.674,2.559,1.551,2.5S792.806,3183.533,792.608,3182.943Z" transform="translate(-772.955 -2974.752)"/><path class="aa" d="M1079.443,3227.55c-.281-.846-3.2-1.236-4.421.124-.608.676-.917,1.914-.443,2.386.172.172-.374.594.2.52C1076.667,3230.335,1079.721,3228.391,1079.443,3227.55Z" transform="translate(-1019.875 -3012.956)"/><path class="ab" d="M1060.6,3196.7l-2.887.567c.742-1.978-1.192-6.785-1.192-6.785l3.154-.363s.132,1.457.252,3.634A13.771,13.771,0,0,0,1060.6,3196.7Z" transform="translate(-1004.478 -2981.286)"/><path class="ac" d="M1066.669,3234.51s-3.587-.309-3.865.433-.309,2.628,1.886,2.257S1066.947,3235.066,1066.669,3234.51Z" transform="translate(-1009.791 -3019.575)"/><path class="ad" d="M750.851,2480.749q-1.18,20.17-3.371,41.9c-1.718,16.765-3.806,32.783-6.147,48.007a9.055,9.055,0,0,1-5.552,0s-3.374-5.526-5.949-20.213c-1.652-9.424-1.766-9.305-1.785-10.949-.093-8.294,2.816-10.695,3.371-18.108.513-6.859-1.67-8.913-2.974-16.634-1-5.938-1.379-14.59,1.785-25.9Z" transform="translate(-720.502 -2366.976)"/><path class="ae" d="M762.785,2480.749q-1.18,20.17-3.371,41.9c-1.719,16.765-3.806,32.783-6.147,48.007a9.055,9.055,0,0,1-5.552,0c.037-1.409.135-3.532.429-6.1.781-6.8,2.025-8.739,2.152-12.914.163-5.34-1.77-5.5-2.152-10.763-.593-8.149,3.882-10.082,4.3-17.218.446-7.54-4.275-10.021-7.892-19.372-2.135-5.519-4.03-13.806-2.394-25.438Z" transform="translate(-732.436 -2366.976)"/><path class="af" d="M852.95,2489.667a282.884,282.884,0,0,1,11.1,97.909l-3.768,1.052c-7.3-7.64-9.91-14.663-10.906-19.792-1.474-7.588.747-10.16-1.19-18.74-.445-1.974-1.072-4.094-8.328-18.318-6.925-13.577-8.345-15.549-9.518-20.424a44.666,44.666,0,0,1-.595-17.266Z" transform="translate(-808.125 -2376.315)"/><g transform="translate(49.359 46.491)"><path class="ag" d="M1063.446,2037.24l12.392-29.028a2.552,2.552,0,0,0-1.745-3.482l-22.7-5.513a2.552,2.552,0,0,0-2.964,1.515l-11.4,27.9a2.552,2.552,0,0,0,1.616,3.406l21.705,6.641A2.552,2.552,0,0,0,1063.446,2037.24Z" transform="translate(-1036.841 -1999.145)"/><path class="e" d="M1070.446,2042.912l11.575-27.114a2.384,2.384,0,0,0-1.63-3.252l-21.2-5.149a2.384,2.384,0,0,0-2.769,1.415l-10.646,26.06a2.383,2.383,0,0,0,1.509,3.181l20.275,6.2A2.383,2.383,0,0,0,1070.446,2042.912Z" transform="translate(-1044.402 -2006.213)"/></g><path class="ah" d="M1266.321,2130.276l.372-3.42,1.971-3.757a3.571,3.571,0,0,0,.409-1.658v-3.731l-2.38,5.5a17.909,17.909,0,0,0-2.156-1.71c-.595-.3-.521.892-.074,1.339s-.223,4.09.223,4.461l-.149,2.231Z" transform="translate(-1183.771 -2055.058)"/><path class="ai" d="M738.383,1948.028c-1.85-4.525-5.822-7.127-7.882-8.477-4.873-3.193-7.993-2.61-19.185-4.313-14.915-2.27-16.7-4.42-21.713-2.677-6.585,2.289-10.024,8.267-11.6,11.006-7.946,13.809,1.344,20.827-1.041,48.334-.974,11.234-3.472,21,2.528,26.77,1.263,1.216,2.676,1.852,5.5,3.123,11.208,5.043,21.258,4.174,27.365,3.569,6.719-.665,10.116-1.046,11.9-3.42,2.846-3.792-.084-8.612-.595-16.954-.367-5.989.995-10.734,3.718-20.226C733.709,1962.7,741.928,1956.7,738.383,1948.028Z" transform="translate(-674.721 -1894.596)"/><g transform="matrix(0.998, -0.07, 0.07, 0.998, 12.921, 2.358)"><g transform="translate(0 0)"><path class="ah" d="M25.434,13.662c1.1-3.913-.822-7.537-1.245-8.318-1.772-3.269-2.226-3.716-3.071-4.282L19.942.337S19.874.31,19.8.284A13.58,13.58,0,0,0,15.956.049C14.293.4,12.521,7.182,13.027,16.764q-.1.548-.2,1.1-.393,2.271-.631,4.447c-.154,1.387-2.121,1.355-3.514,1.266-5.653-.361-8.42.12-8.661.962-.451,1.578,6.255,6.736,14.535,7.9,11.113.083,20.153-1.1,19.181-2.851-.431-.777-9.041-3.027-11.463-5.257-2.217-2.042-2.037-4.15-2.219-5.659C20.728,18.326,24.625,16.546,25.434,13.662Z" transform="translate(0 12.922)"/><path class="aj" d="M19.317,10.537c-.01,2.969-1.409,6.139-2.121,6.648a4.94,4.94,0,0,0-1.075,1.174,1.522,1.522,0,0,0-.169.351c-.65,1.871,2.324,4.072,1.75,4.91-.416.607-2.438-.205-2.678.32-.227.494,1.453,1.516,1.2,2.108-.194.447-1.228.038-1.88.722-.325.341-.23.611-.574,1.653a9.431,9.431,0,0,1-.678,1.592C12.061,31.758,9.156,32.394,8.6,31.7c-.155-.195-.022-.358-.181-1.01a5.2,5.2,0,0,0-.568-1.3c-.6-1-2.052-1.713-3.516-2.767C1.621,24.664.883,23,.663,22.437c-.079-.2-.128-.351-.163-.46A11.036,11.036,0,0,1,.775,14.6c1.648-3.311,5.365-1.739,8.408-5.02C12.694,5.794,10.6.62,12.508.048,14.608-.582,19.335,5.049,19.317,10.537Z" transform="translate(4.073 0)"/><path class="ah" d="M2.014.419C1.286-.58.008.359,0,1.653S1.246,4.291,2.462,4.035,2.993,1.765,2.014.419Z" transform="translate(18.694 22.504)"/></g></g><path class="ak" d="M750.434,2167.227c1.977-3.937-2.867-9.169.3-15.169,2.688-5.1,7.57-3.955,9.816-8.626,2.712-5.642-3.186-9.858-2.974-18.441.252-10.261,9.081-20.531,14.277-19.631,3.362.583,3.794,5.6,6.159,11.088a124.67,124.67,0,0,0-6.754,18.061c-2.723,9.491-4.085,14.237-3.718,20.226.511,8.341,3.441,13.162.595,16.954-1.782,2.374-5.178,2.755-11.9,3.42-6.107.6-16.156,1.474-27.365-3.569-1.419-.639-2.481-1.117-3.347-1.588C743.034,2172.581,748.867,2170.348,750.434,2167.227Z" transform="translate(-718.598 -2044.343)"/><path class="al" d="M1062.2,2018.335l-3.272-1.413c-1.843,1.885-4.194,3.719-6.172,3.123-2.948-.887-2.211-6.31-5.8-15.839-4.067-10.8-8.681-13.571-11.006-14.574-1.3-.561-2.194-.933-3.272-.669-4.957,1.211-6.6,14.129-5.205,23.795.784,5.446,2.32,16.124,11.08,21.192,1.244.72,8.094,4.684,14.872,1.562C1059.213,2032.845,1062.791,2026,1062.2,2018.335Z" transform="translate(-978.978 -1943.786)"/></g><g transform="translate(594.143 765.028)"><path class="am" d="M1533.43,2536.548l-107.731.917a3.6,3.6,0,0,0-3.479,3.632v63.946a3.32,3.32,0,0,0,3.487,3.393l1.563-.1,1.855-3.865L1534.631,2598c1.6-.1,1.668,2.173,1.668.352v-58.532A3.067,3.067,0,0,0,1533.43,2536.548Z" transform="translate(-1422.221 -2536.548)"/><g transform="translate(1.557 0)"><path class="e" d="M1550.059,2597.856v54.867a3.4,3.4,0,0,1-2.486,3.426,2.051,2.051,0,0,1-.348.05l-107.747,6.6a3.327,3.327,0,0,1-3.5-3.391v-59.94Z" transform="translate(-1435.98 -2590.916)"/><path class="an" d="M1548.472,2536.548l-107.68.917a3.556,3.556,0,0,0-3.428,3.632v6.142l114-1.8v-5.622A3.08,3.08,0,0,0,1548.472,2536.548Z" transform="translate(-1437.207 -2536.548)"/><path class="e" d="M1483.006,2574.173a1.579,1.579,0,0,1-1.512,1.613,1.533,1.533,0,0,1-1.516-1.576,1.578,1.578,0,0,1,1.516-1.613A1.533,1.533,0,0,1,1483.006,2574.173Z" transform="translate(-1474.999 -2568.517)"/><g transform="translate(15.079 16.998)"><path class="ao" d="M1577.731,2746.1l-8.537.474v-44.489l8.537-.188Z" transform="translate(-1569.194 -2700.175)"/><path class="ap" d="M1577.731,2927.985l-8.537.474v-21.122l8.537-.338Z" transform="translate(-1569.194 -2882.064)"/><path class="ao" d="M1682.256,2743.422l-8.387.465V2699.8l8.387-.185Z" transform="translate(-1662.021 -2698.151)"/><path class="aq" d="M1682.256,3005.186l-8.387.466v-10.467l8.387-.4Z" transform="translate(-1662.021 -2959.914)"/><path class="ao" d="M1784.939,2740.8l-8.24.457v-43.7l8.24-.182Z" transform="translate(-1753.211 -2696.162)"/><path class="ar" d="M1784.939,3038.63l-8.24.458v-5.447l8.24-.423Z" transform="translate(-1753.211 -2993.996)"/><path class="ao" d="M1885.829,2738.215l-8.1.449v-43.322l8.1-.179Z" transform="translate(-1842.808 -2694.207)"/><path class="as" d="M1885.829,2811.276l-8.1.449v-33.938l8.1-.237Z" transform="translate(-1842.808 -2767.269)"/><path class="ao" d="M1984.972,2735.678l-7.958.442v-42.947l7.958-.176Z" transform="translate(-1930.851 -2692.286)"/><path class="at" d="M1984.972,2837.877l-7.958.441V2808.5l7.958-.257Z" transform="translate(-1930.851 -2794.485)"/><path class="ao" d="M2082.412,2733.185l-7.822.434v-42.578l7.822-.172Z" transform="translate(-2017.383 -2690.399)"/><path class="au" d="M2082.412,2781.389l-7.822.434v-36.386l7.822-.211Z" transform="translate(-2017.383 -2738.602)"/><path class="ao" d="M2178.194,2730.733l-7.69.426v-42.215l7.69-.17Z" transform="translate(-2102.44 -2688.542)"/><path class="av" d="M2178.194,2857.538l-7.69.427v-25.93l7.69-.269Z" transform="translate(-2102.44 -2815.347)"/><path class="ao" d="M2272.358,2728.323l-7.56.419v-41.859l7.56-.167Z" transform="translate(-2186.06 -2686.718)"/><path class="aw" d="M2272.358,2941.115l-7.56.42V2927l7.56-.332Z" transform="translate(-2186.06 -2899.509)"/></g></g><path class="ax" d="M1547.61,2692.173a2.358,2.358,0,0,1-.366.051l-107.756,6.6a3.335,3.335,0,0,1-3.508-3.391v-56.958c1.168,3.115,4.135,8.885,15,9.906a41.177,41.177,0,0,0,6.374.07c.744-.047,1.5-.074,2.223-.086,1.129-.023,2.241-.008,3.319.047a42.519,42.519,0,0,1,8.391,1.223c1.125.284,2.214.615,3.257.989a31.484,31.484,0,0,1,8.24,4.333,27.492,27.492,0,0,1,3.2,2.768,24.475,24.475,0,0,1,7.149,15.73,4.474,4.474,0,0,0,.95,2.546,7.114,7.114,0,0,0,3.138,2.095,30.06,30.06,0,0,0,7.958,1.476c.993.082,2.025.144,3.088.2,2.472.125,5.116.195,7.822.284,1,.035,2.021.07,3.037.117,2.573.113,5.167.273,7.689.545,1.009.108,2,.233,2.982.385a40.811,40.811,0,0,1,7.561,1.81C1542.178,2684.643,1545.947,2687.466,1547.61,2692.173Z" transform="translate(-1434.423 -2626.939)"/></g></g><g transform="translate(1096.82 312.352)"><g transform="translate(0.322 0.578)"><path class="ay" d="M127.62,28.443c-7.218.841-9.657-12.885-21.937-15.974C97.376,10.379,90.111,14.551,88.7,15.4,82.884,18.911,77.707,25.588,77.25,33.118,76.56,44.47,87,51.134,83.834,56.588c-2.45,4.219-9.718,2-11.706,6.522-1.64,3.729,1.785,8.689,3.859,11.694,5.675,8.22,10.508,7.555,12.268,11.851,3.439,8.393-12.981,15.88-16.815,32.364-2.933,12.609,1.88,28.851,13.39,37.474,13.787,10.329,33.091,6.66,44.213,0,12.06-7.222,10.149-15.355,19.857-17.935,11.707-3.112,17.567,7.9,39.514,9.092,7.172.39,14.851.7,18.948-4.211,5.768-6.918.667-19.67-.141-21.69-6.1-15.236-20.045-20.214-18.032-25.927,1.266-3.591,7.821-4.584,8.711-4.719,6.616-1,9.766,3.153,14.534,1.4,2.8-1.027,5.76-3.942,6.219-7.152,1.33-9.289-19.252-14.473-18.888-24.333.225-6.088,8.162-6.577,15.176-16.113,6.917-9.4,11.773-26.022,4.632-35.791C211.714-1.635,191.1-1.666,178.454,5.86c-15.045,8.956-17.4,27.785-24.569,26.836-6.227-.824-7.362-15.434-13.474-15.579C135.162,16.992,133.89,27.712,127.62,28.443Z" transform="translate(-66.681 -0.578)"/><path class="az" d="M2325.908,1713.641c-2.141-.715-10.876-3.631-12.269-1.275-1.559,2.64,5.922,12.2,15.747,14.381,4.991,1.107,11.676.55,12.377-1.839C2342.662,1721.843,2333.587,1716.2,2325.908,1713.641Z" transform="translate(-2184.478 -1616.082)"/><path class="ba" d="M974.486,158.586c-.273,2.693-2.643,5.782-5.772,5.772-3.257-.011-5.257-3.373-5.772-5.772-.672-3.131.666-7.034,3.158-7.871C969.459,149.587,974.951,154.01,974.486,158.586Z" transform="translate(-909.114 -142.177)"/><path class="bb" d="M1456.839,133.213c-3.043.953-7.674,2.4-8.632,6.316-.9,3.669,1.717,8.349,4.842,9.053,6.107,1.376,15.18-12.2,12.843-15.58C1464.4,130.845,1458.215,132.782,1456.839,133.213Z" transform="translate(-1367.319 -124.675)"/><g transform="translate(0 14.814)"><g transform="translate(0 32.461)"><path class="bc" d="M221.394,1855.914a12.757,12.757,0,0,1-10.8-3.326L174.513,1816.1a7.38,7.38,0,0,1,.5-10.992c3.522-3.029,10.838-3.59,14.216-.321l39.073,37.829c3.881,3.757,3.239,8.993-1.354,11.585A24.837,24.837,0,0,1,221.394,1855.914Z" transform="translate(-162.709 -1749.392)"/><path class="bd" d="M175.016,1805.111c3.522-3.029,10.838-3.59,14.216-.321l35.578,34.445c-3.768.126-7.788,1.211-12.723-.66-8.037-3.049-7.385-9.867-14.288-13.786-3.106-1.763-8.027-3.08-16.091-1.409l-7.2-7.277A7.38,7.38,0,0,1,175.016,1805.111Z" transform="translate(-162.709 -1749.392)"/><path class="be" d="M22.83,1781.483a11.782,11.782,0,0,1-6.824,15.2,11.782,11.782,0,0,1-14.947-7.352,11.782,11.782,0,0,1,6.824-15.2A11.782,11.782,0,0,1,22.83,1781.483Z" transform="translate(-0.322 -1721.903)"/><path class="bf" d="M126.51,925.477a35.763,35.763,0,0,0,8.014,22.244l72.719,5.13L179.817,874.17Z" transform="translate(-119.475 -872.743)"/><path class="bg" d="M202.477,1844.306c-7.449-.59-13.008-9.96-20.114-7.746-5.332,1.661-4.782,8.026-9.93,9.1-5.078,1.055-8.111-4.875-14.032-5.091a9.767,9.767,0,0,0-6.8,2.645,36.11,36.11,0,0,0,6.615,12.643l72.719,5.13-14.209-25.064C210.889,1842.758,206.21,1844.6,202.477,1844.306Z" transform="translate(-143.166 -1780.875)"/><path class="bh" d="M752.111,899.8c7.793,21.633,27.324,34.409,43.623,28.537s23.194-28.168,15.4-49.8-27.324-34.408-43.623-28.537S744.318,878.163,752.111,899.8Z" transform="translate(-707.17 -848.567)"/><path class="bi" d="M831.366,952.853a21.767,21.767,0,0,0,9.117-6.386,30.808,30.808,0,0,0,6.007-11.171c2.84-9.183,2.367-19.894-1.332-30.162s-10.166-18.82-18.209-24.082a30.8,30.8,0,0,0-11.752-4.773,21.225,21.225,0,0,0-20.212,7.282,30.8,30.8,0,0,0-6.008,11.171,42.454,42.454,0,0,0-1.831,12.176c-.049,5.886,7.456,9.309,9.608,15.283,2.289,6.353-.807,14.751,3.318,19.418a42.075,42.075,0,0,0,8.447,7.366,30.8,30.8,0,0,0,11.751,4.773A21.768,21.768,0,0,0,831.366,952.853Z" transform="translate(-743.281 -874.417)"/><g class="bj" transform="translate(43.864 1.526)"><path class="bk" d="M736.168,1361.265c3.575,9.924-2.057,20.855-12.431,24.365-10.214,3.456-21.2-1.6-24.672-11.249s1.792-20.45,11.908-24.18C721.246,1346.413,732.593,1351.342,736.168,1361.265Z" transform="translate(-702.965 -1322.557)"/><path class="bl" d="M1026.174,1402.282c2.655,7.369.636,14.707-4.438,16.366-4.995,1.633-11.08-2.868-13.661-10.032s-.739-14.44,4.183-16.277C1017.257,1390.473,1023.519,1394.913,1026.174,1402.282Z" transform="translate(-994.657 -1363.148)"/></g></g><g transform="translate(79.176)"><path class="bm" d="M1472.059,330.147a25.149,25.149,0,0,0,7.4-9.437,28.916,28.916,0,0,1-9.683-18.084c-1.974-16.826,12.23-32.808,32.589-35.823,20.824-3.084,40.227,8.427,43.215,26.015a.171.171,0,0,1,0,.018c.037.219.071.438.1.658l.013.1c.031.216.059.433.085.651a27.643,27.643,0,0,1,.188,3c0,.424,0,.847-.018,1.268q-.049,1.264-.211,2.506-.081.621-.19,1.235-.073.41-.157.816a31.519,31.519,0,0,1-9.957,16.786q-.162.147-.327.293a38.981,38.981,0,0,1-5.766,4.221l-.392.232q-1.378.808-2.839,1.519-.625.3-1.266.59-.426.191-.859.372-.65.273-1.312.526-.441.169-.889.329a45.329,45.329,0,0,1-11.961,2.506q-.467.033-.932.058l-.27.012c-.221.011-.442.021-.662.027l-.293.007c-.214.006-.428.011-.641.013h-.274c-.222,0-.443,0-.665,0l-.235,0c-.237,0-.473-.008-.709-.015l-.18-.006q-.389-.013-.776-.033l-.105-.006q-.436-.023-.869-.055h-.005a43.594,43.594,0,0,1-7.088-1.1l.007-.009q-2.017-.49-3.935-1.165C1489.557,330.8,1482.586,335.875,1472.059,330.147Z" transform="translate(-1466.861 -266.304)"/><g transform="translate(0 0.203)"><path class="bn" d="M1420.7,306.275c1.974,16.827,19.517,29.306,40.055,27.81,21.567-1.572,38.112-17.809,35.955-36.194s-22.041-30.6-43.42-27.438C1432.93,273.468,1418.726,289.449,1420.7,306.275Z" transform="translate(-1420.517 -269.953)"/><path class="e" d="M1420.7,306.275c1.974,16.827,19.517,29.306,40.055,27.81,21.567-1.572,38.112-17.809,35.955-36.194s-22.041-30.6-43.42-27.438C1432.93,273.468,1418.726,289.449,1420.7,306.275Z" transform="translate(-1420.517 -269.953)"/><path class="e" d="M1486.006,1135.979q-7.673,10.77-21.336,3.336,9.36-7.454,8.782-16.285Z" transform="translate(-1462.208 -1075.471)"/><g transform="translate(33.507 13.912)"><path class="bo" d="M2004.462,489.473a3.82,3.82,0,0,1,1.135-2.973,4.727,4.727,0,0,1,6.169-.212,4.095,4.095,0,0,1,.2,5.862,4.727,4.727,0,0,1-6.169.212A3.821,3.821,0,0,1,2004.462,489.473Zm7.274-7.737-6.307.217-1.819-23.968,8.295-.286Z" transform="translate(-2003.61 -457.7)"/></g><g class="bp" transform="translate(26.533 8.861)"><path class="bq" d="M1900.053,476.819c3.421-9.717-2.159-17.98,3.234-24.665,5.559-6.889,14.542-2.059,23.06-8.219,3.342-2.417,6.9-6.735,8.972-15.035a29.115,29.115,0,0,1,10.78,19.076c2.157,18.386-14.388,34.623-35.955,36.194a44.532,44.532,0,0,1-13.705-1.1A19.731,19.731,0,0,0,1900.053,476.819Z" transform="translate(-1896.44 -428.9)"/></g></g></g></g><path class="e" d="M479.989,404.934c-2.067-6.2-5.082-13.323-8.385-13.176-2.465.11-3.055,4.175-5.69,4.492-5.748.69-10.474-17.758-14.373-17.069-2.235.4-3.632,6.977-2.4,12.577,2.294,10.39,13.762,17.917,18.266,15.571,3.353-1.746,1.974-8.51,4.791-9.283C474.385,397.448,477.343,400.92,479.989,404.934Z" transform="translate(-423.687 -358.056)"/><path class="e" d="M977.734,533.512c1.151-6.405.574-8.3-.3-8.684-1.239-.549-2.627,2.118-5.091,2.1-4.214-.037-7.256-7.9-7.486-7.785-.9.452,2.637,13.375,5.989,13.176,1.2-.071,1.724-1.794,3.294-1.8C975.6,530.515,976.831,532,977.734,533.512Z" transform="translate(-910.951 -490.227)"/><path class="e" d="M1917.972,1881.5c.085-1.252,12.98-2.612,14.074.6.53,1.553-2.227,2.625-2.4,5.091-.424,6.224,16.369,10.712,15.871,12.577-.571,2.139-23.572-.372-24.256-6.288-.34-2.945,5.029-5.189,4.193-8.085C1924.578,1882.338,1917.911,1882.4,1917.972,1881.5Z" transform="translate(-1811.063 -1775.329)"/><path class="e" d="M1976.8,1661.386c.349-1.748,7.03-3.2,8.684-.6a3.663,3.663,0,0,1-.9,4.492C1982.057,1667.039,1976.447,1663.134,1976.8,1661.386Z" transform="translate(-1866.594 -1566.895)"/></g></g><ellipse class="e" cx="6" cy="6.5" rx="6" ry="6.5" transform="translate(1258.833 242.991)"/><circle class="e" cx="6.5" cy="6.5" r="6.5" transform="translate(1277.833 242.991)"/><ellipse class="e" cx="6" cy="6.5" rx="6" ry="6.5" transform="translate(1297.833 242.991)"/></g></svg>