<svg xmlns="http://www.w3.org/2000/svg" xmlns:xlink="http://www.w3.org/1999/xlink" width="363.74" height="368.287" viewBox="0 0 363.74 368.287"><defs><style>.a{clip-path:url(#a);}.b{fill:url(#b);}.c{opacity:0.502;}.c,.t{mix-blend-mode:soft-light;}.at,.aw,.bg,.c,.t,.z{isolation:isolate;}.d{fill:#beb8f2;}.e{fill:url(#c);}.f{clip-path:url(#d);}.g{fill:#fcfdfe;}.h{fill:url(#e);}.i{clip-path:url(#f);}.j{clip-path:url(#g);}.k{clip-path:url(#h);}.l{fill:url(#i);}.m{fill:url(#j);}.n{clip-path:url(#k);}.o{fill:url(#l);}.p{clip-path:url(#m);}.q{fill:#bfc8d6;}.r,.t{fill:#fff;}.s{fill:url(#n);}.t{opacity:0.478;}.u{fill:url(#o);}.aj,.v{fill:#d8dee8;}.w{clip-path:url(#p);}.x{fill:url(#q);}.y{fill:url(#r);}.at,.aw,.z{opacity:0.302;}.at,.aw,.bg,.z{mix-blend-mode:multiply;}.aa{fill:url(#s);}.ab{fill:url(#t);}.ac{fill:url(#u);}.ad{fill:url(#v);}.ae{fill:url(#w);}.af{fill:url(#x);}.ag{fill:url(#y);}.ah,.ai{fill:#97a6b7;}.ah,.aj{fill-rule:evenodd;}.ak{clip-path:url(#z);}.al{fill:url(#aa);}.am{fill:url(#ab);}.an{fill:url(#ac);}.ao{fill:url(#ad);}.ap{fill:url(#ae);}.aq{fill:url(#af);}.ar{fill:url(#ag);}.as{fill:url(#ah);}.at{fill:url(#ai);}.au{fill:url(#aj);}.av{fill:url(#ak);}.aw{fill:url(#al);}.ax{fill:url(#am);}.ay{fill:url(#an);}.az{fill:url(#ao);}.ba{fill:url(#ap);}.bb{fill:url(#aq);}.bc{fill:url(#ar);}.bd{fill:url(#as);}.be{fill:url(#at);}.bf{fill:url(#au);}.bg{opacity:0.2;fill:url(#av);}</style><clipPath id="a"><path d="M287.449,1281.566l-38.3,20.925q-17.944-15.708-16.133-34.7c3.694-38.753-30.5-39.283-44.794-41.649-21.551-3.566-38.988-16.108-20.833-35.633s-22.946-41.739-58.581-42.482c-23.725-.5-42.6-63.921,21.921-68.49,45.159-3.2,60.427,38.193,73.1,57.263s43.359,4.458,46.532,34.482c2.709,25.646-5.508,49.914,14.961,57.381S295.9,1251.519,287.449,1281.566Z" transform="translate(-86.665 -1079.362)"/></clipPath><linearGradient id="b" x1="0.026" y1="0.307" x2="0.834" y2="0.998" gradientUnits="objectBoundingBox"><stop offset="0" stop-color="#aa80f9"/><stop offset="0.996" stop-color="#6165d7"/></linearGradient><linearGradient id="c" x1="0.582" y1="-0.082" x2="1.399" y2="1.074" xlink:href="#b"/><clipPath id="d"><path d="M550.792,383.424l32.1-6.281q9.638-21.66-1.638-28c-11.275-6.335-5.362-27.273-3.6-38.752,4.791-31.143-31.739-29.776-29.019-70.191.723-10.748,5.971-31.094-3.2-40.051-10.442-10.2-19.206-.965-25.79-9.411-10.294-13.2-28.1-18.508-39.791-5.828-11.543,12.516-.354,38.816,30.424,60.838,20.1,18.157,20.081,23.348,17.545,35.887-1.777,8.784-12.412,31.421-.143,41.13s21.448,20.036,15.8,29.807Q534.894,367.446,550.792,383.424Z" transform="translate(-475.418 -177.685)"/></clipPath><linearGradient id="e" x1="0.531" y1="-0.086" x2="1.266" y2="0.713" gradientUnits="objectBoundingBox"><stop offset="0.004" stop-color="#e38ddd"/><stop offset="1" stop-color="#9571f6"/></linearGradient><clipPath id="f"><path d="M137.032,674.727l51.528-6.377c2.241-7.277,4.671-20.488-6.455-22.293-15.47-2.511-18.381-27.505-15.161-36.841,3.987-11.555,12.691-38.629-11.149-42.868-19.847-3.53-33.519-1.936-37.257-25.257S99.776,504.7,77.429,508.707c-23.517,4.219-45.958-23.351-64.333-11.121-32.016,21.309,3.856,69.49,46.468,79.7s20.47,26.97,21.316,46.31c1.155,26.407,38.041,16.449,48.982,25.6C138.44,656.381,138.135,667.695,137.032,674.727Z" transform="translate(-0.806 -494.431)"/></clipPath><clipPath id="g"><path d="M1571.055,1575.553H1398.01v-166.1h173.045Z" transform="translate(-1398.01 -1409.45)"/></clipPath><clipPath id="h"><path d="M1505.763,2176.7l25.982,14.195q12.174-10.656,10.945-23.541c-2.507-26.288,20.693-26.648,30.387-28.253,14.62-2.419,26.449-10.928,14.133-24.174s15.567-28.316,39.741-28.821c23.656-.494,36.428-42.831-14.87-46.461-30.636-2.17-40.993,25.909-49.595,38.846s-29.414,3.024-31.565,23.393c-1.838,17.4,3.736,33.862-10.149,38.927S1500.031,2156.318,1505.763,2176.7Z" transform="translate(-1503.734 -2039.529)"/></clipPath><linearGradient id="i" x1="0.974" y1="0.307" x2="0.166" y2="0.998" xlink:href="#b"/><linearGradient id="j" x1="0.417" y1="-0.082" x2="-0.4" y2="1.074" xlink:href="#b"/><clipPath id="k"><path d="M1726.619,1567.4l-21.779-4.26q-6.539-14.7,1.11-18.994c7.649-4.3,3.638-18.5,2.439-26.288-3.25-21.127,21.532-20.2,19.688-47.618-.491-7.292-4.051-21.094,2.167-27.169,7.084-6.923,13.029-.656,17.5-6.385,6.983-8.955,19.06-12.556,26.994-3.953,7.83,8.491.239,26.333-20.64,41.272-13.637,12.318-13.622,15.839-11.9,24.345,1.2,5.96,8.421,21.316.1,27.9s-14.551,13.591-10.717,20.22Q1737.405,1556.565,1726.619,1567.4Z" transform="translate(-1701.826 -1427.832)"/></clipPath><linearGradient id="l" x1="0.469" y1="-0.087" x2="-0.267" y2="0.712" xlink:href="#e"/><clipPath id="m"><path d="M1669.186,1765.022l-34.956-4.326c-1.521-4.936-3.169-13.9,4.378-15.124,10.495-1.7,12.47-18.658,10.286-24.993-2.705-7.838-8.61-26.2,7.563-29.081,13.464-2.394,22.74-1.313,25.275-17.133s12.729-24.691,27.89-21.971c15.953,2.863,31.177-15.841,43.643-7.544,21.718,14.456-2.616,47.141-31.525,54.07s-13.886,18.3-14.46,31.418c-.784,17.913-25.807,11.159-33.229,17.368C1668.231,1752.576,1668.439,1760.251,1669.186,1765.022Z" transform="translate(-1632.937 -1642.71)"/></clipPath><linearGradient id="n" x1="1.011" y1="0.872" x2="-0.695" y2="4.017" gradientUnits="objectBoundingBox"><stop offset="0" stop-color="#ffc444"/><stop offset="0.996" stop-color="#f36f56"/></linearGradient><linearGradient id="o" y1="-0.01" x2="1" y2="-0.01" gradientUnits="objectBoundingBox"><stop offset="0.494" stop-color="#ebeff2"/><stop offset="1" stop-color="#fff"/></linearGradient><clipPath id="p"><path d="M279,846.485l-81.57,25.259q2.283-88.687,2.1-86.369c-.182,2.315-113.914-73.832-157.972-58.8S-47.586,841.745,16.964,889.011,97.638,886.066,85.99,978.8L224.7,969.351l56.742-73.677Z" transform="translate(15.287 -724.604)"/></clipPath><linearGradient id="q" x1="0.496" y1="-0.162" x2="-0.551" y2="1.494" gradientUnits="objectBoundingBox"><stop offset="0" stop-color="#ab316d"/><stop offset="1" stop-color="#792d3d"/></linearGradient><linearGradient id="r" x1="1.126" y1="0.189" x2="0.522" y2="-0.542" gradientUnits="objectBoundingBox"><stop offset="0" stop-color="#ff9085"/><stop offset="1" stop-color="#fb6fbb"/></linearGradient><linearGradient id="s" x1="1.11" y1="0.16" x2="0.505" y2="-0.615" xlink:href="#r"/><linearGradient id="t" x1="0.988" y1="-0.002" x2="0.005" y2="-0.002" xlink:href="#r"/><linearGradient id="u" x1="0.84" y1="-0.2" x2="-0.068" y2="0.201" gradientUnits="objectBoundingBox"><stop offset="0" stop-color="#311944"/><stop offset="1" stop-color="#6b3976"/></linearGradient><linearGradient id="v" x1="0.947" y1="-0.759" x2="-0.018" y2="0.036" xlink:href="#u"/><linearGradient id="w" x1="0.986" y1="1.612" x2="1.043" y2="-0.05" xlink:href="#q"/><linearGradient id="x" x1="1.148" y1="0.876" x2="0.65" y2="-0.35" xlink:href="#q"/><linearGradient id="y" x1="1.244" y1="-0.004" x2="-0.085" y2="-0.004" xlink:href="#r"/><clipPath id="z"><path d="M1641.7,258.784V230.35H1535.82v91.976h20.406a62.2,62.2,0,0,0,61.645,55.46c34.238,0,61.547-29.424,61.782-61.964A61.485,61.485,0,0,0,1641.7,258.784Z" transform="translate(-1535.82 -230.35)"/></clipPath><linearGradient id="aa" x1="-0.06" y1="0.963" x2="0.072" y2="-0.019" xlink:href="#n"/><linearGradient id="ab" x1="-0.074" y1="0.873" x2="0.03" y2="-0.1" gradientUnits="objectBoundingBox"><stop offset="0" stop-color="#afa0ed"/><stop offset="0.996" stop-color="#6746ee"/><stop offset="1" stop-color="#4520aa"/></linearGradient><linearGradient id="ac" x1="1.098" y1="-0.322" x2="0.991" y2="0.539" gradientUnits="objectBoundingBox"><stop offset="0" stop-color="#311944"/><stop offset="1" stop-color="#893976"/></linearGradient><linearGradient id="ad" x1="0.538" y1="-0.023" x2="1.021" y2="0.293" xlink:href="#ac"/><linearGradient id="ae" x1="-0.723" y1="0.831" x2="0.706" y2="-0.722" xlink:href="#n"/><linearGradient id="af" x1="0.133" y1="-0.569" x2="1.041" y2="0.12" gradientUnits="objectBoundingBox"><stop offset="0" stop-color="#444b8c"/><stop offset="0.996" stop-color="#26264f"/></linearGradient><linearGradient id="ag" x1="-0.477" y1="0.836" x2="0.842" y2="-0.723" xlink:href="#n"/><linearGradient id="ah" x1="0.388" y1="0.915" x2="1.188" y2="0.25" xlink:href="#q"/><linearGradient id="ai" x1="0.3" y1="0.915" x2="1.215" y2="0.25" xlink:href="#q"/><linearGradient id="aj" x1="0.294" y1="0.99" x2="1.615" y2="0.431" xlink:href="#q"/><linearGradient id="ak" x1="1.388" y1="0.428" x2="0.817" y2="0.02" xlink:href="#b"/><linearGradient id="al" x1="1.325" y1="0.377" x2="0.731" y2="-0.12" xlink:href="#b"/><linearGradient id="am" x1="1.124" y1="1.083" x2="0.578" y2="-0.579" xlink:href="#n"/><linearGradient id="an" x1="0.758" y1="1.774" x2="-0.088" y2="0.341" xlink:href="#u"/><linearGradient id="ao" x1="-0.028" y1="0.212" x2="0.16" y2="3.267" xlink:href="#n"/><linearGradient id="ap" x1="0.581" y1="1.848" x2="-0.428" y2="0.001" xlink:href="#u"/><linearGradient id="aq" x1="1.034" y1="0.862" x2="0.934" y2="-0.061" gradientUnits="objectBoundingBox"><stop offset="0" stop-color="#dcd6f7"/><stop offset="0.996" stop-color="#6165d7"/><stop offset="1" stop-color="#6165d7"/></linearGradient><linearGradient id="ar" x1="0.031" y1="-0.021" x2="1" y2="-0.021" xlink:href="#n"/><linearGradient id="as" x1="0.1" y1="0.993" x2="-0.119" y2="0.249" xlink:href="#n"/><linearGradient id="at" x1="0.001" y1="-0.003" x2="0.998" y2="-0.003" xlink:href="#ac"/><linearGradient id="au" x1="0.001" y1="-0.003" x2="0.997" y2="-0.003" xlink:href="#r"/><linearGradient id="av" x1="0.001" y1="-0.003" x2="1" y2="-0.003" xlink:href="#r"/></defs><g transform="translate(15.287 -9.514)"><g transform="translate(-15.287 -0.001)"><g transform="translate(2.171 23.975)"><g class="a" transform="translate(11.585 121.662)"><path class="b" d="M233.989,1281.566l-38.3,20.925q-17.944-15.708-16.133-34.7c3.694-38.753-30.5-39.283-44.794-41.649-21.551-3.566-36.544-15.2-23.8-35.017,14.42-22.425-19.979-42.356-55.614-43.1-34.87-.729-53.7-63.136,21.921-68.49,45.159-3.2,60.427,38.193,73.1,57.263s43.359,4.458,46.532,34.482c2.709,25.646-5.508,49.914,14.961,57.381S242.438,1251.519,233.989,1281.566Z" transform="translate(-33.206 -1079.362)"/><g class="c" transform="translate(-19.417 -4.909)"><path class="d" d="M148.326,1515.4l-.876.289c-.178-.542-18.278-54.733-52.42-103.044-31.452-44.508-83.354-92.987-151.991-71.19l-.279-.877c30.555-9.7,60.388-6.529,88.673,9.436,22.594,12.752,44.249,33.651,64.361,62.115C130.011,1460.554,148.146,1514.859,148.326,1515.4Z" transform="translate(57.24 -1295.677)"/><path class="d" d="M407.583,1104.5l-.858.339c-11.265-28.521-42.164-60.9-42.474-61.22l.664-.638C365.227,1043.305,396.251,1075.811,407.583,1104.5Z" transform="translate(-307.379 -1042.98)"/><path class="d" d="M169.477,1417.117c-36.482-2.087-57.466,19.943-57.674,20.165l-.673-.627c.21-.227,21.47-22.571,58.4-20.458Z" transform="translate(-88.412 -1365.717)"/><path class="d" d="M661.178,2022.022c-29.867-33.18-86.821-14.2-87.36-13.973l-.418-.821c.509-.277,58.331-19.3,88.464,14.177Z" transform="translate(-488.308 -1872.252)"/><path class="d" d="M1140.389,1656.221l-.882.267c-8.282-27.257,9.067-58.6,9.244-58.918l.8.452C1149.379,1598.332,1132.222,1629.344,1140.389,1656.221Z" transform="translate(-976.094 -1522.74)"/><path class="d" d="M1199.091,2512.766c-9.271-14.2-36.874-14.374-37.151-14.375v-.92c1.154,0,28.378.173,37.923,14.792Z" transform="translate(-997.437 -2301.217)"/><path class="d" d="M1394.519,2230.631l-.872.3c-4.357-12.682,6.116-35.184,9.558-42.578.486-1.044.907-1.947.95-2.123l.9.208a21.626,21.626,0,0,1-1.012,2.3C1400.638,2196.053,1390.283,2218.3,1394.519,2230.631Z" transform="translate(-1196.978 -2031.972)"/></g></g><g transform="translate(64.039)"><path class="e" d="M543.491,352.577c-4.944,8.549-1.4,17.444,2.178,23.478a10.011,10.011,0,0,1,2.425.567c8.513,2.3,12.635,1.475,21.384,2.422,1.884.205,7.594-.877,9.9-1.469l4.279-1.173q8.879-20.919-2.4-27.254c-11.275-6.335-5.362-27.273-3.6-38.752,1.085-7.049-.677-10.619-.695-13.273-.183-28.094,8.693-35.948,3.022-45.046-6.262-10.044-18.873-3.348-26.26-13.914-8.343-11.933,2.136-28.482-8.282-38.01a18.493,18.493,0,0,0-6.713-4.331c-7.52-2.638-13.957,1.487-19.078-5.08-10.294-13.2-28.1-18.508-39.791-5.828-11.543,12.516-.354,38.816,30.424,60.838,20.1,18.157,20.081,23.348,17.545,35.888-1.777,8.783-12.412,31.42-.143,41.129S549.141,342.805,543.491,352.577Z" transform="translate(-475.418 -177.685)"/><g class="f"><g class="c" transform="translate(-6.206 -4.247)"><path class="g" d="M525.087,351.959l.646-.049c-.233-3.573-.517-7.173-.842-10.7a348.965,348.965,0,0,0-14.719-74.034,285.028,285.028,0,0,0-23.912-54.741,245.284,245.284,0,0,0-26.186-37.377,203.165,203.165,0,0,0-21.107-21.409c-1.26-1.1-2.618-2.148-3.929-3.167-1.749-1.357-3.557-2.761-5.15-4.273l-.468.425c1.616,1.534,3.437,2.947,5.2,4.312,1.306,1.013,2.657,2.062,3.9,3.145a202.36,202.36,0,0,1,21.044,21.347,244.617,244.617,0,0,1,26.124,37.286,284.357,284.357,0,0,1,23.864,54.633,348.186,348.186,0,0,1,14.7,73.916C524.571,344.8,524.854,348.391,525.087,351.959Z" transform="translate(-429.42 -146.21)"/><path class="g" d="M901.558,362.328l.6-.232c-10.194-23.831,3.106-66.558,3.242-66.987l-.622-.159C904.645,295.382,891.283,338.305,901.558,362.328Z" transform="translate(-834.495 -274.881)"/><path class="g" d="M849.068,1103.956l.626-.165c-4.87-16.988-37.711-31.278-38.042-31.421l-.282.546C811.7,1073.058,844.274,1087.235,849.068,1103.956Z" transform="translate(-759.834 -947.404)"/><path class="g" d="M1103.759,1078.641l.646-.061c-1.005-11.474,4.238-27.743,14.767-45.808.529-.908.529-.908.521-1.021l-.646.053.322-.026-.306-.088c-.028.063-.228.408-.46.8C1108.016,1050.662,1102.745,1067.051,1103.759,1078.641Z" transform="translate(-1012.665 -912.213)"/><path class="g" d="M980.09,1511.475l.6-.229c-4.963-11.744-24.306-17.083-24.5-17.136l-.192.578C956.192,1494.739,975.24,1500,980.09,1511.475Z" transform="translate(-884.949 -1312.239)"/><path class="g" d="M1141.672,1484.285c3.118-9.881,9.378-19.31,19.136-28.825l-.465-.41c-9.832,9.588-16.143,19.1-19.292,29.076Z" transform="translate(-1045.031 -1278.449)"/><path class="g" d="M619.461,188.577l.588-.263c-6.47-12.942-10.005-27.991-11.165-32.936-.282-1.2-.382-1.618-.445-1.758l-.6.239c.046.108.206.792.41,1.66C609.416,160.478,612.962,175.576,619.461,188.577Z" transform="translate(-583.766 -152.62)"/><path class="g" d="M543.977,485.784l.483-.41c-9.684-9.869-38.688-10.742-39.919-10.774l-.031.6C504.808,475.209,534.474,476.1,543.977,485.784Z" transform="translate(-494.378 -430.291)"/></g></g></g><g transform="translate(0 42.738)"><path class="h" d="M154.769,718.612c2.178-.536-1.749-11.639,2.987-26.984,1.182-3.833,6.185-25.193,22.491-27.671l9.5-1.444c1.907-7.458,2.322-14.838-7.638-16.455-15.47-2.511-18.381-27.505-15.161-36.841,3.987-11.555,12.691-38.629-11.148-42.868-19.848-3.53-33.52-1.936-37.258-25.257S99.776,504.7,77.429,508.707c-23.517,4.219-45.958-23.351-64.333-11.121-32.016,21.309,3.856,69.49,46.468,79.7s20.47,26.97,21.316,46.31a33.413,33.413,0,0,0,1.71,7.722c6.846,19.5,28.15,20.525,45,35.188C150.575,686.507,151.1,719.516,154.769,718.612Z" transform="translate(-0.806 -494.431)"/><g class="i"><g class="c" transform="translate(-7.628 8.917)"><path class="g" d="M149.683,721.225l1.074-.34c-24.119-73.864-86.2-135.312-162-160.365l-.394,1.008C63.849,586.475,125.664,647.667,149.683,721.225Z" transform="translate(17.589 -560.52)"/><path class="g" d="M1057.51,1086.923l1.117-.134c-3.2-30.383,21.776-57.353,22.03-57.621l-.83-.7C1079.572,1028.741,1054.256,1056.059,1057.51,1086.923Z" transform="translate(-907.051 -965.33)"/><path class="g" d="M651.256,1505.786l.931-.619c-18.31-25.263-77.838-22.033-78.437-22l.041,1.065C574.383,1484.2,633.3,1481,651.256,1505.786Z" transform="translate(-488.815 -1358.546)"/><path class="g" d="M675.682,632.44l.981-.544c-12.636-21.191-.816-57.535-.7-57.9l-1.07-.3C674.775,574.07,662.812,610.857,675.682,632.44Z" transform="translate(-571.838 -571.922)"/><path class="g" d="M8.719,738.7l.491-.97c-26.6-11.585-64.56,1.109-64.94,1.239l.355,1C-55,739.845-17.463,727.3,8.719,738.7Z" transform="translate(55.73 -709.606)"/></g></g></g></g><g class="j" transform="translate(190.695 190.176)"><g transform="translate(14.265 2.48)"><g class="k" transform="translate(0 82.536)"><path class="l" d="M1505.763,2176.7l25.982,14.195q12.174-10.656,10.945-23.541c-2.507-26.288,20.693-26.648,30.387-28.253,14.62-2.419,24.791-10.31,16.146-23.756-9.782-15.213,13.554-28.735,37.727-29.239,23.656-.494,36.428-42.831-14.87-46.461-30.636-2.17-40.993,25.909-49.595,38.846s-29.414,3.024-31.565,23.393c-1.838,17.4,3.736,33.862-10.149,38.927S1500.031,2156.318,1505.763,2176.7Z" transform="translate(-1503.734 -2039.529)"/><g class="c" transform="translate(10.254 -3.331)"><path class="d" d="M1592.35,2335.332l.594.2c.12-.367,12.4-37.13,35.561-69.9,21.338-30.193,56.547-63.082,103.11-48.294l.189-.6c-20.728-6.582-40.966-4.429-60.154,6.4-15.328,8.652-30.018,22.829-43.663,42.138C1604.774,2298.124,1592.472,2334.963,1592.35,2335.332Z" transform="translate(-1590.647 -2186.271)"/><path class="d" d="M2122.08,2056.575l.582.229c7.642-19.349,28.605-41.311,28.816-41.531l-.451-.433C2150.815,2015.061,2129.768,2037.113,2122.08,2056.575Z" transform="translate(-2048.901 -2014.84)"/><path class="d" d="M2218.075,2268.652c24.75-1.417,38.985,13.529,39.127,13.68l.457-.426c-.143-.154-14.567-15.312-39.619-13.879Z" transform="translate(-2131.913 -2233.782)"/><path class="d" d="M1753.754,2679.02c20.262-22.509,58.9-9.635,59.265-9.479l.283-.556c-.344-.189-39.571-13.092-60.012,9.616Z" transform="translate(-1729.872 -2577.417)"/><path class="d" d="M1759.988,2430.858l.6.182c5.618-18.491-6.151-39.757-6.27-39.97l-.545.306C1753.889,2391.588,1765.528,2412.626,1759.988,2430.858Z" transform="translate(-1730.287 -2340.306)"/><path class="d" d="M1608.654,3011.936c6.29-9.632,25.016-9.751,25.2-9.751v-.625c-.783,0-19.252.117-25.727,10.035Z" transform="translate(-1604.298 -2868.423)"/><path class="d" d="M1586.876,2820.54l.591.2c2.956-8.6-4.149-23.869-6.485-28.884-.329-.71-.614-1.321-.644-1.44l-.609.14a14.428,14.428,0,0,0,.687,1.563C1582.724,2797.083,1589.75,2812.176,1586.876,2820.54Z" transform="translate(-1579.73 -2685.772)"/></g></g><g transform="translate(26.573)"><path class="m" d="M1730.578,1546.478c3.353,5.8.947,11.833-1.478,15.927a6.752,6.752,0,0,0-1.645.385c-5.775,1.564-8.572,1-14.508,1.644a31.279,31.279,0,0,1-6.714-1l-2.9-.8q-6.025-14.192,1.625-18.49c7.649-4.3,3.637-18.5,2.439-26.288-.735-4.782.46-7.2.472-9,.124-19.059-5.9-24.387-2.051-30.559,4.247-6.815,12.8-2.272,17.815-9.439,5.659-8.1-1.449-19.322,5.618-25.785a12.529,12.529,0,0,1,4.554-2.939c5.1-1.789,9.468,1.009,12.942-3.446,6.983-8.955,19.06-12.556,26.994-3.953,7.83,8.491.239,26.333-20.64,41.272-13.637,12.318-13.622,15.839-11.9,24.345,1.2,5.96,8.421,21.316.1,27.9S1726.744,1539.849,1730.578,1546.478Z" transform="translate(-1700.677 -1427.832)"/><g class="n" transform="translate(0.155)"><g class="c" transform="translate(1.594 -2.881)"><path class="g" d="M1811.928,1546.059l-.438-.032c.159-2.425.351-4.867.572-7.259a236.683,236.683,0,0,1,9.985-50.223,193.3,193.3,0,0,1,16.222-37.136,166.453,166.453,0,0,1,17.763-25.356,137.8,137.8,0,0,1,14.319-14.524c.855-.744,1.776-1.457,2.666-2.15,1.186-.92,2.413-1.871,3.495-2.9l.317.289c-1.1,1.04-2.332,2-3.526,2.925-.885.688-1.8,1.4-2.649,2.133a137.5,137.5,0,0,0-14.275,14.482,166,166,0,0,0-17.722,25.3,192.916,192.916,0,0,0-16.189,37.062,236.27,236.27,0,0,0-9.969,50.144C1812.279,1541.2,1812.088,1543.638,1811.928,1546.059Z" transform="translate(-1798.287 -1406.48)"/><path class="g" d="M1941.838,1553.1l-.409-.158c6.915-16.167-2.108-45.153-2.2-45.443l.422-.108C1939.744,1507.681,1948.809,1536.8,1941.838,1553.1Z" transform="translate(-1908.791 -1493.774)"/><path class="g" d="M1844.365,2056.208l-.425-.112c3.3-11.524,25.583-21.219,25.808-21.316l.192.371C1869.717,2035.247,1847.617,2044.865,1844.365,2056.208Z" transform="translate(-1826.359 -1950.004)"/><path class="g" d="M1768.422,2039.031l-.437-.041c.681-7.784-2.877-18.821-10.019-31.075-.359-.617-.359-.617-.354-.694l.438.036-.219-.019.208-.059c.019.044.155.277.312.546C1765.535,2020.051,1769.112,2031.169,1768.422,2039.031Z" transform="translate(-1751.679 -1926.128)"/><path class="g" d="M1814.76,2332.661l-.41-.155c3.368-7.966,16.491-11.589,16.622-11.625l.131.393C1830.973,2321.308,1818.05,2324.876,1814.76,2332.661Z" transform="translate(-1800.761 -2197.501)"/><path class="g" d="M1726.622,2314.222c-2.116-6.7-6.363-13.1-12.981-19.554l.316-.278c6.669,6.5,10.951,12.956,13.087,19.725Z" transform="translate(-1713.64 -2174.585)"/><path class="g" d="M2113.709,1435.224l-.4-.178c4.389-8.78,6.787-18.989,7.575-22.343.19-.812.259-1.1.3-1.193l.407.162c-.031.073-.14.537-.279,1.125C2120.525,1416.162,2118.118,1426.4,2113.709,1435.224Z" transform="translate(-2059.383 -1410.831)"/><path class="g" d="M2044.268,1636.847l-.328-.278c6.57-6.7,26.247-7.287,27.08-7.309l.021.407C2070.84,1629.673,2050.714,1630.277,2044.268,1636.847Z" transform="translate(-1999.373 -1599.201)"/></g></g></g><g transform="translate(17.189 28.993)"><path class="o" d="M1655.591,1794.793c-1.477-.363,1.186-7.9-2.027-18.306-.8-2.6-4.2-17.09-15.259-18.773l-6.442-.98c-1.294-5.058-1.576-10.066,5.183-11.163,10.493-1.7,12.469-18.658,10.284-24.993-2.705-7.838-8.61-26.2,7.563-29.081,13.464-2.394,22.74-1.313,25.275-17.133s12.729-24.691,27.89-21.971c15.953,2.863,31.177-15.841,43.643-7.544,21.718,14.456-2.616,47.141-31.525,54.07s-13.886,18.3-14.46,31.418a22.667,22.667,0,0,1-1.159,5.238c-4.646,13.228-19.1,13.925-30.53,23.872C1658.436,1773.014,1658.08,1795.407,1655.591,1794.793Z" transform="translate(-1631.13 -1642.71)"/><g class="p" transform="translate(0.244)"><g class="c" transform="translate(16.066 6.05)"><path class="g" d="M1779.189,1796.57l-.729-.231c16.361-50.109,58.473-91.795,109.9-108.789l.267.683C1837.417,1705.157,1795.481,1746.669,1779.189,1796.57Z" transform="translate(-1774.891 -1687.55)"/><path class="g" d="M1767.713,2044.654l-.758-.09c2.174-20.613-14.772-38.908-14.945-39.09l.563-.474C1752.747,2005.185,1769.92,2023.716,1767.713,2044.654Z" transform="translate(-1752.01 -1962.167)"/><path class="g" d="M1804.092,2328.8l-.632-.421c12.422-17.139,52.8-14.948,53.212-14.923l-.028.722C1856.241,2314.159,1816.276,2311.991,1804.092,2328.8Z" transform="translate(-1796.518 -2228.917)"/><path class="g" d="M2098.485,1736.339l-.665-.368c8.573-14.377.555-39.032.472-39.279l.726-.2C2099.1,1696.74,2107.217,1721.7,2098.485,1736.339Z" transform="translate(-2051.16 -1695.284)"/><path class="g" d="M2298.692,1808.425l-.332-.658c18.043-7.86,43.8.752,44.054.841l-.24.68C2341.919,1809.2,2316.454,1800.688,2298.692,1808.425Z" transform="translate(-2224.642 -1788.686)"/></g></g></g></g></g><g transform="translate(0 97.77)"><g transform="translate(72.79 119.813)"><g transform="translate(0)"><path class="q" d="M844.149,2620.486l-271.3-2.346v6.939a3.684,3.684,0,0,0,2.785,3.77l76.717,13.664a10.608,10.608,0,0,0,2.751.128l186.1-15.579a3.51,3.51,0,0,0,2.948-3.681Z" transform="translate(-566.283 -2482.459)"/><path class="q" d="M702.208,1739.476,529.774,1752.17a5.227,5.227,0,0,1-5.594-5.392V1618.373a5.7,5.7,0,0,1,5.594-5.8H702.208c2.542,0,4.6,2.348,4.6,5.246v116.077C706.805,1736.79,704.75,1739.29,702.208,1739.476Z" transform="translate(-524.18 -1612.57)"/><path class="r" d="M722.587,1739.476,550.154,1752.17a5.226,5.226,0,0,1-5.594-5.392V1618.373a5.7,5.7,0,0,1,5.594-5.8H722.587c2.542,0,4.6,2.348,4.6,5.246v116.077C727.185,1736.79,725.129,1739.29,722.587,1739.476Z" transform="translate(-541.81 -1612.57)"/><path class="s" d="M765.3,1779.088l-160.6,11.027a4.284,4.284,0,0,1-4.551-4.426V1673.27a4.674,4.674,0,0,1,4.551-4.758l160.6-.692a4.058,4.058,0,0,1,3.794,4.3v102.394A4.432,4.432,0,0,1,765.3,1779.088Z" transform="translate(-589.899 -1660.365)"/><path class="r" d="M1244.671,1624.759a1.993,1.993,0,1,1-1.984-2.159A2.084,2.084,0,0,1,1244.671,1624.759Z" transform="translate(-1144.021 -1621.247)"/><path class="t" d="M550.154,1752.17l171.56-12.629.873-.065a4.617,4.617,0,0,0,3.037-1.537c-12.346-.675-20.014-5.056-24.96-9.583-9.933-9.091-8.21-18.057-18.922-24.035-13.361-7.455-23.866,1.991-34.006-7.329-6.146-5.651-3.129-9.865-10.692-18.309-8.378-9.353-13.832-6.209-22.25-14.628-10.646-10.643-5.322-18.925-14.491-26.566-11.124-9.271-23.12-.691-33.709-9.581-4.567-3.835-7.073-9.41-8.382-15.339h-8.057a5.7,5.7,0,0,0-5.594,5.8v128.405A5.227,5.227,0,0,0,550.154,1752.17Z" transform="translate(-541.81 -1612.57)"/><path class="u" d="M755.185,2547.66,572.85,2561.02l79.5,14.159a10.63,10.63,0,0,0,2.751.128l189.047-15.824-86.065-11.733A13.881,13.881,0,0,0,755.185,2547.66Z" transform="translate(-566.283 -2421.456)"/><path class="v" d="M770.03,2575.39l151.8-11.29,46.981,6.354-150.492,12.068Z" transform="translate(-736.858 -2435.711)"/></g></g><g class="w"><g transform="translate(5.012 34.35)"><path class="x" d="M1910.473,1740.02a9.416,9.416,0,0,1,7.333-3.194c4.785-.144,11.3-2.982,14.1-3.233.676-.059,1.011-.254,1.069-.5.117-.507-2.99-1.247-5.747-1.339-4.887-.163-7.738,1.712-8.4.749-.737-1.078,2.418-4.019,1.84-4.679-.448-.51-2.593,1.13-4.889,2.129q-1.631.71-8,8.332Z" transform="translate(-1653.314 -1626.728)"/><path class="y" d="M1295.964,1777.81l3.558,7.181a95.263,95.263,0,0,1-8.911,26.392c-5.755,11.225-18.87,36.811-41.963,39.134-17.611,1.77-32.387-10.84-37.98-15.665-5.172-4.462-9.812-8.4-12.065-14.676-3.554-9.9.034-22.111,8.641-33.608a8.962,8.962,0,0,1,15.56,2.17c3.952,10.431,10.616,17.677,18.272,19.093,8.609,1.592,18.2-4.24,22.275-6.715,6.068-3.684,7.615-6.517,15.162-12.351A105.378,105.378,0,0,1,1295.964,1777.81Z" transform="translate(-1038.649 -1670.052)"/><g class="z" transform="translate(158.734 111.919)"><path class="aa" d="M1226.754,1858.161c6.6-1.486,9.085-7.61,18.126-8.159,11.432-.695,16.345,8.559,23.658,6.118,5.969-1.992,6.959-9.579,11.122-19.346a90.091,90.091,0,0,1,19.261-28.123l1.5,3.02a95.265,95.265,0,0,1-8.911,26.392c-5.755,11.225-18.87,36.811-41.963,39.133-17.611,1.77-32.387-10.84-37.98-15.665-5.172-4.462-9.812-8.4-12.065-14.676a23.117,23.117,0,0,1-1.221-5.409C1211.919,1857.015,1220.833,1859.493,1226.754,1858.161Z" transform="translate(-1198.28 -1808.65)"/></g><path class="ab" d="M789.81,1852.722c-.139-6.822-.5-44.463,17.719-71.531,4.177-6.2,11.569-17.182,25.758-24.445a60.764,60.764,0,0,1,13.945-5.085l12.141,1.8a73.828,73.828,0,0,1,13.78,16.9c2.943,4.96,7.811,13.168,8.939,23.764,1.313,12.349-3.595,17.216-7.626,36.447a152.868,152.868,0,0,0-3.117,24.938l-42,3.609a197.264,197.264,0,0,0-6.563-44.3,169.973,169.973,0,0,0-5.085,44.953c-1.7.671-11.277,4.26-20.508-.656A22.406,22.406,0,0,1,789.81,1852.722Z" transform="translate(-686.165 -1647.43)"/><path class="ac" d="M196.441,1060.347c6.51-10.151,9.765-15.225,9.9-20.393.3-11.291-8.317-21.141-16.294-25.831-11.2-6.583-23.7-4.519-31.621-3.213-10.171,1.679-10.039,4.16-15.189,3.694-14.231-1.287-15.806-20.285-31.828-30.011-17.678-10.731-40.43-2.576-46.1-.287-30.215,12.19-37.3,44.131-37.976,47.415-6.215,30.431,10.886,59.083,31.619,72.013,5.929,3.7,21.1,13.156,33.284,7.727,11.737-5.229,10.746-19.823,26.912-27.566a36.957,36.957,0,0,1,17.937-3.909c9.979.511,13.079,5.3,23.607,5.494a36.817,36.817,0,0,0,16.2-3.447C184.9,1078.161,188.859,1072.169,196.441,1060.347Z" transform="translate(-25.479 -979.183)"/><g class="z" transform="translate(0 61.959)"><path class="ad" d="M22.017,1438.38c6.876,29.62,13.648,38.783,19.562,39.053,8.277.378,12.9-16.741,25.556-16.931,11.387-.171,14.7,13.571,25.081,13.2,13.119-.471,14.269-22.659,28.83-26.407,17.33-4.459,29.5,23.418,50.009,21.892,6.211-.461,13.85-3.679,22.284-13.968l-.774,1.267c-7.332,11.979-11.161,18.053-19.082,22.095a36.847,36.847,0,0,1-16.127,3.786c-10.53.026-13.73-4.7-23.718-5a36.944,36.944,0,0,0-17.851,4.284c-16,8.084-14.7,22.653-26.326,28.126-12.072,5.683-27.435-3.454-33.439-7.026C36.624,1491.217,20.046,1466.207,22.017,1438.38Z" transform="translate(-21.857 -1438.38)"/></g><path class="ae" d="M1115.2,1559.518q.34,8.768,0,14.653a7.142,7.142,0,0,0,3.476,6.763q2.046,3.505-9.017,4.091a203.088,203.088,0,0,1-21.83,0q10.818-7.2,13.288-9.106c2.472-1.912,3.8-16.206,2.215-25.259Z" transform="translate(-943.999 -1473.551)"/><path class="af" d="M1164.111,1375.343q5.63,13.577,5.6,21.78c-.03,8.2-5.766,12.911-10.117,10.885q-4.349-2.026-10.9-10.557-.88,2.3-4.218,0c-3.337-2.3-5.816-15.194.675-11.535q-1.028-3.615.572-8.858C1147.319,1371.813,1162.213,1366.154,1164.111,1375.343Z" transform="translate(-990.077 -1317.667)"/><g class="z" transform="translate(109.56 144.196)"><path class="ag" d="M851.55,2091.532c4.88-7.659-2.561-14.3.6-26.419,2.7-10.344,11.482-18.419,14.711-17.113,4.461,1.8-4.306,20.454,4.5,29.122,5.848,5.753,13.469,1.233,21.316,6.3,5.175,3.345,10.375,10.819,10.781,28.836l-36,3.094a197.255,197.255,0,0,0-6.563-44.3,169.985,169.985,0,0,0-5.085,44.953c-1.7.671-11.277,4.26-20.508-.656-.515-.275-1-.564-1.468-.862a22.789,22.789,0,0,1,4.2-12.454C842.824,2095.638,848.018,2097.072,851.55,2091.532Z" transform="translate(-833.84 -2047.861)"/></g></g></g></g><g transform="translate(188.251 24.503)"><path class="ah" d="M1543.8,283.3l-1.909,6.444a4.573,4.573,0,0,1-5.571,3.18l-9.164-2.591a66.728,66.728,0,0,1-9.432,15.142l6.807,7.05a4.6,4.6,0,0,1-.2,6.452l-4.855,4.79a4.564,4.564,0,0,1-6.458.084l-7.07-7.186a69.554,69.554,0,0,1-15.675,8.784l2.511,10.141a4.856,4.856,0,0,1-3.468,5.734l-6.752,1.923a4.552,4.552,0,0,1-5.76-3.151l-2.62-10.334a70.119,70.119,0,0,1-18.3.217l-3.159,10.665a5.2,5.2,0,0,1-6.12,3.493l-7.042-1.637a4.568,4.568,0,0,1-3.456-5.772l3.194-10.781a69.7,69.7,0,0,1-16.456-8.83l-8.5,8a5.452,5.452,0,0,1-7.358.094l-5.393-5.03a4.693,4.693,0,0,1,.072-6.96l8.529-7.949a68.492,68.492,0,0,1-9.989-16.17l-11.539,2.793a5.451,5.451,0,0,1-6.581-3.6l-2.016-7.169a4.971,4.971,0,0,1,3.879-6.122l11.372-2.641a66.091,66.091,0,0,1-.124-19.35l-11.07-3.13a5.218,5.218,0,0,1-3.816-6.375l2.126-7.177a5.306,5.306,0,0,1,6.694-3.342l10.75,3.165a66.683,66.683,0,0,1,10.3-16.814l-7.49-7.61a4.928,4.928,0,0,1,.074-7.22l5.61-4.968a5.492,5.492,0,0,1,7.509.467l7.205,7.462a69.705,69.705,0,0,1,17.786-9.048l-2.4-9.468a4.736,4.736,0,0,1,3.74-5.9l7.289-1.371a5.4,5.4,0,0,1,6.146,3.993l2.288,9.237a70.22,70.22,0,0,1,19.8,1.255l2.579-8.7a4.643,4.643,0,0,1,6.062-3.026l6.826,2.365a5.111,5.111,0,0,1,3.249,6.2l-2.552,8.61a69.382,69.382,0,0,1,16.11,10.646l6.431-5.992a4.584,4.584,0,0,1,6.571.409l4.639,5.21a4.817,4.817,0,0,1-.208,6.676l-6.443,6.069a68.207,68.207,0,0,1,8.41,16.592l8.672-2.014a4.522,4.522,0,0,1,5.4,3.5l1.475,6.617a4.635,4.635,0,0,1-3.352,5.542l-8.81,2.133a66.062,66.062,0,0,1-.854,18.029l8.9,2.619A4.5,4.5,0,0,1,1543.8,283.3Zm-31.567-6.7c7.289-24.606-6.636-50.957-31.868-59.1-26.121-8.434-54.27,5.743-62.031,31.939s8.208,53.138,34.806,59.954C1478.837,315.975,1504.945,301.2,1512.235,276.6Z" transform="translate(-1379.896 -181.601)"/><path class="ai" d="M1895.925,185.375l-6.269-2.1-3.866,5.032Z" transform="translate(-1817.53 -183.053)"/><path class="ai" d="M2420.53,356.1l7.281,2.236-1.6,5.386Z" transform="translate(-2280.118 -332.555)"/><path class="ai" d="M2569.73,609.76l7.192,2.452-3.028,3.536Z" transform="translate(-2409.187 -551.989)"/><path class="ai" d="M2577.23,895.44l7.178,2.761-3.458,2.855Z" transform="translate(-2415.675 -799.122)"/><path class="ai" d="M2375.84,1226.843l6.831,3.132,2.6-5.564Z" transform="translate(-2241.458 -1083.705)"/><path class="ai" d="M2115.85,1367.518l6.061,3.063,1.911-4.581Z" transform="translate(-2016.548 -1206.19)"/><path class="ai" d="M1818.618,1335.9l-5.448-2.723,7.128-5.886Z" transform="translate(-1754.709 -1172.703)"/><path class="ai" d="M1595.938,1224.936l-6.288-3.368,7.023-4.728Z" transform="translate(-1561.348 -1077.156)"/><path class="ai" d="M1620.72,305.17l6.923,2.288-4.275,4.276Z" transform="translate(-1588.226 -288.497)"/><path class="ai" d="M1397.34,664.527l6.126,2.844,1.043-5.392Z" transform="translate(-1394.986 -597.163)"/><path class="ai" d="M1415.08,988.155l5.958,2.873,1.738-4Z" transform="translate(-1410.333 -878.354)"/><path class="aj" d="M1587.257,298.349l-1.925,6.5a4.613,4.613,0,0,1-5.617,3.206l-9.24-2.614a67.262,67.262,0,0,1-9.51,15.266l6.864,7.108a4.634,4.634,0,0,1-.2,6.5l-4.9,4.828a4.6,4.6,0,0,1-6.51.084l-7.13-7.244a70.126,70.126,0,0,1-15.8,8.854l2.533,10.225a4.895,4.895,0,0,1-3.5,5.78l-6.809,1.939a4.589,4.589,0,0,1-5.807-3.176l-2.643-10.419a70.675,70.675,0,0,1-18.452.219l-3.186,10.751a5.242,5.242,0,0,1-6.17,3.522l-7.1-1.649a4.6,4.6,0,0,1-3.483-5.819l3.219-10.87a70.264,70.264,0,0,1-16.592-8.9l-8.565,8.067a5.5,5.5,0,0,1-7.418.1l-5.439-5.072a4.731,4.731,0,0,1,.071-7.016l8.6-8.012a69.075,69.075,0,0,1-10.074-16.3l-11.634,2.816a5.5,5.5,0,0,1-6.636-3.628l-2.032-7.227a5.011,5.011,0,0,1,3.91-6.172l11.468-2.662a66.566,66.566,0,0,1-.127-19.508l-11.161-3.157a5.26,5.26,0,0,1-3.848-6.427L1424.56,251a5.351,5.351,0,0,1,6.749-3.369l10.839,3.191a67.252,67.252,0,0,1,10.387-16.95l-7.552-7.673a4.967,4.967,0,0,1,.074-7.278l5.658-5.009a5.536,5.536,0,0,1,7.57.471l7.266,7.524a70.26,70.26,0,0,1,17.933-9.123l-2.421-9.545a4.774,4.774,0,0,1,3.77-5.95l7.349-1.382a5.444,5.444,0,0,1,6.2,4.025l2.307,9.313a70.79,70.79,0,0,1,19.964,1.267l2.6-8.774a4.681,4.681,0,0,1,6.111-3.051l6.883,2.384a5.153,5.153,0,0,1,3.276,6.249l-2.572,8.68a69.955,69.955,0,0,1,16.244,10.734l6.483-6.041a4.623,4.623,0,0,1,6.626.413l4.678,5.251a4.856,4.856,0,0,1-.209,6.73l-6.5,6.119a68.728,68.728,0,0,1,8.48,16.729l8.745-2.031a4.558,4.558,0,0,1,5.439,3.532l1.488,6.671a4.675,4.675,0,0,1-3.38,5.587l-8.882,2.149a66.593,66.593,0,0,1-.859,18.176l8.969,2.641A4.536,4.536,0,0,1,1587.257,298.349Zm-31.83-6.755c7.349-24.807-6.693-51.373-32.133-59.589-26.337-8.5-54.718,5.788-62.542,32.2s8.278,53.571,35.1,60.446C1521.756,331.29,1548.079,316.4,1555.427,291.594Z" transform="translate(-1416.314 -193.9)"/><g class="ak" transform="translate(14.197 -14.988)"><g transform="translate(8.388 19.282)"><path class="al" d="M1856.09,417.975l3.243-2.211q.429-4.189,2.23-5.626c1.8-1.438,6.679-2.984,7.226-.635s-1.98,9.8-5.073,10.625a23.466,23.466,0,0,0-6.262,2.779Z" transform="translate(-1813.861 -399.451)"/><path class="am" d="M1645.171,462.729q-9.528-2.259-16.957,5.018c-7.428,7.275-16.164,18.918-16.943,17.243s14.016-20.461,23.331-25.94a30.761,30.761,0,0,0-3.718-7.319q-43.1,12.174-41.96,32.212c1.138,20.039,12.541,22.955,15.631,22.955s10.79,3.817,32.4-6.36Q1658.555,490.361,1645.171,462.729Z" transform="translate(-1588.896 -436.023)"/><g transform="translate(43.683 6.976)"><path class="an" d="M1882.233,402.684a.7.7,0,0,0-.167-.974l-7.2-5.1a.7.7,0,0,0-.973.166l-8.47,11.972a.7.7,0,0,0,.167.975l7.2,5.1a.7.7,0,0,0,.973-.166Z" transform="translate(-1865.29 -396.487)"/><g transform="translate(0.238 0.168)"><path class="ao" d="M1875.271,415.721a.7.7,0,0,1-.974.168l-7.2-5.1a.7.7,0,0,1-.167-.974l8.47-11.972a.7.7,0,0,1,.973-.168l7.2,5.1a.7.7,0,0,1,.167.974Z" transform="translate(-1866.797 -397.55)"/><path class="r" d="M1883.7,421.8a.7.7,0,0,1-.973.166l-5.773-4.084a.7.7,0,0,1-.168-.974l6.953-9.827a.7.7,0,0,1,.973-.166l5.773,4.084a.7.7,0,0,1,.166.974Z" transform="translate(-1875.101 -405.327)"/><path class="r" d="M1942.7,413.322a.236.236,0,0,1-.33.057l-1.52-1.076a.234.234,0,0,1-.057-.329l.063-.09a.236.236,0,0,1,.33-.057l1.521,1.075a.237.237,0,0,1,.057.33Z" transform="translate(-1929.065 -409.534)"/></g></g><path class="ap" d="M2080.913,2046.56l-.632,7.195a3.91,3.91,0,0,0,4.018.5l1.623-7.073Z" transform="translate(-2002.618 -1778.795)"/><path class="aq" d="M1693.885,2041.156c1.031,1.139,1.266,3.235.37,4.269-.882,1.015-2.206.253-5.965.365-4.026.12-5.076,1.072-7.812.316-1.106-.3-3.058-1.046-3.02-1.835.025-.555,1.019-.843,4.338-1.953,4.712-1.579,4.691-1.664,5.691-1.83C1690,2040.071,1692.522,2039.653,1693.885,2041.156Z" transform="translate(-1663.46 -1773.355)"/><path class="ar" d="M1754.32,2005.25l-2.02,6.715a3.906,3.906,0,0,0,3.967.8l3-6.519Z" transform="translate(-1726.474 -1744.014)"/><path class="as" d="M1772.681,1074.5a629.207,629.207,0,0,1-19.881,149.057l7.729,2.078c6.535-6.094,14.78-15.688,18.759-29.243,2.47-8.414,1.647-12.739,3.213-23.089,2.494-16.478,7.545-25.112,12.765-38.4a218.608,218.608,0,0,0,13.211-52.891Z" transform="translate(-1726.895 -960.366)"/><path class="at" d="M1808.044,1182.9c2.586-7.142,5.732-9.341,7.137-16.824,1.227-6.527-.457-8.648-.509-15.3-.106-13.249,6.475-17.637,8.667-28.551,1.188-5.917-6.584-20.858-13.712-33.765q.249-7.141.335-13.953,17.9,3.755,35.8,7.512a218.6,218.6,0,0,1-13.211,52.89c-5.22,13.287-10.271,21.921-12.765,38.4-1.566,10.351-.743,14.675-3.213,23.089-3.978,13.556-12.223,23.149-18.759,29.243-.243-.065-.487-.13-.73-.2,6.589-8.587,8.634-15.88,8.925-21.644C1806.3,1197.844,1804.813,1191.822,1808.044,1182.9Z" transform="translate(-1764.177 -960.375)"/><path class="au" d="M2035.56,1090.74q2.364,43.061,3.856,87.711,1.107,33.5,1.639,66.141l7.894.973a91.9,91.9,0,0,0,8.234-21.248c2.81-11.267,2.159-17.959,3.391-29.635,1.383-13.1,3.392-15.952,6.949-32.472,7.221-33.531,10.831-50.3,2.777-60.725C2067.687,1098.1,2059.488,1089.607,2035.56,1090.74Z" transform="translate(-1964.966 -973.953)"/><path class="av" d="M1863.518,520.2a135.409,135.409,0,0,0-29-4.844c-18.012-1.018-27.023-1.468-32.311,2.673-16.4,12.843-.858,58.748-6.7,82.869q-4.917,20.3-5.1,20.649c-1.163,2.268-3.047,5.421-2.295,9.176.591,2.954,2.826,6.349,5.864,7.393,6.311,2.172,9.928-7.92,20.393-10.962,10.94-3.18,23.179,3.139,38.655,11.126,9.849,5.084,13.213,8.328,16.664,6.719,6.645-3.1,4.821-20.086,4.078-27.023C1870.82,590.414,1867.5,558.144,1863.518,520.2Z" transform="translate(-1756.481 -489.008)"/><path class="aw" d="M1806.4,740.5c1.78-3.085,1.7-7.744,5.607-9.943,2.276-1.282,4.051-.683,7.137-.765,9.206-.245,10.968-6.036,17.336-6.372,9.86-.521,14.6,12.894,20.138,10.962,3.616-1.263,5.946-8.5,4.079-14.022-2.6-7.7-11.519-6.648-23.2-17.08-5-4.462-12.166-12.516-10.2-16.059,2.067-3.722,11.877,1.739,19.119-3.825,4.226-3.246,3.686-7.258,7.137-14.531,1.871-3.94,8.721-14.186,18.907-21.095,3.276,31.323,6.088,58.55,8.625,82.276.743,6.937,2.567,23.924-4.078,27.023-3.452,1.609-6.815-1.634-16.664-6.719-15.476-7.988-27.715-14.306-38.655-11.127-10.465,3.042-14.082,13.134-20.393,10.962a9.051,9.051,0,0,1-4.661-4.245C1802.268,744.928,1805.058,742.823,1806.4,740.5Z" transform="translate(-1763.807 -601.08)"/><g transform="translate(56.947)"><path class="ax" d="M1976.075,432.31c-.011,1.369-1.252,8.229,3.341,11.556,4.635,3.355,10.466,3.174,12.2,3.6,4.029,1,4.547.972,4.635,1.372.435,1.95-10.55,8.6-21.9,6.994-6.945-.98-13.263-4.942-12.876-7.024s4.719-.97,6.787-4.759c1.439-2.635,2.435-6.377.529-9.475C1970.642,431.118,1974.229,435.768,1976.075,432.31Z" transform="translate(-1959.526 -419.673)"/><path class="ay" d="M1951.062,364.7a7.577,7.577,0,0,1-.887-8.652c1.418-2.331,4.016-2.952,5.571-3.325,4.506-1.078,10.5.136,13.015,4.1,1.489,2.35-.458,7.839-.749,8.819-.329,1.108-1.111,1.569-1.78,2.458-.928,1.231-2.375,3.186-4.729,6.448a19.107,19.107,0,0,0-1.413-2.976,16.737,16.737,0,0,0-2.609-3.382C1954.75,365.573,1952.918,366.635,1951.062,364.7Z" transform="translate(-1949.211 -352.351)"/><path class="az" d="M1972.963,419.1a9.145,9.145,0,0,1-8.44,5.622c-5.4.3-7.629-11.62-4.516-14.581a6.812,6.812,0,0,1,5.2-1.318c1.135.175,1.562.586,3.42.836,1.716.232,2.164-.009,2.717.352.692.454,1.309,1.694.683,5.331.9-1.157,2.075-1.7,2.995-1.4a1.849,1.849,0,0,1,.8.608C1976.737,415.839,1975.7,417.742,1972.963,419.1Z" transform="translate(-1957.106 -399.837)"/><path class="ba" d="M1973.625,411.785c-.235.224.67,1.092.893,2.45a6.6,6.6,0,0,1-4.564,6.733c-1.6.354-2.159-.566-4.865-.526a12.29,12.29,0,0,0-3.871.694c-.49,3,.648,5.805,2.751,6.915,2.263,1.195,4.827,0,5.9-.506a7.719,7.719,0,0,0,4-3.749c1.027-2.443-.417-3.668.891-5.394.659-.871,1.609-1.328,2.391-2.954a7.5,7.5,0,0,0,.42-1.083C1976.015,413.067,1973.965,411.461,1973.625,411.785Z" transform="translate(-1959.225 -402.356)"/></g><path class="bb" d="M2008,556.762c2.752-4.172,8.223-8.266,13.257-7.9,14.7,1.061,32.817,40.654,20.393,56.338-9.483,11.972-38.779,12.552-65.516-8.157v-6.883c13.157,2.3,24.064,3.828,32.122,4.843,5.024.634,10.03,1.2,10.961-.765,1.41-2.978-8.653-7.237-12.49-18.354C2006.192,574.35,2002.828,564.6,2008,556.762Z" transform="translate(-1914.929 -517.783)"/><path class="bc" d="M1856.764,806.064c-.12.021-6.752-4.256-5.812-1.732a5.667,5.667,0,0,0,2.861,3.406,12.524,12.524,0,0,0-5.846,4.07c-2.349,2.9-3.014,4.618-1.487,4.854s14.136-5.642,17.382-5.541a23.84,23.84,0,0,0,3.949-.055l.2-4.618Q1859.767,805.565,1856.764,806.064Z" transform="translate(-1805.078 -732.227)"/><path class="bd" d="M1879.446,415.16a2.074,2.074,0,0,1,1.721.626c.574.657,3.379-1.275,4.454-3.433s-.25-4.422-1.206-3.95-5.83,2.26-5.13,6.527Z" transform="translate(-1833.332 -399.491)"/></g></g></g><g transform="translate(120.328 64.223)"><g transform="translate(0)"><path class="be" d="M655.943,343.517a.814.814,0,0,1-.215.026l-25.941-.4-10.693-.167-8.79-.133-48.354-1.074a8.346,8.346,0,0,1-8.268-8.39l.7-49.2a7.863,7.863,0,0,1,7.863-7.73c.189-.008.377.034.57.046l.589.068h.008l66.563,4.551a8.005,8.005,0,0,1,7.422,8.047l-.085,39.026,18.875,13.792A.871.871,0,0,1,655.943,343.517Z" transform="translate(-553.682 -276.449)"/><g transform="translate(1.853)"><path class="bf" d="M675.635,341.962l-18.874-13.794.086-39.035a8.03,8.03,0,0,0-7.424-8.068l-67.158-4.615a7.878,7.878,0,0,0-8.432,7.72l-.7,49.2a8.342,8.342,0,0,0,8.266,8.39l57.142,1.209,10.694.164,25.943.4A.865.865,0,0,0,675.635,341.962Z" transform="translate(-573.131 -276.437)"/></g><path class="r" d="M822.056,469.786a5.264,5.264,0,0,1-4.395-1.727l-15.609-19.584c-1.463-1.835-.674-4.349,1.76-5.615s5.589-.8,7.05,1.032l10.824,13.594,14.283-22.729a6.041,6.041,0,0,1,6.876-2.092c2.515.885,3.515,3.254,2.236,5.293l-18.457,29.4a5.71,5.71,0,0,1-4.388,2.419Z" transform="translate(-777.72 -417.477)"/></g><path class="bg" d="M651.268,342.855,581.4,341.781a8.345,8.345,0,0,1-8.267-8.39l.7-49.2a7.863,7.863,0,0,1,7.864-7.73c.086.055.167.115.249.178,3.974,2.911,7.389,7.522,8.326,14.83,2.593,20.186,12.779,19.444,23.149,20.741,5.211.652,9.955,1.818,14.678,4.815,4.674,2.966,9.33,7.725,14.4,15.555,3.237,5,5.93,8.189,8.734,10.245Z" transform="translate(-571.278 -276.458)"/></g></g></g></svg>